<?xml version="1.0" encoding="UTF-8"?>
<!DOCTYPE svg PUBLIC "-//W3C//DTD SVG 1.1//EN" "http://www.w3.org/Graphics/SVG/1.1/DTD/svg11.dtd">
<!-- Creator: CorelDRAW -->
<svg xmlns="http://www.w3.org/2000/svg" xml:space="preserve" width="178.466mm" height="194.897mm" version="1.1" style="shape-rendering:geometricPrecision; text-rendering:geometricPrecision; image-rendering:optimizeQuality; fill-rule:evenodd; clip-rule:evenodd"
viewBox="0 0 9449.22 10319.15"
 xmlns:xlink="http://www.w3.org/1999/xlink"
 xmlns:xodm="http://www.corel.com/coreldraw/odm/2003">
 <defs>
  <style type="text/css">
   <![CDATA[
    .fil8 {fill:none}
    .fil6 {fill:#FEFEFE}
    .fil7 {fill:#373435}
    .fil11 {fill:#41B6FF}
    .fil10 {fill:#ADD6FF}
    .fil1 {fill:#80B1FF}
    .fil9 {fill:#0062FF}
    .fil0 {fill:#021269}
    .fil2 {fill:#548FEF}
    .fil5 {fill:white;fill-rule:nonzero;fill-opacity:0.400000}
    .fil4 {fill:white;fill-rule:nonzero;fill-opacity:0.600000}
    .fil3 {fill:white;fill-rule:nonzero;fill-opacity:0.901961}
   ]]>
  </style>
 </defs>
 <g id="Layer_x0020_1">
  <metadata id="CorelCorpID_0Corel-Layer"/>
  <g id="_3008752328160">
   <path class="fil0" d="M1191.29 4965.67l0 0c657.69,-2.39 1197.66,540.22 1200.08,1205.69l8.77 2414.57 -2391.36 8.69 -8.78 -2414.57c-2.41,-665.58 533.71,-1211.99 1191.29,-1214.38l-0.01 0z"/>
   <path class="fil1" d="M5409.59 5108.15c653.07,-2.38 3029.57,505.65 3005.53,433.66 -24.04,-71.99 -1477.52,-1448.58 -1477.52,-1448.58l2511.62 -1535.15 -3654.45 710.18 0.01 -3268.26 -1747.65 2637.87 -2058.76 -1278.26c0,0 1135.74,2146.72 945.76,2147.41 -189.99,0.69 -2799.51,707.07 -2799.51,707.07l2603.99 1011.93 2671.1 -117.88 -0.12 0z"/>
   <path class="fil2" d="M7474.46 7366.9c0,0 -129.94,-1927.26 -672.01,-2699.04 -542.19,-771.9 -1978.62,-1519.76 -3225.21,-755.26 -1246.59,764.5 -1400.09,1753.17 -1266.06,2934.11 134.03,1180.94 107.63,3316.11 107.63,3316.11l2942.51 -10.7c0,0 -19.92,-335.41 20.76,-704.56 40.56,-369.16 444.16,-318.3 657,-319.07 212.96,-0.77 664.91,79.23 880.32,-137.06 215.41,-216.3 107.49,-1486.11 107.49,-1486.11l447.58 -138.41 0.01 -0.01z"/>
   <g>
    <path class="fil3" d="M3659.46 7558.46l0 186.6 -96.19 7.7c-13.47,61.56 -38.48,119.27 -71.19,171.22l61.56 75.03 -132.74 132.74 -75.03 -61.55c-51.95,34.61 -109.64,57.72 -171.22,71.19l-7.7 96.2 -186.6 0 -9.6 -96.2c-59.62,-13.47 -119.27,-38.48 -171.22,-71.19l-75.02 61.55 -132.74 -132.74 61.55 -75.03c-34.61,-51.95 -59.62,-109.64 -71.19,-171.22l-96.2 -7.7 0 -186.6 96.2 -9.6c13.47,-61.55 36.54,-119.27 71.19,-171.22l-61.55 -75.03 132.74 -130.81 75.02 61.56c51.95,-34.62 109.64,-59.62 171.22,-71.19l9.6 -96.19 186.6 0 7.7 96.19c61.55,13.47 119.27,36.55 171.22,71.19l75.03 -61.56 132.74 130.81 -61.56 75.03c34.62,51.95 57.72,109.64 71.19,171.22l96.19 9.6zm-588.63 -159.66c-142.35,0 -255.85,115.41 -255.85,255.85 0,142.35 115.4,255.85 255.85,255.85 142.35,0 255.85,-115.41 255.85,-255.85 0,-142.35 -115.4,-255.85 -255.85,-255.85l0 0z"/>
    <path class="fil4" d="M4419.31 7029.45l0 144.28 -75.03 7.7c-9.6,48.08 -28.85,94.26 -55.78,134.64l48.08 59.62 -103.87 103.87 -57.72 -48.08c-40.41,26.94 -86.56,46.18 -136.58,55.78l-7.7 76.96 -146.21 0 -7.7 -76.96c-48.09,-9.6 -94.27,-28.85 -136.58,-55.78l-57.72 48.08 -103.87 -103.87 48.09 -59.62c-26.94,-40.41 -46.18,-86.56 -55.78,-134.64l-75.03 -7.7 0 -146.21 75.03 -7.7c9.6,-48.08 28.84,-94.26 55.78,-134.64l-48.09 -59.62 103.87 -103.87 57.72 48.09c40.41,-26.94 86.56,-46.18 136.58,-55.78l7.7 -75.03 146.21 0 7.7 75.03c48.09,9.6 94.27,28.85 136.58,55.78l57.72 -48.09 103.87 103.87 -48.08 59.62c26.94,40.41 46.18,86.56 55.78,134.64l75.03 9.6 0 0.03zm-461.69 -125.04c0,0 0,0 0,0 -109.64,0 -198.14,88.5 -198.14,198.14 0,109.64 88.5,198.13 198.14,198.13 109.64,0 198.13,-88.5 198.13,-198.13 0,0 0,0 0,0 0,-109.64 -88.5,-198.14 -198.13,-198.14 0,0 0,0 0,0l0 0z"/>
    <path class="fil5" d="M3659.46 6613.94l0 123.11 -63.49 5.77c-7.7,40.41 -25.01,78.86 -46.18,113.5l40.41 48.08 -84.63 84.63 -50.02 -40.41c-34.61,23.07 -73.09,38.48 -113.5,46.18l-5.77 63.49 -125.04 0 -5.77 -63.49c-40.41,-7.7 -78.86,-25.01 -113.51,-46.18l-50.01 40.41 -84.63 -84.63 40.41 -48.08c-23.07,-34.62 -38.48,-73.09 -46.18,-113.5l-63.49 -5.77 0 -123.11 63.49 -5.77c7.7,-40.41 25.01,-78.86 46.18,-113.5l-40.41 -48.09 84.63 -84.63 50.01 40.41c34.62,-23.07 73.09,-40.41 113.51,-48.09l5.77 -63.49 123.11 0 5.77 63.49c40.41,7.7 78.86,25.01 113.5,48.09l50.02 -40.41 84.63 84.63 -40.41 48.09c23.08,34.61 38.48,73.09 46.18,113.5l65.39 5.77 0.03 0zm-386.66 -105.8c-90.4,1.93 -161.59,76.96 -161.59,167.35 0,92.33 75.03,167.36 167.35,167.36 92.33,0 167.36,-75.03 167.36,-167.36 0,0 0,0 0,0 0,-92.33 -75.03,-167.35 -167.36,-167.35 -1.93,0 -1.93,0 -3.83,0l0 0 -1.93 0z"/>
   </g>
   <path class="fil6" d="M5105.05 2175.43c-622.6,2.26 -1125.49,514.91 -1123.2,1144.98 2.72,748.98 622.11,945.08 646,1132.35 10.22,80.33 0.84,229.65 0.84,229.65l485.59 -1.77 485.59 -1.76c0,0 -10.47,-149.13 -0.84,-229.65 22.52,-187.45 640.47,-388.04 637.75,-1137.02 -2.29,-630.07 -508.9,-1139.05 -1131.5,-1136.78l-0.23 0z"/>
   <path class="fil7" d="M5599.75 4678.99l-971.06 3.53 1.34 368.77c0.47,128.49 104.73,233.12 231.58,232.66l509.48 -1.85c126.97,-0.46 230.36,-105.97 229.89,-234.34l-1.34 -368.77 0.11 0z"/>
   <g>
    <path class="fil6" d="M5132.37 4767.95c0,0 263.93,-11.35 467.6,-28.57l0.18 50.58 -467.78 -22.01z"/>
    <path class="fil6" d="M5132.74 4870.74c0,0 263.94,-11.35 467.6,-28.56l0.19 50.58 -467.79 -22.02z"/>
    <path class="fil6" d="M5133.12 4973.65c0,0 263.93,-11.35 467.6,-28.56l0.19 50.58 -467.79 -22.02z"/>
   </g>
   <path class="fil7" d="M4952.69 5318.55c-1.7,8.77 -2.59,17.76 -2.56,26.88 0.3,82.82 75.11,149.6 167.1,149.26 92,-0.34 166.31,-67.77 166.01,-150.47 -0.03,-9.23 -0.98,-18.1 -2.75,-26.86l-327.69 1.19 -0.11 0z"/>
   <g>
    <path class="fil7" d="M5357.84 4654.29c-49.54,-323.15 35.7,-624.49 182.29,-912.96 16.73,-32.89 -102.47,-119.6 -125.36,-222.65 32.85,-13.55 63.83,-33.64 89.93,-59.32 238.54,-233.9 -10.88,-260.92 -106.65,-31.27 -9.95,23.86 -14.96,46.19 -16.03,66.99 -36.2,11.81 -74.52,13.12 -112.2,-3.1 44.17,-42.79 76.76,-95.25 90.27,-156.27 71.77,-323.94 -336.54,44.33 -201.47,112.41 12.66,21.45 27.96,38.8 45.33,52.28 -123.45,110.37 -280.46,103.93 -389.36,56.2 182.89,-334.28 -220.87,-301.38 -153.6,-85.88 16.23,51.92 51,89.99 96.8,115.29 -33.44,39.73 -80.63,76.8 -144.7,104.84 -417.53,182.46 313.85,-125.9 329.93,932 0.16,14.72 -3.25,26.88 -10.25,39.4 8.86,-7.39 12.4,-18.85 14.44,-30.07 52.95,-294.56 -100.1,-767.2 -414.35,-878.32 108,-43.26 188.17,-58.15 255,-153.6 129.35,51.51 321.88,18.92 448.95,-79.66 44.52,20.86 96.81,22.43 146.96,8.57 14.66,96.32 110.11,156.36 137.49,194.58l-0.12 0.47c-129.17,313.29 -245.58,583.08 -163.18,929.83l-0.12 0.23zm53.34 -1171.23c1.05,-59.46 40.53,-122.68 159.08,-183.15l1.15 -0.59c-5.26,43.59 -73.47,140.79 -160.23,183.74zm-177.57 -12.32c-16.09,-12.2 -31.96,-28.15 -47.27,-48.54 -2.9,-3.84 -5.22,-4.89 -9.02,-6.4 -55.14,-86.36 242.03,-291.74 134.69,-65.09 -22.91,48.21 -49.43,87.79 -78.4,119.9l0 0.12zm-56.64 -54.92l-0.81 -0.35c0.35,0.11 0.58,0.23 0.81,0.35zm-389.1 127.92c-108.26,-58.6 -152.47,-157.72 -29.48,-202.09 65.71,-23.6 96.12,89.95 29.48,202.09z"/>
   </g>
   <path class="fil8" d="M5357.84 4654.29c-72.61,-223.43 44.23,-723.69 171.99,-919.92 18.94,-29.04 -32.05,-23.13 -83.23,-98.52 -100.73,-148.69 -31.58,-274.28 116.58,-350.04 75,-38.35 -35.38,175.23 -155.84,220.05 -79.77,29.73 -196.75,13.8 -235.61,-72.15 -30.15,-7.72 -17.1,-100.28 41.71,-148.03 77.68,-63.01 154.82,-118.3 126.79,46.61 -11.08,64.76 -149.74,212.09 -223.97,242.38 -136.47,55.63 -287.6,44.5 -401.89,-54.73 -72.48,-62.93 -48.31,-176.79 57.45,-199.72 60.21,-13.07 88.33,101.77 52.03,181.8 -87.6,193.52 -140.79,166.85 -317.79,248.33 -27.77,12.83 -4.06,-5.24 71.26,41.91 336.19,210.09 359.21,477.04 368.22,830.59 0.26,9.46 -4.27,31.43 -12.9,39.52"/>
   <path class="fil1" d="M6086.73 3344.05c-2.13,-584.28 -471.89,-1056.24 -1049.24,-1054.14 -46.64,0.17 -92.45,3.37 -137.44,9.6 63.21,-12.61 128.52,-19.27 195.46,-19.52 566.96,-2.06 1028.16,461.41 1030.24,1035.06 1.5,413.39 -204.62,643.2 -371.77,798.23 159.75,-156.99 334.14,-385.52 332.74,-769.24z"/>
   <path class="fil9" d="M8006 6865.39c277.05,-1.01 502.26,-230.58 501.25,-510.96 1.02,280.39 227.89,508.32 504.95,507.31 -277.06,1.01 -502.27,230.58 -501.25,510.96 -1.02,-280.39 -227.89,-508.32 -504.95,-507.31z"/>
   <path class="fil9" d="M215.18 2468.17c140.93,-0.51 255.47,-117.27 254.95,-259.9 0.52,142.63 115.91,258.55 256.83,258.04 -140.93,0.51 -255.47,117.27 -254.95,259.89 -0.52,-142.62 -115.91,-258.54 -256.84,-258.03z"/>
   <path class="fil9" d="M7002.83 1778.73c210.65,-0.77 381.77,-175.2 380.99,-388.38 0.78,213.17 173.16,386.37 383.81,385.6 -210.65,0.77 -381.77,175.2 -380.99,388.38 -0.78,-213.17 -173.16,-386.37 -383.81,-385.6z"/>
   <circle class="fil9" transform="matrix(-1.02962 0.00374239 0.0037873 1.04198 6711.32 7985.61)" r="92.71"/>
   <circle class="fil9" transform="matrix(-1.02962 0.00374239 0.0037873 1.04198 3598.27 4299.15)" r="92.71"/>
   <g>
    <path class="fil9" d="M8.9 8594.26c283.89,-301.93 1240.59,-1305.08 1803.41,-1588.64 562.94,-283.68 1127.37,-187.61 1514.36,-131.9 386.99,55.72 572.52,128.4 858.52,90.68 15.12,-2.04 30.69,-4.55 46.49,-7.53 221.67,-47.53 395.21,-223.73 383.76,-578.68 -11.45,-355.42 -217.97,-551.61 -217.97,-551.61l11.3 -3.31 -13.05 -1.71 -11.2 -1.48c0,0 1.61,-0.36 4.5,-0.95 -66.69,-24.64 -632.33,-230.85 -1166.02,-346.31l19.75 4.37c38.61,-46.52 86.95,-87.23 138.89,-118.13 0,0 -369.09,12.2 -779.91,36.59l0 0c-387.4,23.02 -811.93,56.8 -999.56,101.41 -386.69,91.93 -1341.15,756.67 -1601.25,935.4l7.86 2162.15 0.11 -0.36zm3210.65 -3122.47c-11.09,-2.41 -22.06,-4.71 -33.03,-7.01 10.97,2.29 22.06,4.59 33.03,7.01zm-35.12 -7.47c-11.09,-2.29 -22.29,-4.59 -33.38,-6.88 11.09,2.29 22.18,4.47 33.38,6.88zm-35.35 -7.23c-11.2,-2.29 -22.41,-4.47 -33.61,-6.65 11.21,2.18 22.29,4.36 33.61,6.65zm-34.76 -6.88c-11.21,-2.18 -22.41,-4.24 -33.61,-6.42 11.2,2.06 22.41,4.24 33.61,6.42zm-35.8 -6.76c-10.97,-2.06 -21.95,-4.01 -32.92,-5.96 10.97,1.95 21.95,3.89 32.92,5.96zm-34.65 -6.3c-10.74,-1.95 -21.48,-3.78 -32.11,-5.49 10.63,1.83 21.36,3.66 32.11,5.49zm-34.76 -5.95c-10.74,-1.83 -21.48,-3.54 -32.11,-5.26 10.63,1.72 21.37,3.43 32.11,5.26zm-33.61 -5.48c-22.29,-3.54 -44.46,-6.73 -66.17,-9.69 21.82,2.95 43.88,6.26 66.17,9.69zm-67.56 -9.92c-10.4,-1.37 -20.79,-2.73 -31.18,-4.09 10.27,1.25 20.67,2.61 31.18,4.09zm-33.49 -4.32c-10.28,-1.25 -20.55,-2.49 -30.71,-3.63 10.16,1.13 20.44,2.38 30.71,3.63zm-32.68 -3.85c-10.4,-1.13 -20.79,-2.26 -31.06,-3.27 10.27,1.02 20.67,2.14 31.06,3.27zm-31.18 -3.27c-10.51,-1.02 -20.9,-2.03 -31.29,-2.92 10.39,0.89 20.78,1.79 31.29,2.92zm-31.87 -2.92c-10.04,-0.9 -19.98,-1.56 -29.9,-2.35 9.93,0.67 19.86,1.45 29.9,2.35zm-31.64 -2.46c-9.93,-0.67 -19.74,-1.33 -29.44,-1.76 9.7,0.55 19.51,1.1 29.44,1.76zm-30.24 -1.88c-9.82,-0.55 -19.4,-0.98 -28.98,-1.29 9.58,0.32 19.28,0.75 28.98,1.29zm-29.9 -1.29c-9.58,-0.32 -19.16,-0.63 -28.51,-0.71 9.35,0.2 18.93,0.4 28.51,0.71zm-28.97 -0.71c-9.35,-0.2 -18.58,-0.29 -27.7,-0.25 9.12,-0.03 18.35,0.05 27.7,0.25zm-28.86 -0.25c-9.23,0.03 -18.35,0.18 -27.35,0.33 9,-0.26 18.12,-0.3 27.35,-0.33zm1800.76 413.16c32.28,-9.58 78.51,-25.51 126.9,-49.52l-126.9 49.52z"/>
    <path class="fil9" d="M4106.99 5897.85c-247.51,54.87 -502.58,90.6 -612.53,106.66 -201.58,49.33 -399.29,-104.96 -400.06,-317.32 -0.94,-256.98 204.22,-308.31 287.37,-328.47 0,0 491.9,-107.38 909.14,-144.76 336.93,-30.2 487.78,61.54 497.67,210.67 2.32,35.62 -3.31,74.42 -16.32,115.7 -21,66.31 -66.17,118.46 -118.54,158.71 -8.63,6.46 -17.04,12.44 -25.1,18.09 0,0 -0.12,0.12 -0.12,0.12 -15.54,10.45 -31.43,20.09 -47.33,28.67 -27.77,14.82 -59.34,29.18 -93.92,42.86 -42.76,16.16 -77.7,25.28 -93.5,29.08 -5.88,1.42 -9.11,2.02 -9.11,2.02 0,0 3.93,0.57 11.2,1.48 -88.08,28.59 -187.83,54.18 -288.86,76.51l0 -0.01z"/>
    <path class="fil10" d="M4291.03 5213.95c-417.36,37.38 -909.14,144.76 -909.14,144.76 0,0 -0.05,-15.42 -0.05,-15.42 0,0 -2.42,0.01 -7.04,0.14 2.42,-0.59 4.73,-1.19 7.04,-1.66 0,0 491.9,-107.38 909.14,-144.76 328.28,-29.46 503.58,57.51 498.33,233.68 -6.25,-164.69 -180.72,-245.12 -498.27,-216.74z"/>
    <path class="fil9" d="M4353.45 5810.75c-464.73,-8.24 -508.74,712.88 -153,873.01 73.64,33.14 2100.23,-176.31 2132.55,-207.38 85.35,-19.35 159.34,-81.42 190.64,-171 70.6,-202.11 -104.25,-387.32 -321.46,-379.99 -300.3,10.09 -1555.8,-56.37 -1848.85,-114.52l0.11 -0.12z"/>
    <path class="fil11" d="M4462.56 6676.73l1991.57 -251.73c-6.57,4.81 -81.24,38.03 -89.53,42.03 -10.26,3.78 -20.87,6.85 -31.59,9.35 -25.65,24.62 -1304.88,161.39 -1870.44,200.47l-0.01 -0.12z"/>
    <path class="fil11" d="M5084.82 5881.79c0,0 -286.68,-19.52 -526.5,-43.06 -239.83,-23.55 -371.23,-68.97 -371.23,-68.97 0,0 130.18,57.58 385.03,86.8 148.15,16.99 348.01,34.01 512.7,25.24z"/>
    <path class="fil9" d="M7640.72 5826.83c3.99,19.73 -1165.56,608.5 -1304.04,644.98 -137.44,39.75 -271.58,-89.54 -311.21,-225.37 -40.9,-140.37 47.56,-286.94 187.17,-332.89 246.49,-81.61 858.18,-353.43 1178.66,-305.77 129,19.16 241.08,177.49 249.42,219.05l0 0.01z"/>
    <path class="fil11" d="M7604.56 5851.26c-469.51,202.16 -1267.89,620.55 -1408.65,606.46 -9.93,-1.02 60.51,38.8 145.96,17.58 108.39,-31.11 1065.26,-509.32 1262.68,-623.92l0.01 -0.12z"/>
    <path class="fil9" d="M4381.79 5987.26c-458.65,75.96 -374.67,793.46 3.69,886.58 78.33,19.34 1957.87,-471.56 1984.17,-507.98 80.56,-34.52 142.39,-108.92 157.4,-202.77 33.74,-211.55 -170.99,-362.2 -383.44,-315.75 -293.75,64.26 -1463.31,144.09 -1761.82,139.92l-0.01 -0.01z"/>
    <path class="fil11" d="M4919.38 6761.17c0,0 1359.23,-387.5 1391.83,-403.74 32.72,-16.24 139.78,-63.71 167.31,-78.05 -28.02,38.18 -65.78,67.98 -108.88,86.48 -17.46,24.24 -1403.76,392.91 -1450.39,395.3l0.12 0.01z"/>
    <path class="fil10" d="M3381.77 5358.71c0,0 -1392.91,46.06 -1779.6,138 -386.69,91.93 -1341.15,756.67 -1601.25,935.41l-0.11 -30.84c260.1,-178.73 1214.56,-843.47 1601.25,-935.41 386.69,-91.93 1779.65,-122.58 1779.65,-122.58 0,0 0.06,15.42 0.06,15.42z"/>
    <path class="fil9" d="M7951.78 4996.81c8.84,18.07 -1419.01,1280.97 -1543.87,1351.63 -123.13,73.45 -285.17,-17.3 -357.29,-138.64 -74.56,-125.42 -25.41,-289.84 98.15,-369.83 218.22,-141.79 1032.86,-913.48 1373.71,-976.97 274.41,-51.11 410.92,95.81 429.29,133.94l0 -0.12z"/>
    <path class="fil11" d="M7746.22 5192.63c-419.14,372.28 -1264.25,1113.83 -1338.32,1155.69 -45.15,26.91 -81.01,36.97 -137.85,22.58 28.25,-8.87 77.41,-11.73 108.49,-35.56 349.46,-267.6 1062.73,-887.19 1367.57,-1142.71l0.11 0z"/>
    <path class="fil9" d="M4245.21 6043.25c-457.48,82.85 -362.88,799.02 16.73,886.42 78.67,18.05 1678.26,-549.28 1703.98,-586.05 80.09,-35.68 140.76,-111.01 154.38,-205.1 30.62,-212.12 -176.29,-359.6 -388.03,-309.89 -292.7,68.7 -1188.57,214.47 -1487.17,214.74l0.11 -0.12z"/>
    <path class="fil11" d="M6076.74 6250.94c-61.04,38.88 -185.55,108.37 -400.88,188.82 -330.25,123.5 -1239.43,448.04 -1248.31,451.22 426.62,-126.3 1517.24,-517.03 1538.36,-547.48 44.49,-19.9 83.04,-51.93 110.7,-92.68l0.12 0.12z"/>
    <path class="fil9" d="M7199.45 4588.25c12.98,15.26 -1051.82,1603.08 -1154.99,1703.45 -100.74,102.69 -280.17,56.39 -380.36,-42.54 -103.56,-102.18 -97.26,-273.92 2.3,-382.92 175.56,-193.14 770.33,-1148.6 1084.21,-1297.39 252.58,-119.83 421.49,-12.63 448.85,19.51l-0.01 -0.11z"/>
    <path class="fil11" d="M7180.19 4625c-6.2,8.9 -1072.28,1562.86 -1155.37,1630.68 -83.09,67.94 -130.34,88.9 -132.05,93.81 13.62,0.19 82.78,5.78 151.69,-57.79 94.31,-91.8 992.55,-1427.07 1135.74,-1666.7z"/>
    <path class="fil9" d="M4136.33 6034.18c-444.46,137.7 -265.79,837.22 121.5,878.1 80.25,8.47 1345.61,-577.04 1366.82,-616.71 75.21,-45.13 126.62,-127.32 129.05,-222.29 5.34,-214.25 -217.53,-335.74 -421.79,-260.7 -282.53,103.59 -899.07,185.26 -1195.47,221.73l-0.12 -0.12z"/>
    <path class="fil11" d="M5744.7 6135.68c-0.57,0.7 -105.01,133.78 -395.75,267.77 -290.73,134.1 -884.19,436.47 -892.83,440.47 138.75,-30.65 1144.01,-502.83 1168.54,-548.47 58.16,-34.9 102.05,-91.83 120.04,-159.77l-0.01 0z"/>
    <path class="fil11" d="M5296.21 5834.07c0,0 -227.34,76.05 -436.81,116.41 -123.07,23.69 -363.15,59.14 -496.76,72.01 -93.81,9.1 -126.05,-0.59 -127.78,-0.47 274.93,-34.53 700.06,-94.01 989.14,-175.31l72.09 -12.64 0.12 -0.01z"/>
    <path class="fil11" d="M4388.57 6011.77c-487.89,2.94 -347.6,17.96 -811.32,-125.2 -504.05,-155.63 -1315.63,-447.62 -1832.79,-397.97 643.63,35.39 969.08,181.97 1574.55,357.57 409.62,118.82 648.75,239.67 1069.56,165.61l-0.01 0z"/>
    <path class="fil9" d="M6436.38 4974.51c13.1,15.26 -667.9,1194.72 -770.95,1294.97 -100.74,102.69 -280.17,56.39 -380.37,-42.54 -103.56,-102.19 -97.26,-273.92 2.31,-382.92 175.55,-193.14 619.07,-846.33 824.76,-908.05 124.98,-37.49 296.9,6.28 324.25,38.42l0 0.12z"/>
    <path class="fil11" d="M6436.38 4974.51c0,0 -520.15,907.76 -780.49,1244.89 -56.75,73.56 -147.01,105.67 -165.46,111.34 96.16,3.85 147.28,-33.01 174.88,-61.15 93.39,-90.87 659.94,-1065.5 756.99,-1261.04l13.96 -33.93 0.12 -0.12z"/>
   </g>
   <g>
    <path class="fil0" d="M2349.79 5305.58c-192.67,-610.57 -127.76,-1043.36 127.15,-1283.75 254.91,-240.38 618.49,-242.76 1087.06,-100.9 799.16,241.81 1842.23,961.9 2795.6,1997.59 442.22,480.47 816.03,975.56 1108.05,1450.62 706.66,1149.66 933.42,2181.67 486.28,2603.12 -446.44,420.86 -1445.39,120.31 -2526.58,-671.83 -12.39,21.3 -22.57,45.17 -30.56,71.95 1144.08,848.91 2206.02,1175.39 2677.54,730.85 488.2,-460.14 206.85,-1617.42 -612.19,-2883.13 -287.76,-444.71 -641.82,-902.83 -1052.28,-1348.85 -920.23,-999.83 -1920.58,-1717.85 -2725.62,-2020.04 -576.18,-216.22 -1028.29,-242.38 -1327.71,39.87 -299.54,282.37 -393.46,675.2 -107.83,1421.99 38.88,-2.94 107.66,-7.87 101.08,-7.5l0 0.01z"/>
    <path class="fil0" d="M7359.84 6415.3c607.27,-1075.23 778.6,-2017.82 353.79,-2412.5 -304.48,-282.86 -859.85,-232.83 -1520.69,77.37 -29.05,-20.1 -58.67,-39.74 -88.87,-58.9 751.76,-384.58 1389.77,-465.4 1729,-150.08 462.69,429.82 247.89,1482.37 -454.33,2665.17 -305.86,515.09 -704.08,1054.91 -1179.34,1578.9 -917.19,1011.18 -1917.25,1738.46 -2722.04,2043.93 -569.64,216.3 -1041.61,221.29 -1316.9,-34.46 -407.56,-378.62 -289.5,-1240.3 224.29,-2248.61 2.52,58.05 4.93,116.32 7.22,174.72 -403.24,873.58 -473.52,1606.35 -112.06,1942.16 41.81,38.86 88.44,71.17 139.21,97.61 64.29,33.53 135.72,57.21 213.22,71.53 125.09,23.26 266.26,22.28 420.38,-1.52 824.6,-127.52 2019.89,-906.32 3095.97,-2092.6 498.61,-549.66 908.73,-1117.56 1211.05,-1652.72l0.11 0.01z"/>
   </g>
  </g>
 </g>
</svg>
