<?xml version="1.0" encoding="UTF-8"?>
<!DOCTYPE svg PUBLIC "-//W3C//DTD SVG 1.1//EN" "http://www.w3.org/Graphics/SVG/1.1/DTD/svg11.dtd">
<!-- Creator: CorelDRAW -->
<svg xmlns="http://www.w3.org/2000/svg" xml:space="preserve" width="162.784mm" height="169.692mm" version="1.1" style="shape-rendering:geometricPrecision; text-rendering:geometricPrecision; image-rendering:optimizeQuality; fill-rule:evenodd; clip-rule:evenodd"
viewBox="0 0 3057.68 3187.46"
 xmlns:xlink="http://www.w3.org/1999/xlink"
 xmlns:xodm="http://www.corel.com/coreldraw/odm/2003">
 <defs>
  <style type="text/css">
   <![CDATA[
    .fil8 {fill:none}
    .fil6 {fill:#FEFEFE}
    .fil2 {fill:#213FAD}
    .fil7 {fill:#373435}
    .fil11 {fill:#41B6FF}
    .fil10 {fill:#ADD6FF}
    .fil9 {fill:#0062FF}
    .fil0 {fill:#021269}
    .fil1 {fill:#80B1FF}
    .fil5 {fill:white;fill-rule:nonzero;fill-opacity:0.400000}
    .fil4 {fill:white;fill-rule:nonzero;fill-opacity:0.600000}
    .fil3 {fill:white;fill-rule:nonzero;fill-opacity:0.901961}
   ]]>
  </style>
 </defs>
 <g id="Layer_x0020_1">
  <metadata id="CorelCorpID_0Corel-Layer"/>
  <g id="_2813083120864">
   <path class="fil0" d="M367.98 1533.83l0 0c203.15,-0.74 369.94,166.87 370.69,372.42l2.71 745.83 -738.66 2.68 -2.71 -745.83c-0.75,-205.59 164.86,-374.37 367.97,-375.11l-0 0z"/>
   <path class="fil1" d="M1670.95 1577.84c201.73,-0.73 935.8,156.19 928.37,133.95 -7.43,-22.24 -456.39,-447.45 -456.39,-447.45l775.81 -474.19 -1128.82 219.36 0 -1009.52 -539.83 814.81 -635.93 -394.84c0,0 350.82,663.09 292.13,663.31 -58.69,0.21 -864.73,218.41 -864.73,218.41l804.34 312.57 825.07 -36.41 -0.04 0z"/>
   <path class="fil2" d="M2308.77 2275.54c0,0 -40.14,-595.31 -207.58,-833.7 -167.48,-238.43 -611.17,-469.44 -996.23,-233.29 -385.06,236.15 -432.47,541.53 -391.07,906.31 41.4,364.78 33.24,1024.31 33.24,1024.31l908.9 -3.3c0,0 -6.15,-103.6 6.41,-217.63 12.53,-114.03 137.19,-98.32 202.94,-98.55 65.78,-0.24 205.38,24.47 271.92,-42.34 66.54,-66.81 33.2,-459.04 33.2,-459.04l138.25 -42.75 0 -0z"/>
   <g>
    <path class="fil3" d="M1130.36 2334.71l0 57.64 -29.71 2.38c-4.16,19.01 -11.89,36.84 -21.99,52.89l19.01 23.18 -41 41 -23.17 -19.01c-16.05,10.69 -33.87,17.83 -52.89,21.99l-2.38 29.71 -57.64 0 -2.97 -29.71c-18.42,-4.16 -36.84,-11.89 -52.89,-21.99l-23.18 19.01 -41 -41 19.01 -23.18c-10.69,-16.05 -18.42,-33.87 -21.99,-52.89l-29.71 -2.38 0 -57.64 29.71 -2.97c4.16,-19.01 11.29,-36.84 21.99,-52.89l-19.01 -23.18 41 -40.41 23.18 19.01c16.05,-10.69 33.87,-18.42 52.89,-21.99l2.97 -29.71 57.64 0 2.38 29.71c19.01,4.16 36.84,11.29 52.89,21.99l23.17 -19.01 41 40.41 -19.01 23.18c10.69,16.05 17.83,33.87 21.99,52.89l29.71 2.97zm-181.82 -49.32c-43.97,0 -79.03,35.65 -79.03,79.03 0,43.97 35.65,79.03 79.03,79.03 43.97,0 79.03,-35.65 79.03,-79.03 0,-43.97 -35.65,-79.03 -79.03,-79.03l0 0z"/>
    <path class="fil4" d="M1365.07 2171.31l0 44.57 -23.17 2.38c-2.97,14.85 -8.91,29.12 -17.23,41.59l14.85 18.42 -32.08 32.08 -17.83 -14.85c-12.48,8.32 -26.74,14.26 -42.19,17.23l-2.38 23.77 -45.16 0 -2.38 -23.77c-14.85,-2.97 -29.12,-8.91 -42.19,-17.23l-17.83 14.85 -32.08 -32.08 14.85 -18.42c-8.32,-12.48 -14.26,-26.74 -17.23,-41.59l-23.17 -2.38 0 -45.16 23.17 -2.38c2.97,-14.85 8.91,-29.12 17.23,-41.59l-14.85 -18.42 32.08 -32.08 17.83 14.85c12.48,-8.32 26.74,-14.26 42.19,-17.23l2.38 -23.17 45.16 0 2.38 23.17c14.85,2.97 29.12,8.91 42.19,17.23l17.83 -14.85 32.08 32.08 -14.85 18.42c8.32,12.48 14.26,26.74 17.23,41.59l23.17 2.97 0 0.01zm-142.61 -38.62c0,0 0,0 0,0 -33.87,0 -61.2,27.33 -61.2,61.2 0,33.87 27.34,61.2 61.2,61.2 33.87,0 61.2,-27.34 61.2,-61.2 0,0 0,0 0,0 0,-33.87 -27.33,-61.2 -61.2,-61.2 0,0 0,0 0,0l0 0z"/>
    <path class="fil5" d="M1130.36 2042.96l0 38.03 -19.61 1.78c-2.38,12.48 -7.73,24.36 -14.27,35.06l12.48 14.85 -26.14 26.14 -15.45 -12.48c-10.69,7.13 -22.58,11.89 -35.06,14.26l-1.78 19.61 -38.62 0 -1.78 -19.61c-12.48,-2.38 -24.36,-7.72 -35.06,-14.26l-15.45 12.48 -26.14 -26.14 12.48 -14.85c-7.13,-10.69 -11.89,-22.58 -14.26,-35.06l-19.61 -1.78 0 -38.03 19.61 -1.78c2.38,-12.48 7.72,-24.36 14.26,-35.06l-12.48 -14.85 26.14 -26.14 15.45 12.48c10.69,-7.13 22.58,-12.48 35.06,-14.85l1.78 -19.61 38.03 0 1.78 19.61c12.48,2.38 24.36,7.73 35.06,14.85l15.45 -12.48 26.14 26.14 -12.48 14.85c7.13,10.69 11.88,22.58 14.26,35.06l20.2 1.78 0.01 0zm-119.44 -32.68c-27.92,0.6 -49.91,23.77 -49.91,51.69 0,28.52 23.18,51.69 51.69,51.69 28.52,0 51.69,-23.17 51.69,-51.69 0,0 0,0 0,0 0,-28.52 -23.18,-51.69 -51.69,-51.69 -0.6,0 -0.6,0 -1.19,0l0 0 -0.6 0z"/>
   </g>
   <path class="fil6" d="M1576.89 671.96c-192.31,0.7 -347.65,159.05 -346.94,353.67 0.84,231.35 192.16,291.92 199.54,349.77 3.16,24.81 0.26,70.93 0.26,70.93l149.99 -0.54 149.99 -0.54c0,0 -3.23,-46.07 -0.26,-70.94 6.96,-57.9 197.83,-119.86 196.99,-351.21 -0.71,-194.62 -157.19,-351.84 -349.51,-351.14l-0.07 0z"/>
   <path class="fil7" d="M1729.69 1445.28l-299.95 1.09 0.42 113.91c0.14,39.69 32.35,72.01 71.53,71.87l157.37 -0.57c39.22,-0.14 71.15,-32.73 71.01,-72.39l-0.42 -113.91 0.03 0z"/>
   <g>
    <path class="fil6" d="M1585.32 1472.76c0,0 81.53,-3.51 144.44,-8.82l0.06 15.62 -144.49 -6.8z"/>
    <path class="fil6" d="M1585.44 1504.51c0,0 81.53,-3.51 144.44,-8.82l0.06 15.62 -144.49 -6.8z"/>
    <path class="fil6" d="M1585.55 1536.3c0,0 81.53,-3.51 144.44,-8.82l0.06 15.62 -144.49 -6.8z"/>
   </g>
   <path class="fil7" d="M1529.82 1642.83c-0.53,2.71 -0.8,5.49 -0.79,8.3 0.09,25.58 23.2,46.21 51.62,46.11 28.42,-0.1 51.37,-20.93 51.28,-46.48 -0.01,-2.85 -0.3,-5.59 -0.85,-8.29l-101.22 0.37 -0.03 0z"/>
   <g>
    <path class="fil7" d="M1654.97 1437.65c-15.3,-99.82 11.03,-192.9 56.31,-282 5.17,-10.16 -31.65,-36.94 -38.72,-68.77 10.15,-4.19 19.71,-10.39 27.78,-18.32 73.68,-72.25 -3.36,-80.59 -32.94,-9.66 -3.07,7.37 -4.62,14.27 -4.95,20.69 -11.18,3.65 -23.02,4.05 -34.66,-0.96 13.64,-13.22 23.71,-29.42 27.88,-48.27 22.17,-100.06 -103.95,13.69 -62.23,34.72 3.91,6.63 8.64,11.98 14,16.15 -38.13,34.09 -86.63,32.1 -120.27,17.36 56.49,-103.25 -68.22,-93.09 -47.45,-26.53 5.01,16.04 15.75,27.8 29.9,35.61 -10.33,12.27 -24.91,23.72 -44.7,32.38 -128.97,56.36 96.94,-38.89 101.91,287.88 0.05,4.55 -1,8.3 -3.17,12.17 2.74,-2.28 3.83,-5.82 4.46,-9.29 16.35,-90.99 -30.92,-236.98 -127.98,-271.3 33.36,-13.36 58.12,-17.96 78.76,-47.45 39.95,15.91 99.42,5.85 138.68,-24.6 13.75,6.44 29.9,6.93 45.4,2.65 4.53,29.75 34.01,48.3 42.47,60.1l-0.04 0.14c-39.9,96.77 -75.86,180.11 -50.4,287.21l-0.04 0.07zm16.48 -361.78c0.32,-18.37 12.52,-37.89 49.14,-56.57l0.36 -0.18c-1.63,13.46 -22.7,43.49 -49.5,56.76zm-54.85 -3.81c-4.97,-3.77 -9.87,-8.69 -14.6,-14.99 -0.9,-1.19 -1.61,-1.51 -2.79,-1.98 -17.03,-26.67 74.76,-90.11 41.61,-20.1 -7.08,14.89 -15.27,27.12 -24.22,37.03l0 0.04zm-17.5 -16.97l-0.25 -0.11c0.11,0.03 0.18,0.07 0.25,0.11zm-120.19 39.51c-33.44,-18.1 -47.1,-48.72 -9.1,-62.42 20.3,-7.29 29.69,27.78 9.1,62.42z"/>
   </g>
   <path class="fil8" d="M1654.97 1437.65c-22.43,-69.02 13.66,-223.54 53.13,-284.15 5.85,-8.97 -9.9,-7.14 -25.71,-30.43 -31.12,-45.93 -9.76,-84.72 36.01,-108.12 23.17,-11.85 -10.93,54.13 -48.14,67.97 -24.64,9.18 -60.77,4.26 -72.78,-22.29 -9.31,-2.39 -5.28,-30.97 12.88,-45.73 23.99,-19.46 47.82,-36.54 39.16,14.4 -3.42,20 -46.25,65.51 -69.18,74.87 -42.15,17.19 -88.83,13.75 -124.14,-16.9 -22.39,-19.44 -14.92,-54.61 17.74,-61.69 18.6,-4.04 27.28,31.44 16.07,56.16 -27.06,59.78 -43.49,51.54 -98.16,76.71 -8.58,3.96 -1.25,-1.62 22.01,12.94 103.85,64.89 110.95,147.35 113.74,256.56 0.08,2.92 -1.32,9.71 -3.99,12.21"/>
   <path class="fil1" d="M1880.11 1032.94c-0.66,-180.48 -145.76,-326.26 -324.1,-325.61 -14.41,0.05 -28.56,1.04 -42.45,2.97 19.52,-3.9 39.7,-5.95 60.37,-6.03 175.13,-0.64 317.59,142.52 318.23,319.72 0.46,127.69 -63.21,198.68 -114.84,246.56 49.35,-48.49 103.21,-119.08 102.78,-237.61z"/>
   <path class="fil9" d="M2604.89 2192.74c124.68,-0.45 226.02,-103.76 225.57,-229.94 0.46,126.18 102.55,228.75 227.23,228.29 -124.68,0.45 -226.02,103.76 -225.56,229.94 -0.46,-126.17 -102.55,-228.74 -227.23,-228.29z"/>
   <path class="fil9" d="M66.47 762.39c43.53,-0.16 78.91,-36.22 78.75,-80.28 0.16,44.06 35.8,79.86 79.33,79.7 -43.53,0.16 -78.91,36.22 -78.75,80.28 -0.16,-44.06 -35.8,-79.86 -79.33,-79.7z"/>
   <path class="fil9" d="M2163.08 549.43c65.07,-0.23 117.92,-54.12 117.69,-119.97 0.24,65.85 53.49,119.34 118.55,119.11 -65.06,0.24 -117.92,54.12 -117.68,119.97 -0.24,-65.85 -53.49,-119.34 -118.56,-119.11z"/>
   <circle class="fil9" transform="matrix(-0.896472 0.00325842 0.00329753 0.907231 2073.04 2466.66)" r="32.89"/>
   <circle class="fil9" transform="matrix(-0.896472 0.00325842 0.00329753 0.907231 1111.46 1327.95)" r="32.89"/>
   <g>
    <path class="fil9" d="M2.75 2654.66c87.69,-93.26 383.2,-403.12 557.05,-490.71 173.89,-87.62 348.23,-57.95 467.77,-40.74 119.54,17.21 176.84,39.66 265.19,28.01 4.67,-0.63 9.48,-1.41 14.36,-2.33 68.47,-14.68 122.08,-69.11 118.54,-178.75 -3.54,-109.78 -67.33,-170.38 -67.33,-170.38l3.49 -1.02 -4.03 -0.53 -3.46 -0.46c0,0 0.5,-0.11 1.39,-0.29 -20.6,-7.61 -195.32,-71.31 -360.17,-106.97l6.1 1.35c11.93,-14.37 26.86,-26.94 42.9,-36.49 0,0 -114.01,3.77 -240.91,11.3l0 0c-119.66,7.11 -250.79,17.55 -308.75,31.32 -119.44,28.4 -414.26,233.73 -494.61,288.94l2.43 667.86 0.03 -0.11zm991.73 -964.49c-3.43,-0.75 -6.81,-1.45 -10.2,-2.17 3.39,0.71 6.81,1.42 10.2,2.17zm-10.85 -2.31c-3.43,-0.71 -6.89,-1.42 -10.31,-2.13 3.42,0.71 6.85,1.38 10.31,2.13zm-10.92 -2.24c-3.46,-0.71 -6.92,-1.38 -10.38,-2.05 3.46,0.67 6.89,1.35 10.38,2.05zm-10.74 -2.12c-3.46,-0.67 -6.92,-1.31 -10.38,-1.98 3.46,0.64 6.92,1.31 10.38,1.98zm-11.06 -2.09c-3.39,-0.64 -6.78,-1.24 -10.17,-1.84 3.39,0.6 6.78,1.2 10.17,1.84zm-10.7 -1.95c-3.32,-0.6 -6.63,-1.17 -9.92,-1.7 3.28,0.57 6.6,1.13 9.92,1.7zm-10.74 -1.84c-3.32,-0.57 -6.63,-1.09 -9.92,-1.62 3.28,0.53 6.6,1.06 9.92,1.62zm-10.38 -1.69c-6.88,-1.09 -13.73,-2.08 -20.44,-2.99 6.74,0.91 13.56,1.94 20.44,2.99zm-20.87 -3.06c-3.21,-0.42 -6.42,-0.84 -9.63,-1.26 3.17,0.39 6.38,0.81 9.63,1.26zm-10.34 -1.34c-3.17,-0.39 -6.35,-0.77 -9.49,-1.12 3.14,0.35 6.32,0.74 9.49,1.12zm-10.09 -1.19c-3.21,-0.35 -6.42,-0.7 -9.59,-1.01 3.17,0.31 6.38,0.66 9.59,1.01zm-9.63 -1.01c-3.25,-0.31 -6.46,-0.63 -9.67,-0.9 3.21,0.28 6.42,0.55 9.67,0.9zm-9.84 -0.9c-3.1,-0.28 -6.17,-0.48 -9.24,-0.73 3.07,0.21 6.13,0.45 9.24,0.73zm-9.77 -0.76c-3.07,-0.2 -6.1,-0.41 -9.09,-0.54 3,0.17 6.03,0.34 9.09,0.54zm-9.34 -0.58c-3.03,-0.17 -5.99,-0.3 -8.95,-0.4 2.96,0.1 5.95,0.23 8.95,0.4zm-9.24 -0.4c-2.96,-0.1 -5.92,-0.2 -8.81,-0.22 2.89,0.06 5.85,0.12 8.81,0.22zm-8.95 -0.22c-2.89,-0.06 -5.74,-0.09 -8.56,-0.08 2.82,-0.01 5.67,0.02 8.56,0.08zm-8.91 -0.08c-2.85,0.01 -5.67,0.06 -8.45,0.1 2.78,-0.08 5.6,-0.09 8.45,-0.1zm556.23 127.62c9.97,-2.96 24.25,-7.88 39.2,-15.3l-39.2 15.3z"/>
    <path class="fil9" d="M1268.6 1821.77c-76.45,16.95 -155.24,27.99 -189.2,32.94 -62.27,15.24 -123.34,-32.42 -123.57,-98.02 -0.29,-79.38 63.08,-95.23 88.77,-101.46 0,0 151.94,-33.17 280.82,-44.71 104.07,-9.33 150.67,19.01 153.73,65.07 0.72,11 -1.02,22.99 -5.04,35.74 -6.49,20.48 -20.44,36.59 -36.62,49.02 -2.67,2 -5.26,3.84 -7.75,5.59 0,0 -0.04,0.04 -0.04,0.04 -4.8,3.23 -9.71,6.21 -14.62,8.86 -8.58,4.58 -18.33,9.02 -29.01,13.24 -13.21,4.99 -24,7.81 -28.88,8.98 -1.82,0.44 -2.82,0.62 -2.82,0.62 0,0 1.21,0.18 3.46,0.46 -27.21,8.83 -58.02,16.74 -89.23,23.63l0 -0z"/>
    <path class="fil10" d="M1325.45 1610.52c-128.92,11.55 -280.82,44.71 -280.82,44.71 0,0 -0.02,-4.76 -0.02,-4.76 0,0 -0.75,0 -2.18,0.05 0.75,-0.18 1.46,-0.37 2.17,-0.51 0,0 151.94,-33.17 280.82,-44.71 101.4,-9.1 155.55,17.76 153.93,72.18 -1.93,-50.87 -55.82,-75.71 -153.91,-66.95z"/>
    <path class="fil9" d="M1344.73 1794.87c-143.55,-2.55 -157.15,220.2 -47.26,269.66 22.75,10.24 648.73,-54.46 658.72,-64.06 26.36,-5.98 49.22,-25.15 58.89,-52.82 21.81,-62.43 -32.2,-119.64 -99.29,-117.37 -92.76,3.11 -480.57,-17.41 -571.09,-35.38l0.04 -0.04z"/>
    <path class="fil11" d="M1378.43 2062.36l615.17 -77.75c-2.03,1.49 -25.09,11.75 -27.66,12.98 -3.17,1.17 -6.44,2.12 -9.76,2.89 -7.92,7.61 -403.06,49.85 -577.76,61.92l-0 -0.04z"/>
    <path class="fil11" d="M1570.64 1816.81c0,0 -88.55,-6.03 -162.63,-13.3 -74.08,-7.27 -114.67,-21.3 -114.67,-21.3 0,0 40.21,17.79 118.93,26.81 45.76,5.25 107.5,10.51 158.37,7.8z"/>
    <path class="fil9" d="M2360.12 1799.84c1.23,6.09 -360.03,187.96 -402.8,199.23 -42.45,12.28 -83.89,-27.66 -96.13,-69.61 -12.64,-43.36 14.69,-88.63 57.81,-102.83 76.14,-25.21 265.08,-109.17 364.07,-94.45 39.85,5.92 74.47,54.83 77.04,67.66l0 0z"/>
    <path class="fil11" d="M2348.96 1807.38c-145.03,62.44 -391.64,191.68 -435.11,187.33 -3.07,-0.32 18.69,11.98 45.08,5.43 33.48,-9.61 329.05,-157.32 390.03,-192.72l0 -0.04z"/>
    <path class="fil9" d="M1353.48 1849.39c-141.67,23.46 -115.73,245.09 1.14,273.85 24.2,5.97 604.76,-145.66 612.89,-156.91 24.88,-10.66 43.98,-33.64 48.62,-62.63 10.42,-65.34 -52.82,-111.88 -118.44,-97.53 -90.74,19.85 -452,44.51 -544.2,43.22l-0 -0z"/>
    <path class="fil11" d="M1519.53 2088.44c0,0 419.85,-119.69 429.92,-124.71 10.11,-5.02 43.18,-19.68 51.68,-24.11 -8.66,11.79 -20.32,21 -33.63,26.71 -5.39,7.49 -433.61,121.37 -448.01,122.1l0.04 0z"/>
    <path class="fil10" d="M1044.59 1655.24c0,0 -430.25,14.23 -549.7,42.63 -119.44,28.4 -414.26,233.73 -494.61,288.94l-0.04 -9.53c80.34,-55.21 375.16,-260.54 494.61,-288.94 119.44,-28.4 549.71,-37.86 549.71,-37.86 0,0 0.02,4.76 0.02,4.76z"/>
    <path class="fil9" d="M2456.2 1543.45c2.73,5.58 -438.31,395.68 -476.88,417.5 -38.03,22.69 -88.08,-5.34 -110.36,-42.82 -23.03,-38.74 -7.85,-89.53 30.32,-114.24 67.41,-43.8 319.04,-282.16 424.32,-301.78 84.76,-15.79 126.93,29.59 132.6,41.37l0 -0.04z"/>
    <path class="fil11" d="M2392.71 1603.94c-129.47,114.99 -390.51,344.05 -413.39,356.98 -13.95,8.32 -25.02,11.42 -42.58,6.98 8.73,-2.74 23.91,-3.62 33.51,-10.98 107.94,-82.66 328.26,-274.04 422.43,-352.97l0.04 0z"/>
    <path class="fil9" d="M1311.29 1866.68c-141.31,25.59 -112.09,246.81 5.17,273.8 24.3,5.58 518.39,-169.66 526.34,-181.02 24.74,-11.02 43.48,-34.29 47.69,-63.35 9.46,-65.52 -54.46,-111.08 -119.86,-95.72 -90.41,21.22 -367.13,66.24 -459.37,66.33l0.04 -0.04z"/>
    <path class="fil11" d="M1877.03 1930.84c-18.85,12.01 -57.32,33.47 -123.83,58.32 -102.01,38.15 -382.84,138.39 -385.59,139.38 131.78,-39.01 468.66,-159.7 475.18,-169.11 13.74,-6.15 25.65,-16.04 34.19,-28.63l0.04 0.04z"/>
    <path class="fil9" d="M2223.82 1417.25c4.01,4.71 -324.89,495.17 -356.76,526.17 -31.12,31.72 -86.54,17.42 -117.49,-13.14 -31.99,-31.56 -30.04,-84.61 0.71,-118.28 54.23,-59.66 237.95,-354.79 334.9,-400.75 78.02,-37.02 130.19,-3.9 138.64,6.03l-0 -0.03z"/>
    <path class="fil11" d="M2217.87 1428.61c-1.91,2.75 -331.21,482.75 -356.88,503.69 -25.67,20.99 -40.26,27.46 -40.79,28.98 4.21,0.06 25.57,1.78 46.85,-17.85 29.13,-28.36 306.59,-440.8 350.81,-514.82z"/>
    <path class="fil9" d="M1277.66 1863.88c-137.29,42.53 -82.1,258.6 37.53,271.23 24.79,2.62 415.64,-178.24 422.2,-190.49 23.23,-13.94 39.11,-39.33 39.86,-68.66 1.65,-66.18 -67.19,-103.71 -130.29,-80.53 -87.27,32 -277.71,57.22 -369.26,68.49l-0.04 -0.04z"/>
    <path class="fil11" d="M1774.47 1895.23c-0.18,0.22 -32.44,41.32 -122.24,82.71 -89.8,41.42 -273.12,134.82 -275.78,136.06 42.86,-9.47 353.37,-155.32 360.95,-169.42 17.96,-10.78 31.52,-28.37 37.08,-49.35l-0 0z"/>
    <path class="fil11" d="M1635.93 1802.07c0,0 -70.22,23.49 -134.93,35.96 -38.02,7.32 -112.17,18.27 -153.44,22.24 -28.98,2.81 -38.93,-0.18 -39.47,-0.14 84.92,-10.67 216.24,-29.04 305.53,-54.15l22.27 -3.91 0.04 -0z"/>
    <path class="fil11" d="M1355.58 1856.96c-150.71,0.91 -107.37,5.55 -250.61,-38.67 -155.7,-48.07 -406.38,-138.27 -566.13,-122.93 198.81,10.93 299.34,56.21 486.36,110.45 126.53,36.7 200.39,74.03 330.37,51.15l0 0z"/>
    <path class="fil9" d="M1988.12 1536.57c4.05,4.71 -206.31,369.03 -238.14,400 -31.12,31.72 -86.54,17.42 -117.49,-13.14 -31.99,-31.56 -30.04,-84.61 0.71,-118.28 54.23,-59.66 191.22,-261.42 254.76,-280.48 38.61,-11.58 91.71,1.94 100.16,11.87l0 0.04z"/>
    <path class="fil11" d="M1988.12 1536.57c0,0 -160.67,280.4 -241.08,384.53 -17.53,22.72 -45.41,32.64 -51.11,34.39 29.7,1.19 45.49,-10.2 54.02,-18.89 28.85,-28.07 203.85,-329.12 233.83,-389.52l4.31 -10.48 0.04 -0.04z"/>
   </g>
   <g>
    <path class="fil9" d="M725.82 1638.83c-59.51,-188.6 -39.46,-322.28 39.27,-396.53 78.74,-74.25 191.05,-74.99 335.78,-31.17 246.85,74.69 569.04,297.12 863.53,617.03 136.6,148.41 252.06,301.34 342.26,448.08 218.28,355.12 288.32,673.89 150.21,804.07 -137.9,130 -446.46,37.16 -780.43,-207.52 -3.83,6.58 -6.97,13.95 -9.44,22.22 353.39,262.22 681.41,363.06 827.06,225.75 150.8,-142.13 63.89,-499.6 -189.1,-890.56 -88.88,-137.37 -198.25,-278.87 -325.04,-416.64 -284.25,-308.83 -593.24,-530.62 -841.91,-623.97 -177.98,-66.79 -317.63,-74.87 -410.11,12.32 -92.52,87.22 -121.53,208.56 -33.31,439.23 12.01,-0.91 33.26,-2.43 31.22,-2.32l0 0z"/>
    <path class="fil9" d="M2273.36 1981.61c187.58,-332.13 240.5,-623.28 109.28,-745.19 -94.05,-87.37 -265.59,-71.92 -469.72,23.9 -8.97,-6.21 -18.12,-12.27 -27.45,-18.19 232.21,-118.79 429.28,-143.76 534.07,-46.36 142.92,132.77 76.57,457.89 -140.34,823.24 -94.47,159.1 -217.48,325.85 -364.28,487.7 -283.31,312.34 -592.22,536.99 -840.81,631.34 -175.96,66.81 -321.74,68.35 -406.77,-10.64 -125.89,-116.95 -89.42,-383.11 69.28,-694.57 0.78,17.93 1.52,35.93 2.23,53.97 -124.55,269.84 -146.27,496.18 -34.61,599.91 12.91,12 27.32,21.98 43,30.15 19.86,10.36 41.92,17.67 65.86,22.1 38.64,7.18 82.24,6.88 129.85,-0.47 254.71,-39.39 623.92,-279.95 956.31,-646.38 154.01,-169.78 280.69,-345.2 374.08,-510.51l0.03 0z"/>
   </g>
  </g>
 </g>
</svg>
