<?xml version="1.0" encoding="UTF-8"?>
<!DOCTYPE svg PUBLIC "-//W3C//DTD SVG 1.1//EN" "http://www.w3.org/Graphics/SVG/1.1/DTD/svg11.dtd">
<!-- Creator: CorelDRAW -->
<svg xmlns="http://www.w3.org/2000/svg" xml:space="preserve" width="409.049mm" height="189.684mm" version="1.1" style="shape-rendering:geometricPrecision; text-rendering:geometricPrecision; image-rendering:optimizeQuality; fill-rule:evenodd; clip-rule:evenodd"
viewBox="0 0 8770.21 4066.92"
 xmlns:xlink="http://www.w3.org/1999/xlink"
 xmlns:xodm="http://www.corel.com/coreldraw/odm/2003">
 <defs>
  <style type="text/css">
   <![CDATA[
    .str0 {stroke:black;stroke-width:5.67;stroke-miterlimit:22.9256}
    .str1 {stroke:#CCCCCC;stroke-width:5.67;stroke-miterlimit:22.9256}
    .fil26 {fill:none}
    .fil24 {fill:#FEFEFE}
    .fil10 {fill:#4B4B4D}
    .fil9 {fill:black}
    .fil7 {fill:black}
    .fil8 {fill:#1A1A1A}
    .fil11 {fill:#333333}
    .fil20 {fill:#4D4D4D}
    .fil23 {fill:#666666}
    .fil25 {fill:#CCCCCC}
    .fil21 {fill:white}
    .fil22 {fill:#0062FF}
    .fil18 {fill:#00307F}
    .fil19 {fill:#021269}
    .fil1 {fill:#0693FF;fill-rule:nonzero}
    .fil17 {fill:#162573;fill-rule:nonzero}
    .fil13 {fill:#263238;fill-rule:nonzero}
    .fil6 {fill:#CCCCCC;fill-rule:nonzero}
    .fil0 {fill:white;fill-rule:nonzero}
    .fil3 {fill:#0062FF;fill-rule:nonzero}
    .fil14 {fill:#00307F;fill-rule:nonzero}
    .fil5 {fill:black;fill-rule:nonzero;fill-opacity:0.400000}
    .fil12 {fill:white;fill-rule:nonzero;fill-opacity:0.400000}
    .fil4 {fill:black;fill-rule:nonzero;fill-opacity:0.501961}
    .fil16 {fill:#CCCCCC;fill-rule:nonzero;fill-opacity:0.501961}
    .fil2 {fill:white;fill-rule:nonzero;fill-opacity:0.501961}
    .fil15 {fill:white;fill-rule:nonzero;fill-opacity:0.701961}
   ]]>
  </style>
 </defs>
 <g id="Layer_x0020_1">
  <metadata id="CorelCorpID_0Corel-Layer"/>
  <g id="_3010786094752">
   <rect class="fil0" x="3894.4" y="1525.49" width="131.88" height="27.79"/>
   <rect class="fil0" x="4090.45" y="1525.49" width="73.77" height="27.79"/>
   <rect class="fil1" x="4144.02" y="1577.03" width="327.92" height="665.97"/>
   <polygon class="fil2" points="4144.01,2242.99 4471.94,2242.99 4471.94,1577.02 4144.01,1577.02 "/>
   <polygon class="fil1" points="4619.99,2255.11 3998.99,2255.11 4150.58,2121.72 4468.4,2121.72 "/>
   <polygon class="fil2" points="4619.99,2255.11 3998.99,2255.11 4150.58,2121.72 4468.4,2121.72 "/>
   <g>
    <polygon class="fil3" points="1329.99,2420.43 1329.99,4053.49 1426.92,4053.49 1484.77,2420.43 "/>
    <polygon class="fil4" points="1329.99,2420.43 1329.99,4053.49 1426.92,4053.49 1484.77,2420.43 "/>
    <polygon class="fil3" points="522.54,2334.06 522.54,4053.49 620.75,4053.49 676.92,2334.06 "/>
    <polygon class="fil3" points="8278.94,2334.07 8278.94,4053.49 8180.98,4053.49 8124.56,2334.07 "/>
    <polygon class="fil3" points="8435.27,2483.35 361.13,2483.35 182.52,2365.32 8613.49,2365.32 "/>
    <polygon class="fil4" points="8435.27,2483.36 361.13,2483.36 182.52,2365.33 8613.49,2365.33 "/>
    <rect class="fil3" x="0" y="2255.12" width="8770.21" height="110.21"/>
    <polygon class="fil1" points="7471.48,2420.43 7471.48,4053.49 7374.56,4053.49 7316.72,2420.43 "/>
    <polygon class="fil4" points="7471.48,2420.43 7471.48,4053.49 7374.56,4053.49 7316.72,2420.43 "/>
   </g>
   <path class="fil3" d="M2886.87 0.04l2827.05 0c29.81,0 53.56,24.26 53.56,53.56l0 1733.62c0,29.81 -24.26,53.56 -53.56,53.56l-2827.05 0c-29.81,0 -53.56,-24.26 -53.56,-53.56l0 -1733.62c0,-29.81 24.26,-53.56 53.56,-53.56z"/>
   <polygon class="fil4" points="2939.42,1719.52 5657.83,1719.52 5657.83,115.25 2939.42,115.25 "/>
   <polygon class="fil5" points="4199.59,1389.57 5571.43,1389.57 5571.43,445.19 4199.59,445.19 "/>
   <rect class="fil1" x="4199.59" y="445.2" width="1371.84" height="86.41"/>
   <path class="fil0" d="M4451.22 967.65l224.35 124.3c8.59,4.05 16.17,10.11 22.74,17.18 3.54,5.05 5.56,11.63 5.56,18.19 0,0.51 0,0.51 0,1.01 0,0 0,0 0,0 0,9.6 -4.04,18.7 -10.61,25.27 -6.06,6.57 -15.16,10.61 -24.26,10.61 -10.11,-1.01 -19.7,-4.54 -27.79,-10.11l-289.52 -160.68c-9.6,-4.54 -15.16,-14.15 -15.16,-24.76 0,-10.61 6.06,-20.21 15.16,-24.76l289.52 -160.68c8.59,-5.56 17.69,-8.59 27.79,-9.6 0,0 0.51,0 0.51,0 9.1,0 17.69,3.54 23.75,10.11 6.57,6.57 10.61,15.16 10.61,24.76 0,0 0,0 0,0.51 0,0.51 0,0.51 0,1.01 0,6.57 -2.02,12.63 -5.56,17.69 -6.57,7.07 -14.15,12.63 -22.74,17.18l-224.35 124.3 0 -1.51z"/>
   <path class="fil0" d="M5028.26 735.73l-222.32 478c-3.54,8.59 -8.59,16.68 -15.16,23.24 -5.56,4.55 -13.13,7.07 -20.21,7.07 -0.51,0 -0.51,0 -1.01,0 0,0 -0.51,0 -0.51,0 -9.1,0 -17.69,-3.54 -23.75,-10.1 -6.57,-6.06 -10.61,-14.15 -10.61,-23.24 1.01,-9.6 3.54,-19.2 8.59,-27.79l222.32 -478c3.54,-8.59 8.59,-16.17 14.65,-23.24 6.06,-4.54 13.64,-7.07 21.22,-7.07 0,0 0.51,0 0.51,0 0,0 0.51,0 0.51,0 9.1,0 17.69,3.54 23.75,10.11 6.57,6.06 10.1,14.15 10.1,22.74 -0.51,9.6 -3.03,19.2 -7.07,27.79l0 0 -1.02 0.5z"/>
   <path class="fil0" d="M5307.17 967.65l-224.35 -124.3c-8.59,-4.05 -16.17,-10.11 -22.74,-17.18 -3.54,-5.05 -5.56,-11.63 -5.56,-17.69 0,-0.51 0,-0.51 0,-1.01 0,0 0,0 0,-0.51 0,-9.1 4.04,-18.19 10.61,-24.76 6.57,-6.57 15.16,-10.11 24.26,-10.11 0,0 0.51,0 0.51,0 10.11,1.01 19.2,4.55 27.79,9.6l289.53 160.68c9.6,4.55 15.66,14.15 15.66,24.76 0,10.61 -6.06,20.21 -15.66,24.76l-289.53 160.68c-8.09,5.56 -17.69,9.1 -27.79,10.11 0,0 -0.51,0 -0.51,0 -9.6,0 -18.19,-4.04 -24.76,-10.61 -6.57,-6.57 -10.11,-15.66 -10.11,-24.76 0,0 0,0 0,0 0,-0.51 0,-0.51 0,-1.01 0,-6.57 2.02,-12.63 5.56,-18.19 6.57,-7.07 14.15,-12.63 22.74,-17.18l224.35 -124.3 0 1z"/>
   <rect class="fil0" x="3051.09" y="263.29" width="92.97" height="92.97"/>
   <rect class="fil0" x="3051.09" y="503.81" width="92.97" height="92.97"/>
   <rect class="fil0" x="3051.09" y="744.32" width="92.97" height="92.97"/>
   <rect class="fil0" x="3051.09" y="984.33" width="92.97" height="92.97"/>
   <rect class="fil0" x="3051.09" y="1224.84" width="92.97" height="92.97"/>
   <rect class="fil0" x="3051.09" y="1465.36" width="92.97" height="92.97"/>
   <rect class="fil6" x="3231.98" y="284.51" width="370.37" height="27.79"/>
   <rect class="fil0" x="3318.38" y="525.03" width="131.88" height="27.79"/>
   <rect class="fil6" x="3892.38" y="795.86" width="131.88" height="27.79"/>
   <rect class="fil0" x="3318.38" y="1010.1" width="131.88" height="27.79"/>
   <rect class="fil0" x="3508.37" y="1010.1" width="131.88" height="27.79"/>
   <rect class="fil6" x="3508.37" y="795.86" width="337.02" height="27.79"/>
   <rect class="fil0" x="3704.92" y="1010.1" width="221.82" height="27.79"/>
   <rect class="fil0" x="3703.91" y="1525.49" width="131.88" height="27.79"/>
   <rect class="fil6" x="3515.95" y="525.03" width="410.29" height="27.79"/>
   <rect class="fil0" x="3508.37" y="1261.22" width="131.88" height="27.79"/>
   <rect class="fil0" x="3684.71" y="1261.22" width="76.3" height="27.79"/>
   <rect class="fil0" x="3818.61" y="1261.22" width="215.25" height="27.79"/>
   <rect class="fil7" x="1250.48" y="630.66" width="1509.95" height="1049.87" rx="55.4" ry="52.49"/>
   <polygon class="fil7" points="3126.59,2211.5 3126.59,2252.94 3126.07,2256.97 3124.37,2260.29 3121.51,2262.8 3117.53,2264.38 3112.47,2264.94 1648.14,2272.16 1645.27,2272.03 1642.3,2271.61 1639.24,2270.94 1636.1,2270.02 1632.93,2268.88 1629.74,2267.51 1626.56,2265.95 1623.4,2264.19 1620.3,2262.26 1617.27,2260.17 1614.34,2257.93 1611.54,2255.56 1608.88,2253.07 1606.4,2250.47 1604.11,2247.78 1602.04,2245.02 1269.44,1761.79 1266.18,1756.34 1264.22,1751.25 1263.51,1746.64 1263.51,1692.52 1264.22,1697.13 1266.18,1702.22 1269.44,1707.67 1610.71,2196.35 1612.78,2199.12 1615.07,2201.8 1617.55,2204.4 1620.21,2206.89 1623.02,2209.26 1625.94,2211.5 1628.97,2213.59 1632.07,2215.53 1635.22,2217.28 1638.41,2218.85 1641.6,2220.21 1644.78,2221.36 1647.91,2222.27 1650.97,2222.94 1653.95,2223.36 1656.81,2223.5 3112.47,2223.5 3117.53,2222.94 3121.51,2221.36 3124.37,2218.85 3126.07,2215.53 "/>
   <rect class="fil8" transform="matrix(1.29642 -0 0.443658 0.635295 1250.48 1680.53)" width="1164.7" height="854.67" rx="42.73" ry="42.73"/>
   <path class="fil9" d="M1342.56 1720.97l197.79 283.22c1.08,1.45 4.12,3.67 6.26,4.73l1378.93 0 -197.79 -283.22c-1.08,-1.45 -4.12,-3.67 -6.26,-4.73l-1378.93 0z"/>
   <rect class="fil10" x="1287.82" y="662.83" width="1431.06" height="930.01"/>
   <path class="fil11" d="M1927.08 2012.52l156.08 210.98c0,0 549.29,0 674.81,0l-146.55 -209.85c0,0 -618.82,-1.48 -684.34,-1.13z"/>
   <rect class="fil7" x="6781.42" y="229.1" width="686.48" height="551.06" rx="81.44" ry="114.91"/>
   <path class="fil7" d="M7386.46 229.1l-389.96 0c-44.79,0 -81.44,51.71 -81.44,114.91l0 321.24c0,63.2 36.65,114.91 81.44,114.91l389.96 0c44.79,0 81.44,-51.71 81.44,-114.91l0 -321.24c0,-63.2 -36.65,-114.91 -81.44,-114.91z"/>
   <g>
    <polygon class="fil1" points="5741.96,2069.5 4405.73,2069.5 4646.99,2255.98 5983.22,2255.98 "/>
    <polygon class="fil12" points="5741.96,2069.5 4405.73,2069.5 4646.99,2255.98 5983.22,2255.98 "/>
    <polygon class="fil1" points="4436.6,2255.98 4405.73,2069.5 4646.99,2255.98 "/>
    <polygon class="fil4" points="4436.6,2255.98 4405.73,2069.5 4646.99,2255.98 "/>
   </g>
   <polygon class="fil13" points="6618.73,4066.92 6618.73,4017.77 6249.68,4017.77 6249.68,4066.92 "/>
   <rect class="fil13" x="6302.71" y="3589.17" width="263.42" height="428.6"/>
   <polygon class="fil4" points="6302.71,3714.8 6566.14,3781.31 6566.14,3589.17 6302.71,3589.17 "/>
   <rect class="fil13" x="5449.86" y="2619.38" width="133.88" height="570.75"/>
   <path class="fil14" d="M6254.46 3589.17l0 -2481.2c0,0 0,0 0,-0.44 0,-93.89 40.42,-183.01 111.28,-244.73l176.92 -154.75c59.12,-52.16 135.62,-80.85 214.3,-80.85 0.44,0 0.87,0 1.31,0l638.56 0 311.67 332.97 0 2628.56 -1453.6 0 -0.44 0.43z"/>
   <path class="fil14" d="M5303.36 3108.84l1457.51 0 0 479.9 -1694.85 0c-95.2,0 -172.14,-77.38 -172.14,-172.57 0,-30.86 8.26,-60.86 23.91,-87.37l0 0c80.42,-136.49 226.91,-219.95 385.13,-219.95 0.44,0 0.44,0 0.87,0l0 0 -0.44 -0.01z"/>
   <path class="fil14" d="M5971.05 2793.69c-146.06,-50.85 -299.94,-77.38 -454.68,-77.38 -154.75,0 -308.63,26.08 -454.68,77.38 -14.35,5.22 -29.99,8.26 -45.21,8.26 -48.25,0 -92.16,-26.51 -114.76,-69.11l0 0c-27.38,-57.81 9.13,-132.15 83.46,-158.23 170.4,-59.55 350.36,-89.98 531.19,-89.98 180.83,0 360.79,30.43 531.19,89.98 74.34,25.65 110.84,100.85 83.46,158.23l0 0c-22.6,42.6 -66.51,69.11 -114.76,69.11 -15.22,0 -30.43,-2.61 -44.77,-7.83l0 0 -0.44 -0.43z"/>
   <polygon class="fil3" points="1848.46,3269.68 1740.17,4066.92 1651.19,4066.92 1735.88,3254.46 "/>
   <path class="fil1" d="M2813.04 3342.27l-1555.31 0c0,-98.24 79.55,-177.79 177.79,-177.79l1200.17 0c98.24,0 177.35,79.55 177.35,177.35l0 0 0 0.44z"/>
   <path class="fil15" d="M2813.04 3342.27l-1555.31 0c0,-98.24 79.55,-177.79 177.79,-177.79l1200.17 0c98.24,0 177.35,79.55 177.35,177.35l0 0 0 0.44z"/>
   <polygon class="fil3" points="1329.88,3341.84 1243.33,4066.92 1333.27,4066.92 1442.9,3341.84 "/>
   <polygon class="fil3" points="2741.31,3341.84 2827.7,4066.92 2737.92,4066.92 2628.29,3341.84 "/>
   <polygon class="fil3" points="2427.47,3341.84 2429.07,4066.92 2339.02,4066.92 2314.01,3341.84 "/>
   <polygon class="fil5" points="1838.46,3342.27 1740.09,4066.92 1651.45,4066.92 1727.18,3341.84 "/>
   <polygon class="fil5" points="2741.31,3341.84 2827.7,4066.92 2737.92,4066.92 2628.29,3341.84 "/>
   <g>
    <path class="fil6" d="M3996.76 1900.43c-3.74,-117.66 -92.53,-145.47 -208.58,-158.84l0 -42.79c-0.54,-10.16 -8.56,-18.18 -18.72,-18.18 0,0 0,0 -0.54,0l-401.11 0c0,0 -0.54,0 -0.54,0 -10.16,0 -18.72,8.02 -18.72,18.18l0 0 0 556.74 439.62 0 0 -60.97c116.06,-12.83 204.83,-177.03 208.58,-294.15l0.01 0.01zm-208.57 222.48l0 -309.12c85.57,12.3 144.4,24.07 131.56,109.64 -10.16,68.46 -63.64,190.39 -131.56,199.48z"/>
    <path class="fil16" d="M3996.76 1900.43c-3.74,-117.66 -92.53,-145.47 -208.58,-158.84l0 -42.79c-0.54,-10.16 -8.56,-18.18 -18.72,-18.18 0,0 0,0 -0.54,0l-401.11 0c0,0 -0.54,0 -0.54,0 -10.16,0 -18.72,8.02 -18.72,18.18l0 0 0 556.74 439.62 0 0 -60.97c116.06,-12.83 204.83,-177.03 208.58,-294.15l0.01 0.01zm-208.57 222.48l0 -309.12c85.57,12.3 144.4,24.07 131.56,109.64 -10.16,68.46 -63.64,190.39 -131.56,199.48z"/>
   </g>
   <path class="fil17" d="M6467.03 3589.17l0 -2481.2c0,-93.89 40.42,-183.44 111.28,-245.17l176.92 -154.75c59.12,-52.16 135.62,-80.85 214.3,-80.85 0.44,0 0.87,0 1.31,0l498.15 0c0,0 0,0 0.44,0 89.98,0 175.61,37.38 237.34,102.58l127.36 135.19c56.51,60.43 88.25,140.41 88.25,223.43 0,0 0,0 0,0l0 2252.12c0,0 0,0 0,0.44 0,137.36 -111.28,248.21 -248.21,248.21 0,0 -0.44,0 -0.44,0l-1205.39 0 -1.31 -0.01z"/>
   <rect class="fil18" x="6621.54" y="-0" width="968.66" height="551.06" rx="114.91" ry="114.91"/>
   <path class="fil19" d="M7475.29 0l-550.25 0c-63.2,0 -114.91,51.71 -114.91,114.91l0 321.24c0,63.2 51.71,114.91 114.91,114.91l550.25 0c63.2,0 114.91,-51.71 114.91,-114.91l0 -321.24c0,-63.2 -51.71,-114.91 -114.91,-114.91z"/>
   <polygon class="fil8" points="7467.89,538.2 7469.43,627.21 7991.13,1999.17 8079.82,1986.31 "/>
   <rect class="fil7 str0" transform="matrix(1.22172 -0.146177 0.146177 1.22172 6378.32 2119.59)" width="1385.92" height="912.06" rx="56.73" ry="56.73"/>
   <rect class="fil8 str0" transform="matrix(1.08778 -0.130151 0.0988872 0.826482 6505.11 2392.41)" width="1385.92" height="912.06" rx="56.73" ry="56.73"/>
   <rect class="fil11" transform="matrix(1.22172 -0.146177 0.146177 1.22172 6665.31 2582.9)" width="992.3" height="15.33"/>
   <g>
    <rect class="fil7 str0" transform="matrix(1.23506 -0.146177 0.0347281 1.22172 6801.25 2440.91)" width="82.56" height="724.22"/>
    <rect class="fil20" transform="matrix(1.23506 -0.146177 0.0347281 1.22172 6783 2335.95)" width="107.84" height="122.16"/>
    <rect class="fil7 str0" transform="matrix(1.23506 -0.146177 0.0347281 1.22172 7747.59 2328.91)" width="82.56" height="724.22"/>
    <rect class="fil20" transform="matrix(1.23506 -0.146177 0.0347281 1.22172 7729.35 2223.94)" width="107.84" height="122.16"/>
   </g>
   <circle class="fil21" transform="matrix(1.12886 -0.489539 0.489539 1.12886 7057.75 2913.6)" r="69.77"/>
   <path class="fil22" d="M7024.87 2922.94c-2.91,-1.18 -6.02,-2.44 -8.12,-3.27 -5.02,-1.98 -7.04,-6.23 -8.24,-8.72 -1.2,-2.49 -9.06,-17.66 -8.23,-20.05 1.03,-2.31 17.14,-8.01 19.71,-9.01 2.58,-1 6.96,-2.72 11.98,-0.74 2.1,0.83 5.24,2.04 8.17,3.16l-15.26 38.63zm21.16 -36.38c1.35,-3.3 4.18,-10.23 5.66,-13.97 1.98,-5.02 6.23,-7.04 8.72,-8.24 2.49,-1.2 17.66,-9.06 20.05,-8.23 2.31,1.03 8.01,17.13 9.01,19.71 1,2.58 2.72,6.96 0.74,11.98 -1.48,3.74 -4.15,10.74 -5.42,14.06l-15.31 38.76c-1.35,3.29 -4.18,10.23 -5.66,13.97 -1.98,5.02 -6.23,7.04 -8.72,8.24 -2.49,1.2 -17.66,9.06 -20.05,8.23 -2.31,-1.03 -8.01,-17.14 -9.01,-19.71 -1,-2.58 -2.72,-6.96 -0.73,-11.98 1.48,-3.74 4.15,-10.74 5.41,-14.06l15.31 -38.76zm44.61 17.7c2.91,1.18 6.02,2.44 8.12,3.27 5.02,1.98 7.04,6.23 8.24,8.72 1.2,2.49 9.06,17.66 8.23,20.05 -1.03,2.31 -17.13,8.01 -19.71,9.01 -2.58,1 -6.96,2.72 -11.97,0.73 -2.1,-0.83 -5.24,-2.04 -8.17,-3.16l15.26 -38.63z"/>
   <polygon class="fil8" points="6781.42,544.84 6806.23,627.21 6487.9,2167.04 6399.21,2154.18 "/>
   <path class="fil11" d="M6626.14 2670.35l-19.08 -159.48 -10.17 -84.98c-2.39,-19.95 8.19,-38.61 25.04,-47.46l-69.94 8.37c-25.79,3.08 -44.36,26.7 -41.27,52.49l8.57 71.58 19.08 159.48 51.33 428.97c3.09,25.79 26.7,44.36 52.49,41.27l178.34 -21.34 -0.09 -3.08 -92.08 11.02c-25.79,3.08 -49.41,-15.49 -52.49,-41.28l-49.72 -415.57z"/>
   <polygon class="fil8" points="1523.16,1884.11 1477.7,1864.33 1309.71,2255.54 1363.43,2255.54 "/>
   <rect class="fil23" x="1324.25" y="690.85" width="316.63" height="874.64"/>
   <rect class="fil23" x="2362.17" y="690.85" width="316.63" height="874.64"/>
   <polygon class="fil24" points="1794.07,766.11 2362.17,766.11 2362.17,1141.08 1794.07,1141.08 "/>
   <polygon class="fil24" points="1794.07,1185.06 2362.17,1185.06 2362.17,1560.03 1794.07,1560.03 "/>
   <rect class="fil22" x="1967.04" y="885.33" width="377.14" height="129.41"/>
   <rect class="fil7" x="1974.52" y="781.73" width="68.48" height="7.81"/>
   <rect class="fil7" x="2071.03" y="781.73" width="68.48" height="7.81"/>
   <rect class="fil7" x="2167.55" y="781.73" width="68.48" height="7.81"/>
   <rect class="fil7" x="2264.06" y="781.73" width="68.48" height="7.81"/>
   <rect class="fil7" x="2100.58" y="1045.32" width="110.07" height="26.59"/>
   <rect class="fil25" x="2114" y="1247.83" width="248.18" height="289.07"/>
   <rect class="fil26 str1" x="1854.04" y="1282.11" width="211.43" height="31.23"/>
   <rect class="fil26 str1" x="1854.04" y="1329.6" width="211.43" height="31.23"/>
   <rect class="fil26 str1" x="1854.04" y="1377.09" width="211.43" height="31.23"/>
   <rect class="fil26 str1" x="1854.04" y="1424.57" width="211.43" height="31.23"/>
  </g>
 </g>
</svg>
