<?xml version="1.0" encoding="UTF-8"?>
<!DOCTYPE svg PUBLIC "-//W3C//DTD SVG 1.1//EN" "http://www.w3.org/Graphics/SVG/1.1/DTD/svg11.dtd">
<!-- Creator: CorelDRAW -->
<svg xmlns="http://www.w3.org/2000/svg" xml:space="preserve" width="5.24558in" height="4.12589in" version="1.1" style="shape-rendering:geometricPrecision; text-rendering:geometricPrecision; image-rendering:optimizeQuality; fill-rule:evenodd; clip-rule:evenodd"
viewBox="0 0 231.34 181.96"
 xmlns:xlink="http://www.w3.org/1999/xlink"
 xmlns:xodm="http://www.corel.com/coreldraw/odm/2003">
 <defs>
  <style type="text/css">
   <![CDATA[
    .fil7 {fill:#F8AC92;fill-rule:nonzero}
    .fil12 {fill:#F5886C;fill-rule:nonzero}
    .fil0 {fill:#0693FF;fill-rule:nonzero}
    .fil8 {fill:#263238;fill-rule:nonzero}
    .fil13 {fill:#B55B52;fill-rule:nonzero}
    .fil6 {fill:#FFFF66;fill-rule:nonzero}
    .fil5 {fill:white;fill-rule:nonzero}
    .fil9 {fill:white;fill-rule:nonzero;fill-opacity:0.101961}
    .fil10 {fill:black;fill-rule:nonzero;fill-opacity:0.200000}
    .fil14 {fill:black;fill-rule:nonzero;fill-opacity:0.301961}
    .fil4 {fill:black;fill-rule:nonzero;fill-opacity:0.400000}
    .fil3 {fill:white;fill-rule:nonzero;fill-opacity:0.400000}
    .fil1 {fill:black;fill-rule:nonzero;fill-opacity:0.501961}
    .fil2 {fill:white;fill-rule:nonzero;fill-opacity:0.501961}
    .fil11 {fill:white;fill-rule:nonzero;fill-opacity:0.701961}
   ]]>
  </style>
 </defs>
 <g id="Layer_x0020_1">
  <metadata id="CorelCorpID_0Corel-Layer"/>
  <g id="_1978941762096">
   <g>
    <g id="freepik--Shadows--inject-313">
     <g id="freepik--Shadow--inject-214--inject-313">
     </g>
    </g>
   </g>
   <g>
    <image x="-0" y="0" width="231.34" height="181.96" xlink:href="about1_Images\about1_ImgID1.png"/>
   </g>
   <rect class="fil0" x="3.61" y="100.34" width="224.4" height="2.82"/>
   <polygon class="fil0" points="16.98,102.36 16.98,169.71 18.73,169.71 20.93,102.36 "/>
   <polygon class="fil0" points="37.64,104.57 37.64,166.96 39.39,166.96 41.6,104.57 "/>
   <polygon class="fil1" points="37.64,104.57 37.64,166.96 39.39,166.96 41.6,104.57 "/>
   <polygon class="fil0" points="215.44,102.36 215.44,169.71 213.7,169.71 211.49,102.36 "/>
   <polygon class="fil0" points="194.78,104.57 194.78,166.96 193.03,166.96 190.82,104.57 "/>
   <polygon class="fil1" points="194.78,104.57 194.78,166.96 193.03,166.96 190.82,104.57 "/>
   <polygon class="fil0" points="219.44,106.18 12.85,106.18 8.28,103.16 224,103.16 "/>
   <polygon class="fil1" points="219.44,106.18 12.85,106.18 8.28,103.16 224,103.16 "/>
   <path class="fil0" d="M18.36 91.68l0 2.2c0,-0 0,0 0,0 0,0.37 0.14,0.72 0.4,0.97l1.74 1.74c0.15,0.15 0.34,0.27 0.55,0.34 0.73,1.58 2.32,2.59 4.06,2.59l0.65 0c0.01,0 0.02,0 0.03,0 2.47,0 4.48,-2 4.48,-4.48 0,-0.01 0,-0.02 0,-0.03l0 -5.14 -9.62 0 0 0.42 -0.92 0c0,-0 0,-0 0,-0 -0.76,0 -1.37,0.61 -1.38,1.37l0 0zm1.1 0c0,-0 0,-0 0,-0 0,-0.15 0.12,-0.27 0.27,-0.27 0,0 0,0 0.01,0l0.92 0 0 3.62c0,0.05 0,0.1 0,0.15l-1.1 -1.1c-0.05,-0.05 -0.08,-0.12 -0.08,-0.19 0,-0 0,-0 0,-0l-0.01 -2.2z"/>
   <path class="fil2" d="M18.36 91.68l0 2.2c0,-0 0,0 0,0 0,0.37 0.14,0.72 0.4,0.97l1.74 1.74c0.15,0.15 0.34,0.27 0.55,0.34 0.73,1.58 2.32,2.59 4.06,2.59l0.65 0c0.01,0 0.02,0 0.03,0 2.47,0 4.48,-2 4.48,-4.48 0,-0.01 0,-0.02 0,-0.03l0 -5.14 -9.62 0 0 0.42 -0.92 0c0,-0 0,-0 0,-0 -0.76,0 -1.37,0.61 -1.38,1.37l0 0zm1.1 0c0,-0 0,-0 0,-0 0,-0.15 0.12,-0.27 0.27,-0.27 0,0 0,0 0.01,0l0.92 0 0 3.62c0,0.05 0,0.1 0,0.15l-1.1 -1.1c-0.05,-0.05 -0.08,-0.12 -0.08,-0.19 0,-0 0,-0 0,-0l-0.01 -2.2z"/>
   <path class="fil0" d="M32.56 100.27l-13.84 0c-0.63,-0.06 -1.22,-0.35 -1.65,-0.81l17.12 0c-0.42,0.46 -1,0.75 -1.63,0.81l-0 0z"/>
   <path class="fil2" d="M32.56 100.27l-13.84 0c-0.63,-0.06 -1.22,-0.35 -1.65,-0.81l17.12 0c-0.42,0.46 -1,0.75 -1.63,0.81l-0 0z"/>
   <path class="fil0" d="M218.75 93.53c-0.07,-2.2 -1.73,-2.72 -3.9,-2.97l0 -0.8c-0.01,-0.19 -0.16,-0.34 -0.35,-0.34 -0,0 -0,0 -0.01,0l-7.5 0c-0,-0 -0.01,-0 -0.01,-0 -0.19,0 -0.35,0.15 -0.35,0.34l-0 0 0 10.41 8.22 -0 0 -1.14c2.17,-0.24 3.83,-3.31 3.9,-5.5zm-3.9 4.16l0 -5.78c1.6,0.23 2.7,0.45 2.46,2.05 -0.19,1.28 -1.19,3.56 -2.46,3.73z"/>
   <path class="fil2" d="M218.75 93.53c-0.07,-2.2 -1.73,-2.72 -3.9,-2.97l0 -0.8c-0.01,-0.19 -0.16,-0.34 -0.35,-0.34 -0,0 -0,0 -0.01,0l-7.5 0c-0,-0 -0.01,-0 -0.01,-0 -0.19,0 -0.35,0.15 -0.35,0.34l-0 0 0 10.41 8.22 -0 0 -1.14c2.17,-0.24 3.83,-3.31 3.9,-5.5zm-3.9 4.16l0 -5.78c1.6,0.23 2.7,0.45 2.46,2.05 -0.19,1.28 -1.19,3.56 -2.46,3.73z"/>
   <rect class="fil0" x="112.36" y="86.91" width="6.49" height="13.18"/>
   <polygon class="fil2" points="112.36,100.09 118.85,100.09 118.85,86.91 112.36,86.91 "/>
   <polygon class="fil0" points="121.78,100.33 109.49,100.33 112.49,97.69 118.78,97.69 "/>
   <polygon class="fil2" points="121.78,100.33 109.49,100.33 112.49,97.69 118.78,97.69 "/>
   <polygon class="fil0" points="148.82,96.06 118.08,96.06 123.63,100.35 154.37,100.35 "/>
   <polygon class="fil3" points="148.82,96.06 118.08,96.06 123.63,100.35 154.37,100.35 "/>
   <polygon class="fil0" points="118.79,100.35 118.08,96.06 123.63,100.35 "/>
   <polygon class="fil1" points="118.79,100.35 118.08,96.06 123.63,100.35 "/>
   <path class="fil0" d="M87.48 55.7l55.95 0c0.59,0 1.06,0.48 1.06,1.06l0 34.31c0,0.59 -0.48,1.06 -1.06,1.06l-55.95 0c-0.59,-0 -1.06,-0.48 -1.06,-1.06l-0 -34.31c0,-0.59 0.48,-1.06 1.06,-1.06z"/>
   <polygon class="fil1" points="88.52,89.73 142.32,89.73 142.32,57.98 88.52,57.98 "/>
   <polygon class="fil4" points="113.46,83.2 140.61,83.2 140.61,64.51 113.46,64.51 "/>
   <rect class="fil0" x="113.46" y="64.51" width="27.15" height="1.71"/>
   <path class="fil5" d="M118.44 74.85l4.44 2.46c0.17,0.08 0.32,0.2 0.45,0.34 0.07,0.1 0.11,0.23 0.11,0.36 0,0.01 -0,0.01 -0,0.02 0,0 0,0 0,0 0,0.19 -0.08,0.37 -0.21,0.5 -0.12,0.13 -0.3,0.21 -0.48,0.21 -0.2,-0.02 -0.39,-0.09 -0.55,-0.2l-5.73 -3.18c-0.19,-0.09 -0.3,-0.28 -0.3,-0.49 0,-0.21 0.12,-0.4 0.3,-0.49l5.73 -3.18c0.17,-0.11 0.35,-0.17 0.55,-0.19 0,-0 0.01,-0 0.01,-0 0.18,0 0.35,0.07 0.47,0.2 0.13,0.13 0.21,0.3 0.21,0.49 0,0 0,0 0,0.01 0,0.01 0,0.01 0,0.02 0,0.13 -0.04,0.25 -0.11,0.35 -0.13,0.14 -0.28,0.25 -0.45,0.34l-4.44 2.46z"/>
   <path class="fil5" d="M129.86 70.26l-4.4 9.46c-0.07,0.17 -0.17,0.33 -0.3,0.46 -0.11,0.09 -0.26,0.14 -0.4,0.14 -0.01,0 -0.01,0 -0.02,-0 -0,0 -0.01,0 -0.01,0 -0.18,0 -0.35,-0.07 -0.47,-0.2 -0.13,-0.12 -0.21,-0.28 -0.21,-0.46 0.02,-0.19 0.07,-0.38 0.17,-0.55l4.4 -9.46c0.07,-0.17 0.17,-0.32 0.29,-0.46 0.12,-0.09 0.27,-0.14 0.42,-0.14 0,0 0.01,0 0.01,0 0,-0 0.01,-0 0.01,-0 0.18,0 0.35,0.07 0.47,0.2 0.13,0.12 0.2,0.28 0.2,0.45 -0.01,0.19 -0.06,0.38 -0.14,0.55l0 0z"/>
   <path class="fil5" d="M135.38 74.85l-4.44 -2.46c-0.17,-0.08 -0.32,-0.2 -0.45,-0.34 -0.07,-0.1 -0.11,-0.23 -0.11,-0.35 0,-0.01 0,-0.01 0,-0.02 -0,-0 -0,-0 -0,-0.01 0,-0.18 0.08,-0.36 0.21,-0.49 0.13,-0.13 0.3,-0.2 0.48,-0.2 0,0 0.01,0 0.01,0 0.2,0.02 0.38,0.09 0.55,0.19l5.73 3.18c0.19,0.09 0.31,0.28 0.31,0.49 0,0.21 -0.12,0.4 -0.31,0.49l-5.73 3.18c-0.16,0.11 -0.35,0.18 -0.55,0.2 -0,0 -0.01,0 -0.01,0 -0.19,0 -0.36,-0.08 -0.49,-0.21 -0.13,-0.13 -0.2,-0.31 -0.2,-0.49 0,-0 0,-0 0,-0 0,-0.01 -0,-0.01 -0,-0.02 0,-0.13 0.04,-0.25 0.11,-0.36 0.13,-0.14 0.28,-0.25 0.45,-0.34l4.44 -2.46z"/>
   <rect class="fil5" x="90.73" y="60.91" width="1.84" height="1.84"/>
   <rect class="fil5" x="90.73" y="65.67" width="1.84" height="1.84"/>
   <rect class="fil5" x="90.73" y="70.43" width="1.84" height="1.84"/>
   <rect class="fil5" x="90.73" y="75.18" width="1.84" height="1.84"/>
   <rect class="fil5" x="90.73" y="79.94" width="1.84" height="1.84"/>
   <rect class="fil5" x="90.73" y="84.7" width="1.84" height="1.84"/>
   <rect class="fil6" x="94.31" y="61.33" width="7.33" height="0.55"/>
   <rect class="fil5" x="96.02" y="66.09" width="2.61" height="0.55"/>
   <rect class="fil6" x="107.38" y="71.45" width="2.61" height="0.55"/>
   <rect class="fil5" x="96.02" y="75.69" width="2.61" height="0.55"/>
   <rect class="fil5" x="99.78" y="75.69" width="2.61" height="0.55"/>
   <rect class="fil6" x="99.78" y="71.45" width="6.67" height="0.55"/>
   <rect class="fil5" x="103.67" y="75.69" width="4.39" height="0.55"/>
   <rect class="fil5" x="103.65" y="85.89" width="2.61" height="0.55"/>
   <rect class="fil5" x="107.42" y="85.89" width="2.61" height="0.55"/>
   <rect class="fil5" x="111.3" y="85.89" width="1.46" height="0.55"/>
   <rect class="fil6" x="99.93" y="66.09" width="8.12" height="0.55"/>
   <rect class="fil5" x="99.78" y="80.66" width="2.61" height="0.55"/>
   <rect class="fil5" x="103.27" y="80.66" width="1.51" height="0.55"/>
   <rect class="fil5" x="105.92" y="80.66" width="4.26" height="0.55"/>
   <path class="fil0" d="M110.9 40.54c-0.14,6.66 -7.06,12.25 -15.46,12.47 -0.2,0.01 -0.4,0.01 -0.6,0.01 -2.38,0 -4.74,-0.48 -6.93,-1.4 -0.85,2.09 -2.63,3.89 -7.75,4.69 5.33,-4.12 2.42,-7.61 1.2,-10.68l0 0c-0.61,-1.29 -0.92,-2.7 -0.92,-4.12 0,-0.05 0,-0.11 0,-0.16 0.14,-6.67 7.06,-12.24 15.46,-12.47 8.41,-0.23 15.13,5 15,11.67z"/>
   <rect class="fil5" x="88.52" y="33.56" width="7.33" height="0.55"/>
   <rect class="fil5" x="90.22" y="38.34" width="2.61" height="0.55"/>
   <rect class="fil5" x="101.58" y="43.69" width="2.61" height="0.55"/>
   <rect class="fil5" x="90.22" y="47.93" width="2.61" height="0.55"/>
   <rect class="fil5" x="93.99" y="47.93" width="2.61" height="0.55"/>
   <rect class="fil5" x="93.99" y="43.69" width="6.67" height="0.55"/>
   <rect class="fil5" x="97.87" y="47.93" width="4.39" height="0.55"/>
   <rect class="fil5" x="94.14" y="38.34" width="8.12" height="0.55"/>
   <polygon class="fil7" points="142.68,166.75 138.66,165.55 139.6,155.71 143.61,156.91 "/>
   <path class="fil0" d="M166.43 105.99c0,0 -27.6,2.33 -26.92,14.31 0.55,9.81 2.01,7.16 -0.85,36.33l6.94 0.39c0,0 7.06,-23.86 6.11,-33.34 7.78,0 25.59,0.68 28.18,-6.34 1.22,-3.39 1.85,-6.98 1.85,-10.59 0,-0.18 -0,-0.36 -0,-0.53l-15.31 -0.24z"/>
   <polygon class="fil8" points="146.71,158.34 137.63,156.79 137.78,152.77 147.17,154.86 "/>
   <path class="fil8" d="M138.25 163.89l4.64 0.92c0.16,0.04 0.27,0.18 0.27,0.34 0,0.02 -0,0.03 -0,0.05l-0.39 4.4c-0.03,0.41 -0.37,0.73 -0.78,0.73 -0.02,0 -0.05,-0 -0.07,-0 -1.61,-0.35 -2.37,-0.61 -4.4,-1.02 -1.26,-0.25 -4.12,-0.85 -5.87,-1.05 -1.75,-0.2 -1.54,-2.23 -0.78,-2.34 3.39,-0.45 5.32,-1 6.63,-1.84 0.18,-0.13 0.39,-0.2 0.61,-0.2 0.05,0 0.1,0 0.15,0.01l0 0z"/>
   <path class="fil0" d="M136.17 164.68c0.23,0.03 0.47,0.05 0.71,0.05 0.13,0 0.26,-0.01 0.39,-0.01 0,0 0,0 0,0 0.04,0 0.07,-0.02 0.08,-0.06 0.01,-0.02 0.01,-0.03 0.01,-0.05 0,-0.02 -0,-0.04 -0.01,-0.05 -0.12,-0.12 -1.16,-1.1 -1.69,-0.99 -0.13,0.02 -0.23,0.11 -0.27,0.23 -0.04,0.08 -0.06,0.16 -0.06,0.25 0,0.11 0.03,0.21 0.09,0.3 0.19,0.21 0.46,0.33 0.74,0.34l0 0zm0.89 -0.15c-0.77,0 -1.3,-0.09 -1.46,-0.31 -0.03,-0.05 -0.05,-0.11 -0.05,-0.18 0,-0.06 0.02,-0.12 0.05,-0.18 0.02,-0.06 0.07,-0.11 0.13,-0.12 0.26,-0.05 0.91,0.39 1.36,0.79l-0.02 -0.01z"/>
   <path class="fil0" d="M137.28 164.72l0.04 0c0.03,-0.01 0.06,-0.04 0.07,-0.07 0,-0.05 0.3,-1.22 -0.05,-1.69 -0.09,-0.13 -0.23,-0.2 -0.39,-0.2 -0.02,-0 -0.04,-0 -0.05,-0 -0.15,0 -0.29,0.09 -0.34,0.24 -0.17,0.43 0.3,1.4 0.67,1.71 0.01,0.01 0.03,0.02 0.05,0.02 0,0 0,0 0,0l0 0zm-0.29 -1.77c0.08,0.02 0.15,0.06 0.19,0.12 0.09,0.24 0.13,0.5 0.13,0.75 0,0.2 -0.03,0.41 -0.08,0.6 -0.32,-0.36 -0.5,-0.82 -0.5,-1.3 0,-0.02 0,-0.05 0,-0.07 0,-0.06 0.06,-0.12 0.2,-0.11l0.05 0.01z"/>
   <polygon class="fil7" points="124.79,168.28 120.96,166.56 123.61,157.13 127.43,158.85 "/>
   <path class="fil0" d="M158.22 105.99c-0.18,0 -30.94,3.17 -30.98,13.6 -0.07,17.25 -4.99,37.03 -4.99,37.03l6.06 3.01c0,0 10.59,-21.44 10.43,-34.89 8.46,-2.43 30.35,1.65 32.94,-5.36 2.12,-5.74 0.97,-13.39 0.97,-13.39l-14.42 -0z"/>
   <polygon class="fil8" points="129.29,160.5 121.15,156.83 121.8,153.49 130.39,156.46 "/>
   <path class="fil8" d="M121.34 163.39l4.65 0.96c0.16,0.05 0.26,0.2 0.26,0.37 0,0.02 -0,0.04 -0.01,0.06l-0.36 4.82c-0.07,0.52 -0.44,0.88 -0.84,0.8l0 0c-1.61,-0.37 -2.37,-0.66 -4.4,-1.1 -1.26,-0.25 -4.67,-1.1 -6.4,-1.54 -1.72,-0.43 -1.34,-2.64 -0.55,-2.66 3.41,-0.05 5.62,-0.61 6.93,-1.56 0.16,-0.11 0.35,-0.17 0.54,-0.17 0.06,0 0.13,0.01 0.19,0.02l0 0z"/>
   <path class="fil0" d="M119.46 164.43c0.32,-0.18 0.63,-0.39 0.91,-0.63 0.02,-0.02 0.04,-0.05 0.04,-0.08 0,-0.01 -0,-0.02 -0,-0.02 -0.01,-0.04 -0.04,-0.06 -0.08,-0.07 -0.16,0 -1.58,-0.21 -1.95,0.2 -0.06,0.07 -0.09,0.16 -0.09,0.25 0,0.03 0,0.07 0.01,0.1 0.03,0.19 0.17,0.36 0.35,0.42 0.06,0.01 0.12,0.01 0.18,0.01 0.23,0 0.45,-0.07 0.63,-0.19l-0 0zm0.62 -0.64c-0.6,0.47 -1.1,0.69 -1.36,0.62 -0.12,-0.05 -0.2,-0.16 -0.21,-0.29 -0.01,-0.02 -0.01,-0.03 -0.01,-0.05 0,-0.04 0.02,-0.08 0.05,-0.11 0.17,-0.2 0.91,-0.21 1.51,-0.16l0.03 0z"/>
   <path class="fil0" d="M120.34 163.81l0.04 -0.03c0.01,-0.01 0.01,-0.03 0.01,-0.05 0,-0.02 -0.01,-0.03 -0.01,-0.05 -0.03,-0.04 -0.48,-1.17 -1.04,-1.34 -0.05,-0.02 -0.1,-0.02 -0.15,-0.02 -0.1,0 -0.2,0.03 -0.28,0.09 -0.12,0.06 -0.2,0.19 -0.2,0.33 0,0.03 0,0.07 0.01,0.1 0.12,0.46 1.07,0.95 1.56,0.98l0.06 -0.01zm-1.28 -1.26c0.04,-0.02 0.08,-0.02 0.12,-0.02 0.04,0 0.08,0.01 0.12,0.02 0.39,0.26 0.68,0.63 0.85,1.06 -0.49,-0.1 -0.93,-0.39 -1.22,-0.81 -0.03,-0.04 0,-0.13 0.1,-0.21l0.04 -0.04z"/>
   <path class="fil7" d="M168.67 72.7c0.81,1.74 1.48,3.41 2.14,5.15 0.67,1.74 1.26,3.48 1.8,5.26 0.54,1.78 1.02,3.61 1.4,5.51 0.41,1.94 0.62,3.93 0.62,5.92 0,0.02 0,0.05 0,0.07 -0.01,1.18 -0.18,2.35 -0.52,3.48 -0.21,0.69 -0.53,1.35 -0.92,1.96 -0.23,0.34 -0.5,0.66 -0.79,0.96l-0.24 0.23c-0.13,0.11 -0.28,0.23 -0.41,0.32 -0.23,0.16 -0.48,0.3 -0.74,0.41 -0.38,0.16 -0.78,0.29 -1.19,0.38 -0.32,0.07 -0.65,0.11 -0.97,0.14 -0.28,0.02 -0.56,0.03 -0.84,0.03 -0.28,0 -0.56,-0.01 -0.84,-0.02 -0.99,-0.05 -1.99,-0.16 -2.96,-0.33 -3.65,-0.66 -7.24,-1.69 -10.68,-3.06l0.8 -3.03c3.5,0.42 7.06,0.86 10.43,1.02 0.84,0 1.65,0.04 2.41,0 0.34,-0.02 0.67,-0.06 1.01,-0.13 0.28,-0.05 0.51,-0.15 0.43,-0.14 -0.06,0.02 -0.11,0.04 -0.15,0.08 -0.06,0.03 -0.11,0.07 -0.15,0.12l0 0c0.02,-0.03 0.04,-0.06 0.05,-0.09 0.07,-0.16 0.13,-0.32 0.16,-0.49 0.1,-0.51 0.15,-1.03 0.15,-1.55 0,-0.09 -0,-0.19 -0,-0.28 -0.08,-1.58 -0.32,-3.14 -0.7,-4.67 -0.37,-1.65 -0.86,-3.26 -1.39,-4.89 -0.53,-1.64 -1.1,-3.27 -1.73,-4.9 -0.63,-1.63 -1.29,-3.26 -1.94,-4.8l5.78 -2.62z"/>
   <path class="fil7" d="M155.83 96.9l-3.65 -2.05 -1.83 3.95c0,0 4.27,1.78 5.16,0.67l0.32 -2.57z"/>
   <polygon class="fil7" points="149.23,95.59 147.56,98.23 150.35,98.77 152.18,94.82 "/>
   <path class="fil7" d="M160.16 75.84c-0.7,1.76 -1.43,3.44 -2.2,5.14 -0.77,1.7 -1.54,3.37 -2.36,5.05 -1.63,3.4 -3.49,6.73 -5.51,9.91 -0.55,0.81 -1.1,1.62 -1.72,2.43 -0.31,0.41 -0.65,0.81 -1.01,1.22 -0.2,0.21 -0.36,0.4 -0.59,0.62l-0.33 0.32 -0.19 0.18c-0.52,0.44 -1.14,0.77 -1.8,0.95 -0.35,0.1 -0.71,0.18 -1.07,0.23 -0.44,0.05 -0.89,0.08 -1.34,0.08 -0.14,0 -0.29,-0 -0.43,-0.01 -1.02,-0.03 -2.05,-0.14 -3.05,-0.3 -3.72,-0.66 -7.39,-1.7 -10.91,-3.09l0.8 -3.04c3.56,0.43 7.2,0.89 10.63,1.03 0.29,0.01 0.59,0.02 0.89,0.02 0.51,0 1.03,-0.02 1.54,-0.05 0.32,-0.03 0.65,-0.08 0.96,-0.15 0.1,-0.03 0.2,-0.06 0.3,-0.11 0.03,0 0,-0.04 -0.15,0.06 -0.06,0.03 -0.11,0.07 -0.15,0.11l0.06 -0.07 0.15 -0.17c0.1,-0.1 0.22,-0.26 0.34,-0.4 0.23,-0.29 0.46,-0.59 0.69,-0.93 0.46,-0.66 0.9,-1.38 1.34,-2.12 0.88,-1.48 1.7,-3.04 2.5,-4.63 0.8,-1.59 1.57,-3.2 2.33,-4.83 1.51,-3.25 2.99,-6.61 4.4,-9.85l5.87 2.42z"/>
   <path class="fil7" d="M130.01 96.31l-3.66 -2.1 -1.83 3.95c0,0 4.27,1.78 5.17,0.67l0.32 -2.53z"/>
   <polygon class="fil7" points="123.41,95.01 121.74,97.65 124.53,98.18 126.36,94.23 "/>
   <path class="fil7" d="M169.61 56.31l-2.33 2.7 -3.56 3.68 0.27 0.67c0.27,0.68 0.44,1.4 0.47,2.14 0.08,1.48 -0.06,2.72 -2.39,3.73 0,0 -2.44,3.19 3.37,2.31 5.81,-0.89 6.69,-3.9 6.69,-3.9 -2.57,-1.83 -2.72,-7.93 -2.52,-11.32z"/>
   <path class="fil8" d="M157.76 53.26c0,0.36 -0.18,0.67 -0.42,0.68 -0.24,0.01 -0.43,-0.28 -0.44,-0.64 -0.01,-0.36 0.19,-0.67 0.42,-0.68 0.24,-0.01 0.44,0.28 0.44,0.64z"/>
   <path class="fil8" d="M158.97 51.9c-0.07,-0 -0.14,-0.04 -0.18,-0.1 -0.29,-0.47 -0.78,-0.79 -1.33,-0.85 -0.12,-0.01 -0.21,-0.1 -0.21,-0.22 0,0 0,-0 0,-0 0,0 0,-0 0,-0 0,-0.12 0.09,-0.21 0.21,-0.21 0,0 0.01,0 0.01,0l0 0c0.7,0.06 1.32,0.45 1.68,1.05 0.02,0.03 0.03,0.07 0.03,0.11 0,0.07 -0.04,0.14 -0.1,0.18 -0.04,0.02 -0.08,0.03 -0.12,0.03z"/>
   <path class="fil7" d="M157.62 53.48c-0.3,0.99 -0.72,1.94 -1.27,2.82 0.26,0.15 0.56,0.23 0.86,0.23 0.22,0 0.43,-0.04 0.63,-0.12l-0.23 -2.93z"/>
   <path class="fil7" d="M169.94 51.42c-0.21,4.49 -0.12,7.16 -2.35,9.53 -1.11,1.22 -2.68,1.92 -4.33,1.92 -2.72,0 -5.08,-1.87 -5.7,-4.51 -1.01,-3.98 -0.48,-10.66 3.85,-12.66 0.82,-0.4 1.71,-0.61 2.62,-0.61 3.26,0 5.91,2.65 5.91,5.91 0,0.14 -0.01,0.28 -0.02,0.42l0 0z"/>
   <path class="fil8" d="M171.98 52.93c-0.65,1.9 -1.64,3.68 -2.92,5.23l-5.85 1.1c0,0 -4.62,-1.93 -3.39,-5.11 -0.78,-0.66 -0.49,-2.7 0.06,-3.83 0.43,0.35 0.96,0.54 1.51,0.54 0.6,0 1.17,-0.22 1.61,-0.62 0.39,0.61 1.07,0.99 1.8,0.99 0.6,0 1.18,-0.26 1.59,-0.71 0.42,0.41 0.98,0.64 1.57,0.64 0.83,0 1.59,-0.46 1.99,-1.19 0.32,0.2 0.69,0.31 1.07,0.31 0.47,0 0.92,-0.16 1.29,-0.46l0.08 -0.08c0.01,0.19 0.02,0.39 0.02,0.59 0,0.89 -0.15,1.77 -0.43,2.61l0 0z"/>
   <path class="fil9" d="M171.98 52.93c-0.65,1.9 -1.64,3.68 -2.92,5.23l-5.85 1.1c0,0 -4.62,-1.93 -3.39,-5.11 -0.78,-0.66 -0.49,-2.7 0.06,-3.83 0.43,0.35 0.96,0.54 1.51,0.54 0.6,0 1.17,-0.22 1.61,-0.62 0.39,0.61 1.07,0.99 1.8,0.99 0.6,0 1.18,-0.26 1.59,-0.71 0.42,0.41 0.98,0.64 1.57,0.64 0.83,0 1.59,-0.46 1.99,-1.19 0.32,0.2 0.69,0.31 1.07,0.31 0.47,0 0.92,-0.16 1.29,-0.46l0.08 -0.08c0.01,0.19 0.02,0.39 0.02,0.59 0,0.89 -0.15,1.77 -0.43,2.61l0 0z"/>
   <path class="fil8" d="M172.84 47.53c0.11,0.25 0.16,0.53 0.16,0.8 0,0.54 -0.21,1.06 -0.6,1.45l-0.08 0.08c-0.36,0.3 -0.82,0.47 -1.3,0.47 -0.38,0 -0.76,-0.11 -1.08,-0.31 -0.4,0.74 -1.17,1.2 -2,1.2 -0.59,0 -1.16,-0.23 -1.58,-0.64 -0.41,0.45 -0.99,0.71 -1.6,0.71 -0.74,0 -1.42,-0.38 -1.82,-0.99 -0.44,0.41 -1.02,0.63 -1.62,0.63 -0.56,0 -1.1,-0.19 -1.53,-0.55 -0.24,-0.18 -0.43,-0.42 -0.56,-0.69 -0.03,-0.06 -0.06,-0.12 -0.08,-0.18 -0.05,0.05 -0.1,0.1 -0.16,0.15 -0.3,0.24 -0.68,0.38 -1.07,0.38 -0.32,0 -0.63,-0.09 -0.91,-0.26 -0.45,-0.31 -0.72,-0.82 -0.72,-1.37 0,-0.04 0,-0.08 0,-0.13 0.01,-0.12 0.03,-0.24 0.06,-0.36 -0.04,0.08 -0.1,0.16 -0.17,0.23 -0.26,0.25 -0.6,0.39 -0.96,0.39 -0.38,0 -0.75,-0.16 -1.01,-0.44 -0.19,-0.28 -0.28,-0.61 -0.28,-0.95 0,-0.61 0.32,-1.17 0.84,-1.48 0.31,-0.18 0.67,-0.28 1.03,-0.28 0.01,0 0.01,0 0.02,0 0.58,0.01 1.14,0.2 1.59,0.56 -0.12,-0.23 -0.18,-0.49 -0.18,-0.75 0,-0.92 0.75,-1.67 1.67,-1.67 0.43,0 0.84,0.16 1.14,0.46 -0.02,-0.1 -0.03,-0.21 -0.03,-0.31 0,-0.48 0.24,-0.93 0.64,-1.2 0.77,-0.44 2.04,-0.06 2.67,0.68 0,0 0.86,-2.07 2.33,-1.83 0.32,0.04 1.84,0.72 1.8,1.26 0,0.02 0.01,0.04 0.01,0.05 0,0.02 -0,0.04 -0.01,0.05 0.02,-0.04 0.04,-0.08 0.07,-0.12 0.31,-0.42 0.81,-0.67 1.34,-0.67 0.03,0 0.06,0 0.08,0 0.59,0.04 1.18,0.2 1.71,0.46 1.15,0.47 2.37,1 3.04,2.05 0.67,1.05 0.33,2.79 -0.87,3.13z"/>
   <path class="fil7" d="M162.4 54.58c-0.16,1.11 -0.67,2.14 -1.45,2.94 -1,0.95 -1.84,0 -1.86,-1.45 0,-1.31 0.49,-3.39 1.65,-3.77 1.16,-0.39 1.88,0.83 1.66,2.28z"/>
   <path class="fil6" d="M180.02 69.19c-0.41,-1.1 -2.34,-2.2 -3.52,-2.2l-0.78 0c-1.58,0.01 -3.16,0.12 -4.72,0.3 -3.14,0.34 -6.28,0.88 -9.36,1.58 -1.42,0.37 -2.79,0.85 -3.88,1.26 -1.39,0.55 -2.2,0.92 -2.2,0.92 0,0 1.52,10.12 2.31,20.17 0.43,5.6 0.25,11.15 0.4,14.97l23.49 0c0.81,-4.59 0.68,-8.59 0.75,-16.88 0.03,-4.99 -0.78,-15.58 -2.47,-20.11z"/>
   <path class="fil10" d="M157.35 85.59c0.18,2.11 0.36,4.32 0.55,6.53 2.75,-4.02 4.27,-15.01 4.27,-15.01l-4.82 8.48z"/>
   <path class="fil6" d="M154.22 71.78c-3.36,1.89 -6.66,11.56 -6.66,11.56l7.71 5.81c2.94,-2.78 7.24,-9.68 7.71,-12.44 0.75,-4.21 -3.36,-7.95 -8.75,-4.93z"/>
   <path class="fil8" d="M147.57 170.43c0,1.32 -1.07,2.39 -2.39,2.39 -1.32,0 -2.39,-1.07 -2.39,-2.39 0,-1.32 1.07,-2.39 2.39,-2.39 1.32,0 2.39,1.07 2.39,2.39l0 0z"/>
   <path class="fil8" d="M183.32 170.43c0,1.32 1.07,2.39 2.39,2.39 1.32,0 2.39,-1.07 2.39,-2.39 0,-1.32 -1.07,-2.39 -2.39,-2.39 -1.32,0 -2.39,1.07 -2.39,2.39l0 0z"/>
   <path class="fil8" d="M163.1 169.64c0,1.32 1.07,2.39 2.39,2.39 1.32,0 2.39,-1.07 2.39,-2.39 0,-1.32 -1.07,-2.39 -2.39,-2.39 -1.32,0 -2.39,1.07 -2.39,2.39l0 0z"/>
   <path class="fil8" d="M164.75 166.71l0 -4.63 -6.86 0c-0.01,-0 -0.02,-0 -0.03,-0 -1.33,0 -2.67,0.13 -3.99,0.37l-12.77 2.48c-0.54,0.11 -0.94,0.59 -0.94,1.14 0,0.64 0.52,1.16 1.16,1.16 0.01,0 0.02,-0 0.04,-0l23.39 -0.52z"/>
   <path class="fil8" d="M164.75 166.71l0 -4.63 6.86 0c1.34,0.01 2.68,0.14 4,0.4l14.36 2.29c0.55,0.11 0.94,0.58 0.94,1.14 0,0.64 -0.52,1.16 -1.16,1.16 -0.01,0 -0.02,-0 -0.04,-0l-24.96 -0.36z"/>
   <rect class="fil8" x="160.5" y="140.88" width="8.49" height="21.2"/>
   <rect class="fil8" x="161.72" y="131.02" width="6.06" height="9.86"/>
   <polygon class="fil1" points="161.72,133.91 167.78,135.44 167.78,131.02 161.72,131.02 "/>
   <rect class="fil8" x="142.1" y="108.71" width="3.08" height="13.13"/>
   <path class="fil0" d="M160.61 131.02l0 -57.08c0,-0 0,-0 0,-0.01 0,-2.16 0.93,-4.21 2.56,-5.63l4.07 -3.56c1.36,-1.2 3.12,-1.86 4.93,-1.86 0.01,0 0.02,0 0.03,0l14.69 0 7.17 7.66 0 60.47 -33.44 0z"/>
   <path class="fil0" d="M138.73 119.97l33.53 0 0 11.04 -38.99 0c-2.19,-0 -3.96,-1.78 -3.96,-3.97 0,-0.71 0.19,-1.4 0.55,-2.01l-0 0c1.85,-3.14 5.22,-5.06 8.86,-5.06 0.01,0 0.01,0 0.02,0l-0 0z"/>
   <path class="fil11" d="M194.05 70.54l0 60.47 -60.79 0c-2.19,-0 -3.96,-1.78 -3.96,-3.97 0,-0.71 0.19,-1.4 0.55,-2.01 1.85,-3.13 5.23,-5.06 8.87,-5.06 0,0 0.01,0 0.01,0l16.88 0c2.77,-0 5.02,-2.25 5.02,-5.02l-0 -41.02c0,-0 0,-0 0,-0.01 0,-2.16 0.93,-4.21 2.56,-5.63l4.07 -3.56c1.36,-1.2 3.12,-1.86 4.93,-1.86 0.01,0 0.02,0 0.03,0l14.69 0 7.15 7.66z"/>
   <path class="fil0" d="M165.5 131.02l0 -57.08c0,-2.16 0.93,-4.22 2.56,-5.64l4.07 -3.56c1.36,-1.2 3.12,-1.86 4.93,-1.86 0.01,0 0.02,0 0.03,0l11.46 0c0,0 0,0 0.01,0 2.07,0 4.04,0.86 5.46,2.36l2.93 3.11c1.3,1.39 2.03,3.23 2.03,5.14 0,0 0,0 0,0l0 51.81c0,0 0,0 0,0.01 0,3.16 -2.56,5.71 -5.71,5.71 -0,0 -0.01,0 -0.01,0l-27.73 0z"/>
   <path class="fil2" d="M165.5 131.02l0 -57.08c0,-2.16 0.93,-4.22 2.56,-5.64l4.07 -3.56c1.36,-1.2 3.12,-1.86 4.93,-1.86 0.01,0 0.02,0 0.03,0l11.46 0c0,0 0,0 0.01,0 2.07,0 4.04,0.86 5.46,2.36l2.93 3.11c1.3,1.39 2.03,3.23 2.03,5.14 0,0 0,0 0,0l0 51.81c0,0 0,0 0,0.01 0,3.16 -2.56,5.71 -5.71,5.71 -0,0 -0.01,0 -0.01,0l-27.73 0z"/>
   <path class="fil0" d="M154.09 112.72c-3.36,-1.17 -6.9,-1.78 -10.46,-1.78 -3.56,0 -7.1,0.6 -10.46,1.78 -0.33,0.12 -0.69,0.19 -1.04,0.19 -1.11,0 -2.12,-0.61 -2.64,-1.59l0 0c-0.63,-1.33 0.21,-3.04 1.92,-3.64 3.92,-1.37 8.06,-2.07 12.22,-2.07 4.16,0 8.3,0.7 12.22,2.07 1.71,0.59 2.55,2.32 1.92,3.64l-0 0c-0.52,0.98 -1.53,1.59 -2.64,1.59 -0.35,0 -0.7,-0.06 -1.03,-0.18l-0 0z"/>
   <path class="fil11" d="M154.09 112.72c-3.36,-1.17 -6.9,-1.78 -10.46,-1.78 -3.56,0 -7.1,0.6 -10.46,1.78 -0.33,0.12 -0.69,0.19 -1.04,0.19 -1.11,0 -2.12,-0.61 -2.64,-1.59l0 0c-0.63,-1.33 0.21,-3.04 1.92,-3.64 3.92,-1.37 8.06,-2.07 12.22,-2.07 4.16,0 8.3,0.7 12.22,2.07 1.71,0.59 2.55,2.32 1.92,3.64l-0 0c-0.52,0.98 -1.53,1.59 -2.64,1.59 -0.35,0 -0.7,-0.06 -1.03,-0.18l-0 0z"/>
   <path class="fil8" d="M68.53 58.1c-0.12,0.32 -0.03,0.65 0.18,0.72 0.21,0.07 0.48,-0.13 0.59,-0.45 0.11,-0.32 0.03,-0.66 -0.18,-0.73 -0.21,-0.07 -0.48,0.13 -0.59,0.46z"/>
   <path class="fil12" d="M68.47 58.43c0.04,1.13 0.24,2.26 0.59,3.34 -0.18,0.05 -0.36,0.08 -0.55,0.08 -0.39,0 -0.78,-0.11 -1.1,-0.33l1.06 -3.08z"/>
   <path class="fil8" d="M68.01 55.88c0.02,0.01 0.04,0.01 0.06,0.01 0.02,0 0.04,-0 0.06,-0.01 0.16,-0.05 0.33,-0.08 0.5,-0.08 0.34,0 0.67,0.1 0.95,0.3 0.03,0.03 0.08,0.04 0.12,0.04 0.07,0 0.13,-0.03 0.16,-0.08 0.03,-0.04 0.05,-0.08 0.05,-0.13 0,-0.05 -0.02,-0.09 -0.05,-0.13 -0.35,-0.26 -0.77,-0.4 -1.21,-0.4 -0.21,0 -0.42,0.03 -0.62,0.1 -0.08,0.03 -0.14,0.11 -0.14,0.2 0,0.02 0,0.04 0.01,0.06 0.02,0.06 0.07,0.11 0.13,0.13l-0.03 0.01z"/>
   <path class="fil7" d="M56.46 59.3c0.62,3.13 1.23,8.87 -0.96,10.97 0,0 0.86,3.18 6.68,3.18 6.4,0 3.06,-3.18 3.06,-3.18 -3.5,-0.84 -2.93,-3.43 -2.32,-5.86l-6.46 -5.1z"/>
   <path class="fil7" d="M57.89 53.61c-1.15,4.1 -2.03,6.44 -0.72,9.19 1.97,4.16 8.84,4.7 10.71,-0.06 1.43,-4.4 2.84,-9.01 -0.55,-11.97 -1.06,-0.94 -2.43,-1.46 -3.85,-1.46 -2.62,0 -4.92,1.76 -5.61,4.29l0.02 0z"/>
   <path class="fil8" d="M53.83 50.48c0.75,-1.34 2.55,-3.47 3.88,-2.69 1.07,-2.25 3.36,-2.37 5.85,-2.37 3.56,0 6.44,2.88 6.44,6.44 0,2.26 -1.19,4.36 -3.13,5.52 0.3,-1.13 0.61,-2.25 0.91,-3.38 -0.27,1.57 -1.1,2.99 -2.34,3.99l0.55 -3.37c-0.18,1.61 -1.1,3.05 -2.5,3.88l0.64 -2.36c-0.32,1.08 -0.74,2.15 -1.24,3.16 -0.55,0.63 -0.9,4.77 -2.8,4.9 -6.94,1.38 -7.81,-10.97 -6.26,-13.73z"/>
   <path class="fil7" d="M62.21 56.94c-0.02,0.17 -0.03,0.34 -0.03,0.5 0,0.88 0.24,1.75 0.7,2.51 0.73,1.18 1.81,0.73 2.2,-0.48 0.35,-1.1 0.39,-3 -0.63,-3.77 -1.02,-0.77 -2.09,-0.03 -2.25,1.23z"/>
   <path class="fil7" d="M46.69 96.62c-0.7,-0.23 -3.97,-1.92 -4.5,-1.61 1.51,-3.85 2.46,-4.45 3.14,-6.91 0.11,-0.37 0.17,-0.75 0.17,-1.13 0,-0.9 -0.32,-1.77 -0.91,-2.45 -0.97,-1.3 -1.3,-1.95 -2.91,-1.79 -2.2,3.7 -5,8.26 -6.09,12.44 -0.37,1.4 -0.63,2.47 0.2,3.66 0.74,1.05 2.1,1.46 3.37,1.58 3.07,0.28 7.62,-0.29 7.56,-2.11 -0.03,-1.15 -0.04,-1.67 -0.04,-1.67z"/>
   <path class="fil7" d="M46.17 96.48l2.6 -0.84 -0.23 4.7c0,0 -2.08,0.07 -3.19,-1.32l0.83 -2.53z"/>
   <polygon class="fil7" points="52.02,95.56 51.65,99.44 48.54,100.34 48.77,95.64 "/>
   <path class="fil7" d="M81.81 99.82c0,0 -3.64,-2.85 -8.38,-12.21 -0.7,-1.31 -1.38,-2.64 -2.03,-3.97 -0.65,-1.33 -1.27,-2.66 -1.86,-4.08l5.63 -2.42c1.16,2.52 2.96,5.13 4.24,7.63 1.28,2.5 4.29,8.44 4.67,8.99 0.19,0.29 0.39,0.52 0.58,0.79l0.29 0.39 -3.63 4.19 0.49 0.69z"/>
   <path class="fil7" d="M86.57 81.55l-1.1 -1.34 -0.52 -2.01 3.4 -3.15c0.52,0.66 0.98,1.37 1.38,2.1 0.08,0.16 0.12,0.33 0.12,0.5 0,0.02 -0,0.03 -0,0.05l-0.14 3.54 -3.14 0.31z"/>
   <polygon class="fil13" points="84.98,76.03 87.52,73.73 88.32,75.07 84.93,78.21 "/>
   <path class="fil7" d="M86.62 80.58c0.09,-0.38 0.17,0.36 0.42,0.07 0.75,-0.9 1.84,-1 2.49,0 0.65,1 0.09,10.8 -0.94,13.88 -0.69,2.04 -1.06,3.67 -2.82,4.92 -0.71,0.55 -1.58,0.86 -2.48,0.89 -0.01,0 -0.02,0 -0.03,0 -0.9,0 -1.73,-0.52 -2.12,-1.33 -0.55,-1.28 1.42,-5.91 2.11,-7.4 2.17,-4.7 2.32,-6.58 3.36,-11.02z"/>
   <path class="fil0" d="M79.34 80.16l4.5 -0.04c0.09,0.01 0.19,0.01 0.28,0.01 0.55,0 1.09,-0.1 1.6,-0.31 0.73,-0.43 1.28,-1.11 1.54,-1.92 0.64,-1.65 0.69,-3.42 0.94,-5.15 0.25,-1.73 0.78,-3.55 2.09,-4.71 -2.39,0.32 -6.61,-0.43 -8.45,1.53 -0.97,1.04 -2.68,10.6 -2.49,10.6z"/>
   <path class="fil2" d="M79.34 80.16l4.5 -0.04c0.09,0.01 0.19,0.01 0.28,0.01 0.55,0 1.09,-0.1 1.6,-0.31 0.73,-0.43 1.28,-1.11 1.54,-1.92 0.64,-1.65 0.69,-3.42 0.94,-5.15 0.25,-1.73 0.78,-3.55 2.09,-4.71 -2.39,0.32 -6.61,-0.43 -8.45,1.53 -0.97,1.04 -2.68,10.6 -2.49,10.6z"/>
   <path class="fil7" d="M87.04 73.48l0 0c-0.26,0.07 -0.43,0.99 -0.37,1.26l0.25 0.45 0.51 2.2 1.72 -0.95 -1.55 -2.75c-0.09,-0.14 -0.25,-0.23 -0.42,-0.23 -0.05,0 -0.09,0.01 -0.14,0.02l-0 0z"/>
   <path class="fil0" d="M48.24 71.05c-4.02,0.92 -9.96,13.44 -9.96,13.44l8.07 5.5c2.31,-3.3 4.43,-6.79 6.27,-10.37 2.39,-4.99 -0.27,-9.52 -4.37,-8.58z"/>
   <path class="fil8" d="M54.11 71.35c-0.46,-1.01 -0.96,-2.16 0.08,-2.52 1.15,-0.4 7.45,-0.8 9.62,-0.06 0.97,0.26 1.65,1.15 1.65,2.16 0,0.2 -0.03,0.4 -0.08,0.6l0 0.04 -11.26 -0.21z"/>
   <path class="fil10" d="M50.72 78.28l-5.73 10.79 1.35 0.92c0,0 2.6,-3.62 4.4,-6.74l-0.02 -4.97z"/>
   <path class="fil0" d="M72.67 76.56c0.87,4.4 -1.16,14.86 -1.14,31.93l-22.91 0c-0.15,-3.45 2.36,-11.62 -0.76,-27.89 -0.1,-0.55 -0.14,-9.44 0.39,-9.53 2.21,-0.38 4.46,-0.66 6.71,-0.79 1.61,-0.09 3.25,-0.14 4.87,-0.14 1.62,0 3.26,0.05 4.88,0.14 1.33,0.14 3.41,0.96 4.73,1.43 2.05,0.72 2.82,2.69 3.24,4.85z"/>
   <path class="fil10" d="M66.61 80.94c0.59,3.62 2.97,8.4 5.33,11.2 0.09,-2.05 0.3,-4.2 0.3,-5.85l-5.63 -5.36z"/>
   <path class="fil0" d="M64.96 75.5c-0.55,4.06 7.43,14.41 7.43,14.41l8.03 -5.51c0,0 -2.23,-5.71 -5.98,-9.45 -4.26,-4.28 -8.84,-3.86 -9.49,0.55z"/>
   <polygon class="fil7" points="91.23,165.3 95.51,165.3 96.49,155.38 92.21,155.38 "/>
   <polygon class="fil7" points="74.34,165.3 78.62,165.3 80.77,155.38 76.49,155.38 "/>
   <path class="fil8" d="M95.76 163.38l-4.67 0c-0.2,0.02 -0.35,0.18 -0.37,0.39l-0.85 4.9c-0.02,0.07 -0.03,0.14 -0.03,0.21 0,0.33 0.19,0.63 0.49,0.76 0.03,0 0.05,0.01 0.08,0.01 0.03,0 0.05,-0 0.08,-0.01 1.68,-0.03 4.12,-0.17 6.24,-0.17 2.48,0 4.62,0.17 7.53,0.17 1.76,0 2.25,-2.3 1.51,-2.5 -3.35,-0.95 -6.09,-1.05 -8.98,-3.36 -0.29,-0.24 -0.65,-0.38 -1.03,-0.39l-0 0z"/>
   <path class="fil0" d="M99.16 164.97c0.55,0 1.1,-0.08 1.26,-0.32 0.05,-0.07 0.07,-0.14 0.07,-0.22 0,-0.08 -0.02,-0.16 -0.07,-0.22 -0.07,-0.12 -0.19,-0.2 -0.32,-0.24 -0.72,-0.19 -2.2,0.66 -2.27,0.7 -0.03,0.02 -0.05,0.05 -0.05,0.08 0,0.01 0,0.01 0,0.02 0.01,0.04 0.04,0.07 0.08,0.08 0.42,0.08 0.86,0.12 1.29,0.12 0,0 0.01,0 0.01,0l0 0zm0.68 -0.83l0.19 0c0.08,0.02 0.16,0.07 0.2,0.14 0.07,0.13 0.05,0.19 0,0.22 -0.2,0.28 -1.28,0.29 -2.08,0.17 0.52,-0.28 1.1,-0.47 1.69,-0.54l-0 0.01z"/>
   <path class="fil0" d="M97.87 164.85l0.04 0c0.52,-0.23 1.54,-1.16 1.46,-1.65 0,-0.12 -0.1,-0.25 -0.37,-0.29 -0.02,-0 -0.04,-0 -0.06,-0 -0.18,0 -0.35,0.06 -0.49,0.18 -0.55,0.45 -0.66,1.6 -0.67,1.65 -0,0 -0,0.01 -0,0.01 0,0.03 0.01,0.06 0.04,0.08 0.01,0.01 0.03,0.02 0.05,0.02l-0 0zm1.05 -1.73l0.06 0c0.18,0 0.19,0.09 0.2,0.12 0.05,0.29 -0.65,1.02 -1.18,1.33 0.04,-0.48 0.24,-0.94 0.55,-1.32 0.1,-0.08 0.23,-0.13 0.37,-0.13l-0 0z"/>
   <path class="fil8" d="M78.92 163.38l-4.81 0c-0.2,0.02 -0.35,0.19 -0.36,0.39l-0.85 4.9c-0.02,0.06 -0.02,0.13 -0.02,0.2 0,0.34 0.2,0.65 0.51,0.78 0.02,0 0.05,0 0.07,0 0.02,0 0.05,-0 0.07,-0 1.68,-0.03 2.5,-0.17 4.61,-0.17 1.3,0 2.97,0.17 4.77,0.17 1.8,0 2.03,-2.3 1.29,-2.5 -3.3,-0.94 -3.53,-2.2 -4.59,-3.46 -0.17,-0.19 -0.42,-0.3 -0.68,-0.3 -0.01,0 -0.01,0 -0.02,0l-0 0z"/>
   <path class="fil0" d="M81.44 165.51c0.06,0.01 0.12,0.01 0.19,0.01 0.31,0 0.6,-0.1 0.84,-0.29 0.05,-0.07 0.08,-0.15 0.08,-0.24 0,-0.09 -0.03,-0.17 -0.08,-0.24 -0.07,-0.12 -0.18,-0.21 -0.32,-0.24 -0.63,-0.15 -1.81,0.66 -1.86,0.69 -0.03,0.02 -0.04,0.06 -0.04,0.09 0,0 0,0.01 0,0.01 0.01,0.04 0.04,0.07 0.08,0.08 0.36,0.08 0.73,0.12 1.11,0.12 0,0 0.01,0 0.01,0l-0 0zm0.55 -0.81l0.12 0c0.08,0.01 0.15,0.06 0.19,0.13 0.09,0.17 0.04,0.24 0,0.26 -0.18,0.24 -1.06,0.24 -1.7,0.14 0.41,-0.28 0.89,-0.47 1.38,-0.55l0.01 0.02z"/>
   <path class="fil0" d="M80.38 165.4l0 0c0.45,-0.24 1.3,-1.18 1.21,-1.65 -0.03,-0.16 -0.17,-0.27 -0.32,-0.27 0,0 0,0 0,0 -0.02,-0 -0.04,-0 -0.06,-0 -0.14,0 -0.27,0.05 -0.37,0.13 -0.5,0.41 -0.6,1.65 -0.61,1.7 -0,0 -0,0 -0,0 0,0.04 0.02,0.07 0.05,0.09l0.1 0zm0.86 -1.73l0.04 0c0.13,0 0.14,0.08 0.15,0.1 0.06,0.28 -0.5,0.99 -0.94,1.33 0.03,-0.49 0.21,-0.95 0.51,-1.34 0.07,-0.06 0.15,-0.09 0.24,-0.09l-0 0z"/>
   <path class="fil8" d="M64.66 108.48c0,0 20.29,8.38 24.48,14.81 -2.49,16.37 -6.97,35.02 -6.97,35.02l-7.63 0c0,-8.06 0.7,-16.13 1.99,-24.09 1.1,-20.01 -34.91,0.69 -27.92,-25.75l16.05 0z"/>
   <path class="fil14" d="M78.69 122.29c-1.41,0.08 -2.84,0.25 -4.24,0.49l-4.44 0.68c2.28,1.92 4.71,3.7 7.24,5.3 1.54,0.97 3.21,1.91 5.02,1.92 2.04,0 7.56,-2.61 6.65,-5.32 -0.91,-2.71 -7.92,-3.16 -10.23,-3.06z"/>
   <path class="fil8" d="M71.53 108.48c0,0 18.75,2.42 29.09,8.31 3.18,1.81 2.75,7.63 2.65,11.46 -0.22,10.28 -2.2,20.46 -5.83,30.06l-6.38 0c0,0 0.32,-10.39 0.11,-27.15 -0.07,-5.03 -10.21,-6.68 -20.13,-7.27 -8.56,-0.54 -16.08,-5.89 -19.4,-13.8l-0.68 -1.62 20.56 0z"/>
   <path class="fil0" d="M98.99 156.61c0.03,0 -0.41,3.01 -0.41,3.01l-8.81 -0 -0.24 -2.69 9.46 -0.32z"/>
   <path class="fil0" d="M82.91 156.61c0.03,0 -0.81,3.01 -0.81,3.01l-8.81 -0 0.16 -2.69 9.46 -0.32z"/>
   <polygon class="fil0" points="59.25,123.67 52.93,170.2 51.79,170.04 56.66,123.32 "/>
   <polygon class="fil4" points="59.02,125.34 52.93,170.2 51.79,170.04 56.46,125.33 "/>
   <path class="fil0" d="M81.44 125.34l-35.78 0c0,-2.26 1.83,-4.09 4.09,-4.09l27.61 0c2.26,-0 4.08,1.83 4.08,4.08l0 0z"/>
   <path class="fil11" d="M81.44 125.34l-35.78 0c0,-2.26 1.83,-4.09 4.09,-4.09l27.61 0c2.26,-0 4.08,1.83 4.08,4.08l0 0z"/>
   <polygon class="fil0" points="47.32,125.33 41.92,170.57 43.08,170.57 49.92,125.33 "/>
   <polygon class="fil0" points="79.79,125.33 85.18,170.57 84.03,170.57 77.19,125.33 "/>
   <polygon class="fil4" points="79.79,125.33 85.18,170.57 84.03,170.57 77.19,125.33 "/>
   <polygon class="fil0" points="72.57,125.33 72.67,170.57 71.52,170.57 69.96,125.33 "/>
  </g>
 </g>
</svg>
