<?xml version="1.0" encoding="UTF-8"?>
<!DOCTYPE svg PUBLIC "-//W3C//DTD SVG 1.1//EN" "http://www.w3.org/Graphics/SVG/1.1/DTD/svg11.dtd">
<!-- Creator: CorelDRAW -->
<svg xmlns="http://www.w3.org/2000/svg" xml:space="preserve" width="5.09517in" height="6.12875in" version="1.1" style="shape-rendering:geometricPrecision; text-rendering:geometricPrecision; image-rendering:optimizeQuality; fill-rule:evenodd; clip-rule:evenodd"
viewBox="0 0 151.59 182.34"
 xmlns:xlink="http://www.w3.org/1999/xlink"
 xmlns:xodm="http://www.corel.com/coreldraw/odm/2003">
 <defs>
  <style type="text/css">
   <![CDATA[
    .fil3 {fill:black}
    .fil2 {fill:#FFFF66}
    .fil1 {fill:#0693FF}
    .fil0 {fill:#A9ABAE;fill-rule:nonzero;fill-opacity:0.611765}
   ]]>
  </style>
 </defs>
 <g id="Layer_x0020_1">
  <metadata id="CorelCorpID_0Corel-Layer"/>
  <g id="_1978942387360">
   <path class="fil0" d="M43.57 125.68l0 -12.86c0,-4.44 0.52,-8.61 1.55,-12.5 1.03,-3.89 2.7,-7.7 5,-11.43 2.3,-3.73 5.36,-7.5 9.17,-11.31 2.54,-2.7 4.56,-5.08 6.07,-7.14 1.51,-2.06 2.58,-4.01 3.21,-5.83 0.63,-1.83 0.95,-3.69 0.95,-5.6 0,-2.38 -0.6,-4.4 -1.79,-6.07 -1.19,-1.67 -2.94,-2.94 -5.24,-3.81 -2.3,-0.87 -5.2,-1.31 -8.69,-1.31 -6.98,0 -13.81,1.19 -20.48,3.57 -6.67,2.38 -13.25,6.03 -19.76,10.95l-13.57 -31.9c4.92,-3.97 10.52,-7.3 16.78,-10 6.27,-2.7 12.86,-4.8 19.76,-6.31 6.9,-1.51 13.77,-2.26 20.59,-2.26 10.95,0 20.59,1.75 28.93,5.24 8.33,3.49 14.8,8.37 19.4,14.64 4.6,6.27 6.9,13.61 6.9,22.02 0,4.76 -0.71,9.29 -2.14,13.57 -1.43,4.29 -3.73,8.45 -6.9,12.5 -3.17,4.05 -7.62,8.13 -13.33,12.26 -4.92,3.65 -8.77,6.98 -11.55,10 -2.78,3.02 -4.76,5.79 -5.95,8.33 -1.19,2.54 -2.02,5 -2.5,7.38l-1.43 7.86 -25 0zm-9.52 56.66l0 -43.33 44.05 0 0 43.33 -44.05 0z"/>
   <path class="fil1" d="M51.77 113.26c0,0 2.36,-36.57 12.72,-51.26 10.36,-14.68 37.89,-28.97 61.88,-14.55 23.99,14.42 27,33.17 24.51,55.58 -2.49,22.42 -1.84,62.92 -1.84,62.92l-56.5 0c0,0 0.36,-6.37 -0.45,-13.37 -0.81,-7 -8.55,-6.01 -12.64,-6.01 -4.09,0 -12.76,1.55 -16.91,-2.54 -4.15,-4.09 -2.17,-28.19 -2.17,-28.19l-8.6 -2.59z"/>
   <path class="fil2" d="M113.05 0c26.19,0 44.19,25.49 31.58,49.13 -7.82,14.66 -34.99,30.3 -34.99,30.3 0,0 5.71,-10.18 5.89,-19.44 -0.82,0.05 -1.64,0.07 -2.48,0.07 -19.54,0 -35.37,-13.44 -35.37,-30.03 0,-16.58 15.84,-30.03 35.37,-30.03z"/>
   <g>
    <circle class="fil3" cx="95.83" cy="30.16" r="3.14"/>
    <circle class="fil3" cx="113.22" cy="30.16" r="3.14"/>
    <circle class="fil3" cx="130.61" cy="30.16" r="3.14"/>
   </g>
  </g>
 </g>
</svg>
