<?xml version="1.0" encoding="UTF-8"?>
<!DOCTYPE svg PUBLIC "-//W3C//DTD SVG 1.1//EN" "http://www.w3.org/Graphics/SVG/1.1/DTD/svg11.dtd">
<!-- Creator: CorelDRAW -->
<svg xmlns="http://www.w3.org/2000/svg" xml:space="preserve" width="5.15017in" height="3.21266in" version="1.1" style="shape-rendering:geometricPrecision; text-rendering:geometricPrecision; image-rendering:optimizeQuality; fill-rule:evenodd; clip-rule:evenodd"
viewBox="0 0 199.13 124.22"
 xmlns:xlink="http://www.w3.org/1999/xlink"
 xmlns:xodm="http://www.corel.com/coreldraw/odm/2003">
 <defs>
  <style type="text/css">
   <![CDATA[
    .str4 {stroke:#0693FF;stroke-width:0.4;stroke-miterlimit:2.61313}
    .str0 {stroke:white;stroke-width:0.4;stroke-miterlimit:2.61313}
    .str5 {stroke:#263238;stroke-width:0.2;stroke-linecap:round;stroke-linejoin:round;stroke-miterlimit:2.61313}
    .str3 {stroke:white;stroke-width:0.6;stroke-linecap:round;stroke-linejoin:round;stroke-miterlimit:2.61313}
    .str6 {stroke:black;stroke-width:0.81;stroke-linecap:round;stroke-linejoin:round;stroke-miterlimit:2.61313}
    .str1 {stroke:white;stroke-width:0.4;stroke-miterlimit:2.61313;stroke-dasharray:2.127939 2.127939}
    .str2 {stroke:white;stroke-width:0.4;stroke-miterlimit:2.61313;stroke-dasharray:1.824253 1.824253}
    .fil10 {fill:none;fill-rule:nonzero}
    .fil23 {fill:#F8AC92}
    .fil24 {fill:#263238}
    .fil17 {fill:#F8AC92;fill-rule:nonzero}
    .fil21 {fill:#F5886C;fill-rule:nonzero}
    .fil3 {fill:#0693FF;fill-rule:nonzero}
    .fil0 {fill:#263238;fill-rule:nonzero}
    .fil20 {fill:#B97964;fill-rule:nonzero}
    .fil18 {fill:#EBB376;fill-rule:nonzero}
    .fil22 {fill:#FFFF66;fill-rule:nonzero}
    .fil5 {fill:white;fill-rule:nonzero}
    .fil15 {fill:#ADD6FF;fill-rule:nonzero}
    .fil19 {fill:white;fill-rule:nonzero;fill-opacity:0.101961}
    .fil6 {fill:black;fill-rule:nonzero;fill-opacity:0.101961}
    .fil8 {fill:black;fill-rule:nonzero;fill-opacity:0.200000}
    .fil1 {fill:white;fill-rule:nonzero;fill-opacity:0.200000}
    .fil16 {fill:black;fill-rule:nonzero;fill-opacity:0.301961}
    .fil9 {fill:#D2D3D5;fill-rule:nonzero;fill-opacity:0.400000}
    .fil13 {fill:black;fill-rule:nonzero;fill-opacity:0.400000}
    .fil2 {fill:white;fill-rule:nonzero;fill-opacity:0.400000}
    .fil11 {fill:white;fill-rule:nonzero;fill-opacity:0.501961}
    .fil4 {fill:white;fill-rule:nonzero;fill-opacity:0.600000}
    .fil7 {fill:white;fill-rule:nonzero;fill-opacity:0.701961}
    .fil14 {fill:white;fill-rule:nonzero;fill-opacity:0.901961}
    .fil12 {fill:#FFFF66;fill-rule:nonzero}
   ]]>
  </style>
 </defs>
 <g id="Layer_x0020_1">
  <metadata id="CorelCorpID_0Corel-Layer"/>
  <g id="_1978934971760">
   <g id="freepik--Ladder--inject-20">
    <polygon class="fil0" points="138.97,122.82 142.24,122.82 146.67,98.3 143.41,98.3 "/>
    <polygon class="fil1" points="138.97,122.82 142.24,122.82 146.67,98.3 143.41,98.3 "/>
    <polygon class="fil1" points="138.97,122.82 141.35,122.82 145.79,98.3 143.41,98.3 "/>
    <path class="fil0" d="M129.79 105.59l13.05 0c0,-0 0,-0 0,-0 0.39,0 0.71,-0.32 0.71,-0.71 0,-0 0,-0 0,-0l-0 0c0,-0 0,-0 0,-0 0,-0.39 -0.32,-0.71 -0.71,-0.71 -0,0 -0,0 -0,0l-13.05 0c-0,-0 -0,-0 -0,-0 -0.39,0 -0.71,0.32 -0.71,0.71 0,0 0,0 0,0l0 0c0,0 0,0 0,0 0,0.39 0.32,0.71 0.71,0.71 0,0 0,0 0,0l-0 0z"/>
    <path class="fil0" d="M128.34 113.81l13.05 0c0.4,-0 0.72,-0.33 0.72,-0.72 0,0 0,0 0,0l0 0c-0,-0.4 -0.32,-0.72 -0.72,-0.72l-13.05 0c-0.4,0 -0.72,0.32 -0.72,0.72l0 0c0,-0 0,-0 0,-0 0,0.4 0.32,0.72 0.72,0.72l-0 0z"/>
    <polygon class="fil0" points="125.65,122.82 128.92,122.82 133.36,98.3 130.09,98.3 "/>
    <polygon class="fil1" points="125.65,122.82 128.92,122.82 133.36,98.3 130.09,98.3 "/>
    <polygon class="fil1" points="125.65,122.82 128.03,122.82 132.47,98.3 130.09,98.3 "/>
    <polygon class="fil0" points="156,122.82 152.73,122.82 148.29,98.3 151.56,98.3 "/>
    <polygon class="fil2" points="156,122.82 152.73,122.82 148.29,98.3 151.56,98.3 "/>
    <polygon class="fil1" points="155.11,122.82 152.73,122.82 148.29,98.3 150.67,98.3 "/>
    <path class="fil0" d="M150.27 105.59l-13.05 0c-0.4,-0 -0.72,-0.32 -0.72,-0.72l0 0c0,-0.4 0.32,-0.72 0.72,-0.72l13.05 0c0.4,-0 0.72,0.32 0.72,0.72l0 0c-0,0.4 -0.32,0.72 -0.72,0.72l0 0z"/>
    <path class="fil0" d="M151.71 113.81l-13.05 0c0,-0 0,-0 0,-0 -0.4,0 -0.72,-0.32 -0.72,-0.72 0,-0 0,-0 0,-0l0 0c0,-0.4 0.32,-0.72 0.72,-0.72l13.05 0c0.4,-0 0.72,0.32 0.72,0.72l0 0c0,0 0,0 0,0 0,0.4 -0.32,0.72 -0.72,0.72 0,0 0,0 0,0l0 0z"/>
    <path class="fil1" d="M150.27 105.59l-13.05 0c-0.4,-0 -0.72,-0.32 -0.72,-0.72l0 0c0,-0.4 0.32,-0.72 0.72,-0.72l13.05 0c0.4,-0 0.72,0.32 0.72,0.72l0 0c-0,0.4 -0.32,0.72 -0.72,0.72l0 0z"/>
    <path class="fil1" d="M151.71 113.81l-13.05 0c0,-0 0,-0 0,-0 -0.4,0 -0.72,-0.32 -0.72,-0.72 0,-0 0,-0 0,-0l0 0c0,-0.4 0.32,-0.72 0.72,-0.72l13.05 0c0.4,-0 0.72,0.32 0.72,0.72l0 0c0,0 0,0 0,0 0,0.4 -0.32,0.72 -0.72,0.72 0,0 0,0 0,0l0 0z"/>
    <polygon class="fil0" points="142.68,122.82 139.42,122.82 134.98,98.3 138.24,98.3 "/>
    <polygon class="fil2" points="142.68,122.82 139.42,122.82 134.98,98.3 138.24,98.3 "/>
    <polygon class="fil1" points="141.79,122.82 139.42,122.82 134.98,98.3 137.35,98.3 "/>
    <path class="fil0" d="M129.26 97.13l23.57 0c0.29,-0 0.53,0.24 0.53,0.53l-0 1.28c0,0.29 -0.24,0.53 -0.53,0.53l-23.57 0c-0.29,-0 -0.53,-0.24 -0.53,-0.53l0 -1.28c0,-0.29 0.24,-0.53 0.53,-0.53z"/>
    <path class="fil1" d="M129.26 97.13l8.96 0c0.29,-0 0.53,0.24 0.53,0.53l0 1.28c0,0.29 -0.24,0.53 -0.53,0.53l-8.96 0c-0.29,-0 -0.53,-0.24 -0.53,-0.53l0 -1.28c0,-0.29 0.24,-0.53 0.53,-0.53z"/>
   </g>
   <g id="freepik--Screen--inject-20">
    <rect class="fil3" x="47" y="103.12" width="29.81" height="19.39"/>
    <polygon class="fil4" points="47,122.5 76.81,122.5 76.81,103.12 47,103.12 "/>
    <rect class="fil3" x="48.09" y="106.75" width="27.63" height="14.78"/>
    <rect class="fil5" x="50.34" y="108.96" width="20.44" height="0.63"/>
    <rect class="fil5" x="50.34" y="110.91" width="9.81" height="0.63"/>
    <rect class="fil5" x="50.34" y="112.86" width="12.35" height="0.63"/>
    <rect class="fil5" x="50.34" y="114.8" width="4.35" height="0.63"/>
    <rect class="fil5" x="50.34" y="116.75" width="2.82" height="0.63"/>
   </g>
   <polygon class="fil3" points="113.65,122.82 89.38,122.82 93.49,90.56 109.54,90.56 "/>
   <polygon class="fil4" points="113.65,122.82 89.38,122.82 92.19,100.75 93.49,90.56 109.54,90.56 111.45,105.59 "/>
   <polygon class="fil6" points="111.45,105.59 92.19,100.75 93.49,90.56 109.54,90.56 "/>
   <path class="fil3" d="M158.72 11.02l-114.42 0c0,0 0,0 0,0 -1.62,0 -2.93,1.31 -2.93,2.93 0,0 0,0 0,0l-0 77.46c0,1.62 1.31,2.93 2.93,2.93l114.42 0c1.62,-0 2.93,-1.31 2.93,-2.93l0 -77.45c0,-0 0,-0.01 0,-0.01 0,-1.62 -1.31,-2.93 -2.93,-2.93 0,0 0,0 0,0z"/>
   <path class="fil7" d="M158.72 11.02l-114.42 0c0,0 0,0 0,0 -1.62,0 -2.93,1.31 -2.93,2.93 0,0 0,0 0,0l-0 77.46c0,1.62 1.31,2.93 2.93,2.93l114.42 0c1.62,-0 2.93,-1.31 2.93,-2.93l0 -77.45c0,-0 0,-0.01 0,-0.01 0,-1.62 -1.31,-2.93 -2.93,-2.93 0,0 0,0 0,0z"/>
   <rect class="fil3" x="45.23" y="13.88" width="112.56" height="74.69"/>
   <path class="fil3" d="M81.13 120.4l40.76 0c0.26,-0 0.46,0.21 0.46,0.46l-0 1.46c0,0.25 -0.21,0.46 -0.46,0.46l-40.76 0c-0.25,0 -0.46,-0.21 -0.46,-0.46l-0 -1.46c0,-0.26 0.21,-0.46 0.46,-0.46z"/>
   <path class="fil7" d="M81.13 120.4l40.76 0c0.26,-0 0.46,0.21 0.46,0.46l-0 1.46c0,0.25 -0.21,0.46 -0.46,0.46l-40.76 0c-0.25,0 -0.46,-0.21 -0.46,-0.46l-0 -1.46c0,-0.26 0.21,-0.46 0.46,-0.46z"/>
   <polygon class="fil8" points="45.23,25.09 157.8,25.09 157.8,13.95 45.23,13.95 "/>
   <polygon class="fil9" points="45.23,88.57 93.47,88.57 93.47,25.22 45.23,25.22 "/>
   <g>
    <polyline class="fil10 str0" points="142,35.51 142,36.26 141.25,36.26 "/>
    <line class="fil10 str1" x1="139.66" y1="36.26" x2="114.95" y2= "36.26" />
    <polyline class="fil10 str0" points="114.15,36.26 113.39,36.26 113.39,35.51 "/>
    <line class="fil10 str2" x1="113.39" y1="34.14" x2="113.39" y2= "21.16" />
    <polyline class="fil10 str0" points="113.39,20.48 113.39,19.72 114.15,19.72 "/>
    <line class="fil10 str1" x1="115.74" y1="19.72" x2="140.45" y2= "19.72" />
    <polyline class="fil10 str0" points="141.25,19.72 142,19.72 142,20.48 "/>
    <line class="fil10 str2" x1="142" y1="21.84" x2="142" y2= "34.83" />
    <rect class="fil3 str0" x="141.53" y="19.24" width="0.96" height="0.96"/>
    <rect class="fil3 str0" x="141.53" y="35.78" width="0.96" height="0.96"/>
    <rect class="fil3 str0" x="112.91" y="19.24" width="0.96" height="0.96"/>
    <rect class="fil3 str0" x="112.91" y="35.78" width="0.96" height="0.96"/>
    <rect class="fil3 str0" x="127.22" y="19.24" width="0.96" height="0.96"/>
    <rect class="fil3 str0" x="127.22" y="35.78" width="0.96" height="0.96"/>
    <rect class="fil3 str0" x="141.53" y="27.51" width="0.96" height="0.96"/>
    <rect class="fil3 str0" x="112.91" y="27.51" width="0.96" height="0.96"/>
   </g>
   <path class="fil7" d="M126.35 26.33l10.3 0c0.46,-0 0.84,0.38 0.84,0.84l-0 2.76c0,0.46 -0.38,0.84 -0.84,0.84l-10.3 -0c-0.46,0 -0.84,-0.38 -0.84,-0.84l0 -2.76c0,-0.46 0.38,-0.84 0.84,-0.84z"/>
   <path class="fil7" d="M108.59 26.33l10.3 0c0.46,-0 0.84,0.38 0.84,0.84l0 2.76c0,0.46 -0.38,0.84 -0.84,0.84l-10.3 -0c-0.46,0 -0.84,-0.38 -0.84,-0.84l0 -2.76c0,-0.46 0.38,-0.84 0.84,-0.84z"/>
   <path class="fil7" d="M85.73 80.3l10.3 0c0.46,-0 0.84,0.38 0.84,0.84l-0 2.76c0,0.46 -0.38,0.84 -0.84,0.84l-10.3 0c-0.46,0 -0.84,-0.38 -0.84,-0.84l-0 -2.76c0,-0.46 0.38,-0.84 0.84,-0.84z"/>
   <g>
    <line class="fil10 str3" x1="150.37" y1="17.91" x2="154.11" y2= "17.91" />
    <line class="fil10 str3" x1="150.37" y1="19.69" x2="154.11" y2= "19.69" />
    <line class="fil10 str3" x1="150.37" y1="21.47" x2="154.11" y2= "21.47" />
   </g>
   <polygon class="fil11" points="52.87,72.8 90.62,72.8 90.62,35.04 52.87,35.04 "/>
   <line class="fil10 str4" x1="68.67" y1="38.13" x2="68.67" y2= "70.7" />
   <path class="fil10 str4" d="M84.95 70.7l0 0c-8.99,-0 -16.29,-7.29 -16.29,-16.29l-0 0c0,-8.99 7.29,-16.28 16.28,-16.28l-0 0"/>
   <rect class="fil5 str4" x="84.25" y="37.42" width="1.41" height="1.41"/>
   <rect class="fil5 str4" x="84.25" y="69.99" width="1.41" height="1.41"/>
   <rect class="fil5 str4" x="67.97" y="53.71" width="1.41" height="1.41"/>
   <path class="fil5 str4" d="M69.03 38.13c0,0.2 -0.16,0.36 -0.36,0.36 -0.2,0 -0.36,-0.16 -0.36,-0.36 0,-0.2 0.16,-0.36 0.36,-0.36 0.2,0 0.36,0.16 0.36,0.36l-0 0z"/>
   <path class="fil5 str4" d="M69.03 70.7c0,0.2 -0.16,0.36 -0.36,0.36 -0.2,0 -0.36,-0.16 -0.36,-0.36 0,-0.2 0.16,-0.36 0.36,-0.36 0,0 0,0 0,0 0.2,0 0.36,0.16 0.36,0.36 0,0 0,0 0,0l-0 0z"/>
   <path class="fil12" d="M131.23 80.84l-11.43 0c-1.82,-0 -3.3,-1.48 -3.3,-3.3l0 0c0,-1.82 1.48,-3.3 3.3,-3.3l11.43 0c1.82,-0 3.3,1.48 3.3,3.3l0 0c0,1.82 -1.48,3.3 -3.3,3.3l0 0z"/>
   <path class="fil12" d="M141.27 52.67l-35.31 0c-0.4,-0 -0.72,-0.32 -0.72,-0.72l0 0c0.01,-0.39 0.33,-0.71 0.72,-0.71 0,0 0,0 0,0l35.31 0c0,-0 0,-0 0,-0 0.4,0 0.72,0.32 0.72,0.72 0,0 0,0 0,0l0 0c-0.01,0.39 -0.33,0.71 -0.72,0.71l-0 0z"/>
   <path class="fil12" d="M141.27 57.94l-35.31 0c-0,-0 -0,-0 -0,-0 -0.4,0 -0.72,-0.32 -0.72,-0.72 0,0 0,0 0,0l0 0c-0,-0.4 0.32,-0.72 0.72,-0.72l35.31 0c0.4,-0 0.72,0.32 0.72,0.72l0 0c-0,0.4 -0.32,0.72 -0.72,0.72l0 0z"/>
   <path class="fil12" d="M141.27 63.23l-22 0c0,-0 0,-0 0,-0 -0.4,0 -0.72,-0.32 -0.72,-0.72l0 0c-0,-0.4 0.32,-0.72 0.72,-0.72l21.99 0c0.4,-0 0.72,0.32 0.72,0.72l0 0c-0,0.4 -0.32,0.72 -0.72,0.72l0 0z"/>
   <polygon class="fil13" points="48.79,19.53 51.28,19.53 51.28,17.04 48.79,17.04 "/>
   <path class="fil13" d="M54.28 17.04l1.22 0c0.35,0 0.64,0.29 0.64,0.64l-0 1.22c0,0.35 -0.29,0.64 -0.64,0.64l-1.22 0c-0.35,0 -0.64,-0.29 -0.64,-0.64l-0 -1.22c0,-0.35 0.29,-0.64 0.64,-0.64z"/>
   <path class="fil13" d="M59.63 17.04l0.21 0c0.63,-0 1.14,0.51 1.14,1.14l-0 0.21c0,0.63 -0.51,1.14 -1.14,1.14l-0.21 0c-0.63,0 -1.14,-0.51 -1.14,-1.14l-0 -0.21c0,-0.63 0.51,-1.14 1.14,-1.14z"/>
   <path class="fil14" d="M56.43 78.54l0 -0.97 -0.5 -0.04c-0.07,-0.32 -0.2,-0.62 -0.37,-0.89l0.32 -0.39 -0.69 -0.69 -0.39 0.32c-0.27,-0.18 -0.57,-0.3 -0.89,-0.37l-0.04 -0.5 -0.97 0 -0.05 0.5c-0.31,0.07 -0.62,0.2 -0.89,0.37l-0.39 -0.32 -0.69 0.69 0.32 0.39c-0.18,0.27 -0.31,0.57 -0.37,0.89l-0.5 0.04 0 0.97 0.5 0.05c0.07,0.32 0.19,0.62 0.37,0.89l-0.32 0.39 0.69 0.68 0.39 -0.32c0.27,0.18 0.57,0.31 0.89,0.37l0.05 0.5 0.97 0 0.04 -0.5c0.32,-0.07 0.62,-0.19 0.89,-0.37l0.39 0.32 0.69 -0.68 -0.32 -0.39c0.18,-0.27 0.3,-0.57 0.37,-0.89l0.5 -0.05zm-3.06 0.83c-0.74,-0 -1.33,-0.6 -1.33,-1.33 0,-0.74 0.6,-1.33 1.33,-1.33 0.74,0 1.33,0.6 1.33,1.33 0,0.74 -0.6,1.33 -1.33,1.33l-0 0z"/>
   <path class="fil4" d="M60.38 81.29l0 -0.75 -0.39 -0.04c-0.05,-0.25 -0.15,-0.49 -0.29,-0.7l0.25 -0.31 -0.54 -0.54 -0.3 0.25c-0.21,-0.14 -0.45,-0.24 -0.71,-0.29l-0.04 -0.4 -0.76 0 -0.04 0.4c-0.25,0.05 -0.49,0.15 -0.71,0.29l-0.3 -0.25 -0.54 0.54 0.25 0.31c-0.14,0.21 -0.24,0.45 -0.29,0.7l-0.39 0.04 0 0.76 0.39 0.04c0.05,0.25 0.15,0.49 0.29,0.7l-0.25 0.31 0.54 0.54 0.3 -0.25c0.21,0.14 0.45,0.24 0.71,0.29l0.04 0.39 0.76 0 0.04 -0.39c0.25,-0.05 0.49,-0.15 0.71,-0.29l0.3 0.25 0.54 -0.54 -0.25 -0.31c0.14,-0.21 0.24,-0.45 0.29,-0.7l0.39 -0.05zm-2.4 0.65c-0,-0 -0,-0 -0,-0 -0.57,0 -1.03,-0.46 -1.03,-1.03 0,-0.57 0.46,-1.03 1.03,-1.03 0.57,0 1.03,0.46 1.03,1.03 -0,0 -0,0 -0,0 0,0.57 -0.46,1.03 -1.03,1.03 0,0 0,0 0,0l-0 0z"/>
   <path class="fil2" d="M56.43 83.45l0 -0.64 -0.33 -0.03c-0.04,-0.21 -0.13,-0.41 -0.24,-0.59l0.21 -0.25 -0.44 -0.44 -0.26 0.21c-0.18,-0.12 -0.38,-0.2 -0.59,-0.24l-0.03 -0.33 -0.65 0 -0.03 0.33c-0.21,0.04 -0.41,0.13 -0.59,0.24l-0.26 -0.21 -0.44 0.44 0.21 0.25c-0.12,0.18 -0.2,0.38 -0.24,0.59l-0.33 0.03 0 0.64 0.33 0.03c0.04,0.21 0.13,0.41 0.24,0.59l-0.21 0.25 0.44 0.44 0.26 -0.21c0.18,0.12 0.38,0.21 0.59,0.25l0.03 0.33 0.64 0 0.03 -0.33c0.21,-0.04 0.41,-0.13 0.59,-0.25l0.26 0.21 0.44 -0.44 -0.21 -0.25c0.12,-0.18 0.2,-0.38 0.24,-0.59l0.34 -0.03zm-2.01 0.55c-0.47,-0.01 -0.84,-0.4 -0.84,-0.87 0,-0.48 0.39,-0.87 0.87,-0.87 0.48,0 0.87,0.39 0.87,0.87 0,0 0,0 0,0 0,0.48 -0.39,0.87 -0.87,0.87 -0.01,0 -0.01,-0 -0.02,-0l-0 0z"/>
   <polygon class="fil15" points="141.08,17.53 142.96,22.57 144.18,21.34 144.97,22.13 145.67,21.42 144.89,20.64 146.11,19.42 "/>
   <path class="fil0" d="M63.1 35.89l4.74 1.78 -2.48 -2.48c-0.07,0.04 -0.16,0.06 -0.24,0.06 -0.13,0 -0.25,-0.05 -0.34,-0.14 -0.09,-0.09 -0.14,-0.22 -0.14,-0.35 0,-0.27 0.22,-0.49 0.49,-0.49 0.13,0 0.25,0.05 0.35,0.14 0.09,0.09 0.14,0.21 0.14,0.34 0,0.08 -0.02,0.17 -0.06,0.24l2.48 2.48 -1.78 -4.74 -1.57 0.35 -0.06 -0.56 -0.3 -0.3 -1.74 1.74 0.3 0.3 0.57 0.06 -0.35 1.57z"/>
   <path class="fil1" d="M63.1 35.89l4.74 1.78 -2.48 -2.48c-0.07,0.04 -0.16,0.06 -0.24,0.06 -0.13,0 -0.25,-0.05 -0.34,-0.14 -0.09,-0.09 -0.14,-0.22 -0.14,-0.35 0,-0.27 0.22,-0.49 0.49,-0.49 0.13,0 0.25,0.05 0.35,0.14 0.09,0.09 0.14,0.21 0.14,0.34 0,0.08 -0.02,0.17 -0.06,0.24l2.48 2.48 -1.78 -4.74 -1.57 0.35 -0.06 -0.56 -0.3 -0.3 -1.74 1.74 0.3 0.3 0.57 0.06 -0.35 1.57z"/>
   <path class="fil0" d="M186.7 30.38c1.58,1.82 9.59,17.26 8.04,20.86 -1.55,3.6 -14.4,-0.55 -14.4,-0.55l0.77 -5.09c0,0 4.99,0.18 5.47,-0.3 0.48,-0.48 -6.75,-7.69 -6.75,-7.69l6.87 -7.23z"/>
   <path class="fil8" d="M193.81 52.18l0 0 -0.26 0.12 -0.04 0c-0.08,0.03 -0.16,0.06 -0.24,0.08 -0.36,0.12 -0.73,0.19 -1.11,0.23l-0.32 0.03c-0.16,0 -0.32,0.02 -0.48,0.03l-0.44 0c-4.31,0 -10.57,-2.02 -10.57,-2.02l0.77 -5.09c0,0 5.62,0.47 6.1,0 0.09,-0.19 -0.53,-0.82 -1.45,-1.62l0 0c-1.41,-1.74 -4.24,-4.63 -5.41,-5.81l3.25 -3.47 2.47 -0.27c0,0 5.47,8.86 7.74,17.79z"/>
   <path class="fil0" d="M170.5 29.86c-0.89,0.64 -1.33,1.56 -0.98,2.04l23.46 32.34c0.35,0.48 1.36,0.35 2.25,-0.29 0.89,-0.64 1.33,-1.56 0.98,-2.04l-23.46 -32.34c-0.35,-0.48 -1.35,-0.35 -2.25,0.3z"/>
   <path class="fil7" d="M172.75 29.56l23.46 32.34c0.35,0.48 -0.09,1.39 -0.98,2.04 -0.89,0.65 -1.9,0.77 -2.24,0.29l-23.46 -32.34c-0.08,-0.14 -0.12,-0.31 -0.12,-0.47 0,-0.22 0.07,-0.43 0.2,-0.6 0.12,-0.21 0.27,-0.41 0.44,-0.58 0.14,-0.14 0.28,-0.27 0.44,-0.38 0.89,-0.64 1.9,-0.77 2.25,-0.29z"/>
   <path class="fil16" d="M196.21 61.9c0.35,0.48 -0.09,1.39 -0.98,2.04 -0.89,0.65 -1.9,0.77 -2.24,0.29 -0.2,-0.27 0.29,-0.67 0.57,-1.25l-23.95 -32.16c0.12,-0.21 0.27,-0.41 0.44,-0.58l23.46 32.34c0.14,-0.14 0.29,-0.27 0.44,-0.39 0.89,-0.65 1.89,-0.78 2.24,-0.3z"/>
   <path class="fil3" d="M167.6 28.96c-0.75,0.8 -1.01,1.78 -0.57,2.19l29.17 27.31c0.44,0.41 1.4,0.09 2.15,-0.71 0.75,-0.8 1.01,-1.78 0.57,-2.19l-29.17 -27.31c-0.44,-0.4 -1.4,-0.08 -2.15,0.72z"/>
   <path class="fil7" d="M169.75 28.24l29.17 27.31c0.44,0.4 0.18,1.39 -0.57,2.19 -0.75,0.8 -1.71,1.12 -2.15,0.71l-29.17 -27.31c-0.14,-0.18 -0.22,-0.4 -0.22,-0.63 0,-0.15 0.03,-0.3 0.1,-0.44 0.08,-0.23 0.19,-0.45 0.33,-0.66 0.11,-0.16 0.23,-0.31 0.36,-0.44 0.75,-0.81 1.71,-1.14 2.15,-0.73z"/>
   <path class="fil16" d="M198.91 55.55c0.44,0.4 0.18,1.39 -0.57,2.19 -0.75,0.8 -1.71,1.12 -2.15,0.71 -0.24,-0.23 0.16,-0.71 0.33,-1.33l-29.61 -27.04c0.08,-0.23 0.19,-0.45 0.33,-0.66l29.17 27.31c0.11,-0.16 0.23,-0.31 0.36,-0.44 0.75,-0.83 1.71,-1.15 2.15,-0.74z"/>
   <path class="fil17" d="M174.61 116.1l-2.22 0.04c-2.26,-10.61 -3.86,-23.75 -4.85,-33.66 -0.16,-1.55 -0.3,-3.02 -0.44,-4.39 -0.06,-0.65 -0.12,-1.28 -0.17,-1.88 -0.27,-2.98 -0.44,-5.33 -0.56,-6.8 -0.08,-1.07 -0.12,-1.65 -0.12,-1.65l8.07 0 -0.08 2.05 -0.27 6.75 -0.03 0.77 -0.17 4.46 -0.28 7.6c2.76,10.7 1.11,26.72 1.11,26.72z"/>
   <path class="fil17" d="M192.63 115.53l-2.19 0.41c-4.38,-10.95 -8.5,-24.98 -11.17,-34.77 -0.41,-1.52 -0.79,-2.94 -1.14,-4.23 0,-0.07 -0.03,-0.13 -0.05,-0.19 -0.67,-2.56 -1.19,-4.59 -1.52,-5.89l-0.39 -1.57 7.9 -1.37 0.44 3.33 0.66 4.88 0.13 0.96 0.44 3.33 1.2 8.94c4.56,10.08 5.67,26.15 5.67,26.15z"/>
   <path class="fil8" d="M185.21 76.16l-7.08 0.79c0,-0.07 -0.03,-0.13 -0.05,-0.19 -0.67,-2.56 -1.19,-4.59 -1.52,-5.89l7.99 0.4 0.65 4.89z"/>
   <path class="fil8" d="M174.22 69.8l-0.25 6.75 -0.03 0.77 -6.84 0.76c-0.06,-0.65 -0.12,-1.28 -0.17,-1.88 -0.27,-2.98 -0.44,-5.33 -0.56,-6.8l7.84 0.4z"/>
   <path class="fil0" d="M168.04 123.48c0.41,-0.34 0.88,-0.6 1.39,-0.76l-0 0c0,0 1.51,-1.5 2.25,-6.02l1.98 -0.52c0.13,-0.03 0.26,-0.05 0.39,-0.05 0.57,0 1.09,0.28 1.41,0.75 0.05,0.08 0.1,0.17 0.12,0.26 0.1,0.48 0.18,0.98 0.21,1.47 0.06,0.9 0.09,1.83 0.09,2.74 0,0.74 -0.02,1.49 -0.06,2.23l-0.36 -0 -0.14 -3.11c-0.05,-1.06 -0.87,0.18 -1.1,1.33 -0.23,1.15 -0.72,2.35 -3.04,2.41 -2.71,0.04 -3.83,-0.07 -3.15,-0.73z"/>
   <path class="fil0" d="M175.53 116.94c0.13,-1.06 0.17,-2.89 0.17,-2.89l-4.4 0.49c0,0 0.53,2.09 0.09,3.66 2.22,-0.61 4.14,-1.26 4.14,-1.26z"/>
   <path class="fil0" d="M185.96 123.48c0.41,-0.33 0.89,-0.59 1.39,-0.76l-0 0c0,0 1.51,-1.5 2.24,-6.02l1.98 -0.52c0.13,-0.03 0.26,-0.05 0.39,-0.05 0.57,0 1.09,0.28 1.41,0.75 0.05,0.08 0.1,0.17 0.12,0.26 0.1,0.48 0.18,0.98 0.21,1.47 0.06,0.89 0.09,1.8 0.09,2.7 0,0.75 -0.02,1.52 -0.06,2.27l-0.34 -0 -0.14 -3.11c-0.05,-1.06 -0.87,0.18 -1.1,1.33 -0.23,1.15 -0.72,2.35 -3.05,2.41 -2.72,0.04 -3.84,-0.07 -3.16,-0.73z"/>
   <path class="fil0" d="M193.45 116.94c0.13,-1.06 0.17,-2.89 0.17,-2.89l-4.4 0.49c0,0 0.53,2.09 0.09,3.66 2.22,-0.61 4.14,-1.26 4.14,-1.26z"/>
   <path class="fil3" d="M193.31 110.76l-6.35 0.6 -7.48 -22.14 -3.93 -20.46 -0.4 14.3 0.89 28.86 -6.17 0.13c-1.94,-11.37 -6.94,-43.5 -5.8,-54.01 0.86,-7.92 4.89,-12 4.89,-12l12.18 2.45c5.51,9.38 4.2,20.27 4.2,20.27l2.26 18.55 5.7 23.44z"/>
   <path class="fil10 str5" d="M174.44 16.81c0,0.92 -0.41,1.67 -0.89,1.67 -0.48,0 -0.91,-0.75 -0.91,-1.67 0,-0.92 0.41,-1.67 0.91,-1.67 0.51,0 0.89,0.75 0.89,1.67z"/>
   <path class="fil17" d="M180.46 22.39c-0.03,0.03 -0.07,0.06 -0.11,0.08 -0.51,0.39 -1.08,0.67 -1.7,0.83 -1.8,0.42 -3.03,0.17 -3.83,-0.64l0 0c-1.12,-1.22 -1.4,-3.38 -1.24,-5.99 0.03,-1.04 0.22,-2.07 0.57,-3.05 0.35,-0.98 0,-0.04 0,-0.05 0,-0.01 0.03,-0.08 0.04,-0.11 0.45,-1.12 1.43,-1.94 2.62,-2.17 0.5,-0.11 1.02,-0.17 1.54,-0.17 5.09,-0.04 6.01,8.39 2.11,11.28z"/>
   <path class="fil8" d="M180.35 22.48c-0.51,0.36 -1.09,0.62 -1.7,0.76 -1.8,0.42 -3.03,0.11 -3.83,-0.71 0.4,0.1 0.81,0.15 1.22,0.15 0.69,0 1.38,-0.14 2.01,-0.42 0.3,-0.11 0.61,-0.16 0.92,-0.16 0.49,0 0.97,0.13 1.38,0.39l0 0z"/>
   <path class="fil17" d="M180.87 27.08c0.32,1.45 -1.56,2.04 -1.56,2.04 -3.07,-1.33 -3.64,-2.94 -3.64,-2.94 2.56,-1.33 1.82,-5.11 1.82,-5.11l0.52 0.26 3.65 0.71c0,0 -1.01,1.94 -1.15,2.39 0,0 0,0 0,0 -0.69,2.33 0.35,2.65 0.35,2.65z"/>
   <path class="fil0" d="M174.14 13.59c0,0 -0.28,3.55 3.11,5.1 0,0 1.45,3.71 3.59,3.76 2.92,0.07 5.48,-4.07 4.47,-8.29 -1.32,-5.48 -9.62,-5.92 -11.17,-0.56z"/>
   <path class="fil18" d="M175.52 17.67c0,-0.55 0.44,-1.49 1.33,-1.36 0.89,0.13 1.39,2.34 -0.81,2.83 -0.33,0.07 -0.52,-0.3 -0.52,-1.47z"/>
   <path class="fil0" d="M180.35 9.8c0,0 -3.4,-0.86 -5.28,0.51 -2.2,1.6 -3.03,3.25 -0.44,5.82 0,0 5.71,-1.85 7.61,-1.46 1.11,0.22 2.2,0.54 3.26,0.95 0.41,-3.77 -3.24,-6.58 -5.14,-5.81z"/>
   <path class="fil0" d="M175.52 16.81c0,0 0.89,4.11 -0.51,7.62 0,0 8.08,2.8 10.89,1.28 2.81,-1.52 0.24,-6.63 0.12,-9.58 -0.12,-2.95 -1.4,-7.3 -5.67,-6.33 -4.28,0.98 -4.83,7.01 -4.83,7.01z"/>
   <line class="fil10 str5" x1="172.62" y1="16.55" x2="176.03" y2= "16.55" />
   <path class="fil8" d="M177.6 75.05l-0.32 0.04 -1.72 -6.31c0,0 3.69,-6.31 2.54,-9.59 0.16,0.23 4.14,6.13 -0.49,15.87z"/>
   <path class="fil0" d="M170.68 26.76c0,0 4.06,-1.45 10.18,0.32 6.12,1.77 6.35,4.37 6.35,4.37 0,0 -3.88,8.79 -4.49,18.75l-15.95 -0.59c0,0 -1.9,-14.05 3.91,-22.85z"/>
   <path class="fil0" d="M166.62 40.38c0.34,-4.4 1.38,-9.57 4.06,-13.62 2.88,0.18 4.29,2.28 4.3,4.34 0.01,2.06 -0.7,4.44 -4.56,7.1 -1.14,0.79 -2.45,1.54 -3.81,2.19z"/>
   <path class="fil8" d="M170.46 38.2c0,0 -0.66,4.05 -4,6.54 0,-0.2 -0,-0.42 -0,-0.63 0,-2.18 0.15,-4.36 0.45,-6.51l3.55 0.6z"/>
   <path class="fil17" d="M152.83 26.48l-2.01 -2.98c0,0 -0.31,-1.3 -0.7,-1.59 -0.39,-0.29 -4.25,-1.94 -4.72,-1.93 -0.47,0.01 -0.44,3.01 0,3.52 0.44,0.51 2.9,1.6 3.55,1.71 0.65,0.11 0.33,0 0.33,0l1.78 3.55 1.77 -2.28z"/>
   <path class="fil0" d="M174.79 26.2c0,0 1.42,10.14 5.9,10.55 4.49,0.41 6.5,-7.1 5.74,-7.99 -0.76,-0.89 -6.54,-2.62 -11.64,-2.56z"/>
   <path class="fil19" d="M174.79 26.2c0,0 1.42,10.14 5.9,10.55 4.49,0.41 6.5,-7.1 5.74,-7.99 -0.76,-0.89 -6.54,-2.62 -11.64,-2.56z"/>
   <polygon class="fil17" points="15.11,119.46 18.4,119.46 18.67,111.84 15.38,111.84 "/>
   <path class="fil0" d="M18.85 119.08l-4 0c-0,-0 -0,-0 -0.01,-0 -0.13,0 -0.25,0.09 -0.27,0.23l-0.65 2.93c-0.01,0.03 -0.01,0.07 -0.01,0.1 0,0.23 0.16,0.43 0.38,0.47l0.11 0c1.29,-0.02 2.22,-0.1 3.85,-0.1 1,0 4,0.11 5.4,0.11 1.4,0 1.56,-1.36 0.99,-1.49 -2.53,-0.55 -4.44,-1.33 -5.25,-2.05 -0.15,-0.13 -0.33,-0.2 -0.53,-0.2 -0.01,0 -0.01,0 -0.02,0l-0 0z"/>
   <path class="fil3" d="M19.08 119.54c-0.03,-0.01 -0.05,-0.03 -0.06,-0.07 -0,-0 -0,-0.01 -0,-0.01 0,-0.03 0.01,-0.05 0.04,-0.06 0.12,-0.08 1.18,-0.73 1.54,-0.54 0.08,0.04 0.13,0.12 0.13,0.21 0,0 0,0.01 -0,0.01 0,0.02 0.01,0.05 0.01,0.07 0,0.14 -0.06,0.26 -0.17,0.35 -0.16,0.11 -0.35,0.17 -0.55,0.17 -0.03,0 -0.06,-0 -0.08,-0 -0.29,-0.01 -0.58,-0.05 -0.86,-0.12l-0 0zm0.23 -0.11c0.16,0.06 0.34,0.08 0.51,0.08 0.23,0 0.45,-0.05 0.66,-0.14 0.07,-0.06 0.11,-0.15 0.11,-0.24 0,-0.01 -0,-0.03 -0,-0.04 0,-0.06 -0.03,-0.09 -0.05,-0.09 -0.03,-0.01 -0.06,-0.02 -0.09,-0.02 -0,0 -0.01,0 -0.01,0 -0.4,0.08 -0.78,0.23 -1.12,0.45l-0 0z"/>
   <path class="fil3" d="M19.06 119.55c-0.02,-0.02 -0.04,-0.04 -0.04,-0.07 0,-0 0,-0 0,-0 0,-0.04 0.08,-0.99 0.44,-1.3 0.07,-0.07 0.17,-0.1 0.27,-0.1 0.02,0 0.04,0 0.06,0 0.12,0 0.23,0.09 0.25,0.2 0.07,0.35 -0.59,1.07 -0.93,1.26l-0.04 0 -0.02 0.01zm0.53 -1.27c-0.23,0.3 -0.37,0.66 -0.39,1.03 0.34,-0.26 0.75,-0.8 0.71,-1.02 0,0 0,-0.08 -0.12,-0.08l-0.04 0c-0,-0 -0,-0 -0,-0 -0.06,0 -0.13,0.02 -0.17,0.07l-0 0z"/>
   <polygon class="fil8" points="15.38,111.85 18.67,111.85 18.53,115.78 15.24,115.78 "/>
   <polygon class="fil17" points="32.04,119.71 35.43,120.06 36.07,112.75 32.68,112.39 "/>
   <path class="fil0" d="M35.79 118.97l-3.97 0c-0.13,0 -0.25,0.09 -0.28,0.23l-0.65 2.93c-0.01,0.04 -0.02,0.08 -0.02,0.12 0,0.22 0.15,0.41 0.37,0.47l0.11 0c1.29,-0.02 2.22,-0.1 3.86,-0.1 1,0 4,0.1 5.39,0.1 1.4,0 1.56,-1.36 0.99,-1.49 -2.53,-0.55 -4.44,-1.33 -5.25,-2.05 -0.15,-0.13 -0.35,-0.21 -0.55,-0.21 -0,0 -0.01,0 -0.01,0l-0 0z"/>
   <path class="fil3" d="M36.01 119.43c-0.03,-0.01 -0.05,-0.03 -0.06,-0.07 -0,-0 -0,-0.01 -0,-0.01 0,-0.03 0.02,-0.05 0.04,-0.06 0.12,-0.08 1.18,-0.73 1.54,-0.54 0.08,0.04 0.13,0.12 0.13,0.2 0,0 -0,0.01 -0,0.01 0,0.02 0,0.04 0,0.06 0,0.14 -0.06,0.27 -0.16,0.36 -0.16,0.11 -0.36,0.17 -0.55,0.17 -0.03,0 -0.05,-0 -0.08,-0 -0.29,-0.01 -0.58,-0.05 -0.86,-0.12l-0 0zm0.23 -0.11c0.16,0.05 0.34,0.08 0.51,0.08 0.23,0 0.46,-0.05 0.66,-0.14 0.07,-0.06 0.11,-0.15 0.11,-0.24 0,-0.01 -0,-0.03 -0,-0.04 0,-0.06 -0.03,-0.09 -0.05,-0.09 -0.03,-0.01 -0.05,-0.02 -0.08,-0.02 -0.01,0 -0.01,0 -0.02,0 -0.4,0.08 -0.77,0.23 -1.11,0.45l-0.02 0z"/>
   <path class="fil3" d="M36 119.45c-0.02,-0.02 -0.04,-0.04 -0.04,-0.07 0,-0.05 0.08,-0.99 0.47,-1.3 0.08,-0.07 0.18,-0.1 0.29,-0.1 0.01,0 0.03,0 0.04,0 0,0 0,0 0,0 0.12,0 0.23,0.09 0.25,0.2 0.07,0.35 -0.59,1.07 -0.93,1.26l-0.04 0 -0.04 0.01zm0.52 -1.28c-0.23,0.29 -0.37,0.65 -0.39,1.03 0.34,-0.25 0.75,-0.8 0.71,-1.02 0,0 0,-0.08 -0.12,-0.08l-0.03 0c-0.07,0 -0.13,0.03 -0.18,0.07l0 0z"/>
   <polygon class="fil8" points="32.68,112.39 36.07,112.75 35.73,116.52 32.34,116.16 "/>
   <path class="fil0" d="M16.73 45.05l17.46 0c1.66,9.06 6.85,41.12 3.11,69.7l-5.91 -0.73c0,0 0.55,-37.92 -4.67,-51.94 -0.6,7.5 -1.33,15.48 -1.93,19.73 -1.52,10.45 -4.77,33.29 -4.77,33.29l-6 0c0,0 1.23,-21.87 1.8,-32.14 0.62,-11.16 0.91,-35.62 0.91,-37.91z"/>
   <polygon class="fil3" points="37.99,116.11 30.67,115.02 30.9,112.99 38.5,113.99 "/>
   <polygon class="fil3" points="20.76,115.14 13.67,115.14 13.67,113.02 21.03,112.89 "/>
   <path class="fil8" d="M26.74 62.06c0.85,2.45 1.51,4.99 1.95,7.54 0.49,-6.66 -1.46,-13.76 -1.46,-13.76l-0.48 6.22z"/>
   <path class="fil3" d="M16.24 48.09l-0.4 2.11c0,0 12.21,1.58 19.81,1.54l-0.27 -1.45 -19.14 -2.2z"/>
   <path class="fil17" d="M41.91 32.44c1.31,3.69 3.82,10.12 5.84,11.41 0.29,0.15 0.58,0.23 0.88,0.22 0.35,-0.03 0.74,-0.18 1.16,-0.43 1.53,-1.51 -0.41,-6.51 -0.56,-6.88l-0.01 -0.02 -0 -0.01 -0 -0c-0.42,-1.06 -1.21,-3.44 -1.8,-5.25l-0 -0 -5.51 0.94z"/>
   <path class="fil20" d="M59.21 33.2c0.05,-0.01 0.1,-0.02 0.16,-0.04l-0.08 -0.05c-0.02,0.03 -0.05,0.06 -0.08,0.09l-0 0z"/>
   <path class="fil3" d="M38.63 28.29l0.51 0.95 2.4 4.44 0.5 0.92 6.74 -2.34c0,0 -2.81,-10.47 -3.78,-11.54l-6.38 7.58z"/>
   <path class="fil2" d="M38.63 28.29l0.51 0.95 2.4 4.44 0.5 0.92 6.74 -2.34c0,0 -2.81,-10.47 -3.78,-11.54l-6.38 7.58z"/>
   <path class="fil8" d="M39.14 29.24l2.4 4.44c1.49,-2.92 1.06,-6.91 1.06,-6.91l-3.46 2.47z"/>
   <path class="fil3" d="M45.01 20.72c-2.56,-2.96 -6.24,-4.75 -10.16,-4.93 -6.61,-0.31 -8.68,0.35 -11.1,2.5 -3.53,3.15 -7.92,30.29 -7.92,30.29 5.34,1.49 10.89,2.25 16.44,2.25 1.12,0 2.25,-0.03 3.37,-0.09 1.12,-0.06 0.08,-7.55 2.46,-12.61 2.66,-5.63 5,-11.49 6.9,-17.42l0 0.01z"/>
   <path class="fil2" d="M15.84 48.58c5.35,1.49 10.9,2.25 16.46,2.25 1.12,0 2.24,-0.03 3.35,-0.09 1.11,-0.06 0,-0.93 0.13,-2.36 0.05,-0.67 0.13,-1.46 0.24,-2.32 0.11,-0.85 0.27,-1.82 0.44,-2.79 0.11,-0.52 0.23,-1.04 0.36,-1.56 0.31,-1.23 0.73,-2.44 1.26,-3.59 0.29,-0.62 0.58,-1.24 0.85,-1.84 0.47,-1.06 0.93,-2.08 1.33,-3.06 0.89,-2.06 1.64,-3.95 2.27,-5.6 0.44,-1.19 0.84,-2.25 1.17,-3.16 0.36,-1.02 0.64,-1.85 0.85,-2.47 0.27,-0.82 0.4,-1.27 0.4,-1.27 -0.22,-0.28 -0.46,-0.54 -0.71,-0.79 -2.48,-2.44 -5.75,-3.91 -9.22,-4.13l-0.22 0c-5.03,-0.24 -7.44,0.09 -9.36,1.21 -0.62,0.37 -1.2,0.81 -1.74,1.3 -0.5,0.54 -0.9,1.18 -1.16,1.86 -0.82,1.9 -1.5,3.88 -2.02,5.89l-0.29 1.08c-0.44,1.65 -0.86,3.4 -1.26,5.18 -0.12,0.51 -0.23,1.01 -0.34,1.51 -0.16,0.77 -0.33,1.54 -0.48,2.3 -0.4,1.91 -0.76,3.77 -1.07,5.44 -0.44,2.4 -0.8,4.4 -1.02,5.65 -0.15,0.88 -0.23,1.37 -0.23,1.37zm19.4 -32.54c0.44,0.01 0.89,0.05 1.33,0.1 1.78,0.24 4.51,1.66 4.44,2.34 -0.07,0.67 -1.11,2.4 -3.76,1.98 -0.93,-0.17 -1.8,-0.54 -2.58,-1.07 -1.46,-0.97 -2.53,-2.28 -2.64,-2.7 -0.13,-0.51 1.59,-0.68 3.2,-0.63l-0 -0.01z"/>
   <path class="fil3" d="M29.55 25.09c0,0 -3.5,8.47 -4.22,15.5l9.46 1.21c0,0 4.24,-11.44 5.12,-15.02 0,-0.01 -7.56,-0.76 -10.37,-1.69z"/>
   <polygon class="fil2" points="38.06,27.1 39.38,27.23 38.42,27.98 "/>
   <path class="fil17" d="M32.92 16.71c0.71,2.04 3.37,2.97 4.77,3.11 0.12,0.02 0.25,0.03 0.37,0.03 0.93,0 1.78,-0.55 2.16,-1.4 0.38,-0.85 -1.59,-0.79 -1.43,-1.69 0.11,-0.55 0.34,-1.06 0.66,-1.52 0.17,-0.26 0.35,-0.51 0.54,-0.75l-2.55 -5.47c-0.57,2.37 -2.31,6.92 -4.51,7.69z"/>
   <path class="fil8" d="M37.32 11.54c-1.22,2.66 0.5,4.5 1.46,5.2 0.11,-0.54 0.34,-1.06 0.66,-1.52l-2.11 -3.68z"/>
   <path class="fil20" d="M45.88 4.44c0,0 0.82,4.51 -1.54,6.32 -2.35,1.81 -2.59,-6.62 -2.59,-6.62l4.13 0.3z"/>
   <path class="fil13" d="M45.88 4.44c0,0 0.82,4.51 -1.54,6.32 -2.35,1.81 -2.59,-6.62 -2.59,-6.62l4.13 0.3z"/>
   <path class="fil17" d="M37.47 14.55c0.77,1.08 2.02,1.71 3.34,1.71 0.49,0 0.97,-0.09 1.42,-0.25 1.1,-0.39 2.02,-1.18 2.55,-2.22 0.08,-0.14 0.14,-0.29 0.21,-0.44 1.1,-2.8 1.33,-9.64 -1.63,-9.38 -2.45,0.21 -4.85,-0.55 -6.1,1.57 -0.36,0.6 -0.57,1.28 -0.61,1.98 -0.27,3.27 -0.58,5.16 0.82,7.04z"/>
   <path class="fil0" d="M41.41 9.13c-0.05,0.26 0.07,0.49 0.24,0.52 0.17,0.03 0.34,-0.17 0.38,-0.44 0.04,-0.27 -0.08,-0.49 -0.24,-0.51 -0.17,-0.02 -0.34,0.17 -0.38,0.44z"/>
   <path class="fil0" d="M44.38 9.55c-0.05,0.26 0.08,0.49 0.24,0.52 0.17,0.03 0.34,-0.17 0.38,-0.44 0.04,-0.27 -0.07,-0.49 -0.24,-0.52 -0.17,-0.03 -0.34,0.2 -0.38,0.44z"/>
   <path class="fil21" d="M43.42 9.55c0.2,0.85 0.52,1.66 0.94,2.42 -0.22,0.11 -0.46,0.17 -0.71,0.17 -0.2,0 -0.4,-0.04 -0.59,-0.12l0.36 -2.48z"/>
   <path class="fil0" d="M40.63 8.04c0.01,0 0.03,0.01 0.04,0.01 0.04,0 0.08,-0.02 0.11,-0.05 0.24,-0.24 0.56,-0.38 0.9,-0.38 0.05,0 0.1,0 0.16,0.01 0.01,0 0.02,0 0.03,0 0.07,0 0.14,-0.05 0.16,-0.12 0,-0.01 0,-0.02 0,-0.03 0,-0.07 -0.05,-0.14 -0.12,-0.15l-0 0c-0.07,-0.01 -0.15,-0.02 -0.23,-0.02 -0.42,0 -0.81,0.17 -1.11,0.46 -0.03,0.03 -0.05,0.07 -0.05,0.11 0,0.04 0.02,0.08 0.04,0.11l0 -0c0.01,0.02 0.03,0.04 0.05,0.05l0 -0z"/>
   <path class="fil0" d="M45.8 8.71c0.01,0.01 0.03,0.01 0.04,0.01 0.02,0 0.03,-0 0.04,-0.01 0.06,-0.02 0.11,-0.07 0.11,-0.14 0,-0.02 -0,-0.03 -0.01,-0.05l-0 0c-0.14,-0.48 -0.51,-0.86 -0.99,-1.02 -0.01,-0 -0.03,-0.01 -0.04,-0.01 -0.07,0 -0.13,0.05 -0.15,0.11l0 0c-0,0.01 -0.01,0.03 -0.01,0.04 0,0.07 0.05,0.13 0.11,0.15l-0 0c0.37,0.14 0.66,0.44 0.77,0.82 0.02,0.05 0.06,0.08 0.11,0.09l-0 -0z"/>
   <path class="fil10 str5" d="M41 12.14c0,0 0.55,1.17 1.66,1.13"/>
   <path class="fil20" d="M39.58 3.85l0.04 1.45c-0.42,0.15 -0.7,0.55 -0.7,1 0,0.1 0.01,0.2 0.04,0.29 0.35,1.24 -0.51,3.05 -1.5,3.7 0,0 0,-0.52 -0.44,-0.44 -0.44,0.08 -0.58,2.81 0.15,4.18 0,0 -1.57,-1.44 -2.03,-4.36 -0.44,-2.69 -0.36,-4.4 0,-5.7l4.44 -0.12z"/>
   <path class="fil13" d="M39.58 3.85l0.04 1.45c-0.42,0.15 -0.7,0.55 -0.7,1 0,0.1 0.01,0.2 0.04,0.29 0.35,1.24 -0.51,3.05 -1.5,3.7 0,0 0,-0.52 -0.44,-0.44 -0.44,0.08 -0.58,2.81 0.15,4.18 0,0 -1.57,-1.44 -2.03,-4.36 -0.44,-2.69 -0.36,-4.4 0,-5.7l4.44 -0.12z"/>
   <path class="fil0" d="M34.89 5.58c0.48,0.05 0.98,0.07 1.47,0.07 1.1,0 2.2,-0.12 3.27,-0.36 4.47,-0.89 6.37,0.75 6.37,0.75 0.59,-0.53 0.93,-1.29 0.93,-2.09 0,-0.04 -0,-0.09 -0,-0.13 -0.13,-1.29 -1.92,-1.5 -1.92,-1.5 0,0 -0.54,-1.45 -1.72,-1.89 -1.19,-0.44 -2.37,0.66 -2.37,0.66 0,0 -1.48,-1.43 -3.2,-1.02 -1.19,0.24 -2.06,1.29 -2.06,2.51 -0.01,1.22 -2.02,0.2 -1.98,1.24 0.04,1.04 1.22,1.75 1.22,1.75z"/>
   <ellipse class="fil10 str5" cx="41.76" cy="9.35" rx="1.45" ry="1.67"/>
   <path class="fil10 str5" d="M46.86 9.6c-0.1,0.72 -0.72,1.26 -1.45,1.26 -0.81,0 -1.46,-0.66 -1.46,-1.46 0,-0.81 0.65,-1.46 1.46,-1.46 0.82,0.06 1.45,0.75 1.45,1.57 0,0.03 -0,0.07 -0,0.1l-0 0z"/>
   <path class="fil10 str5" d="M43.21 9.55c0,0 0.47,-0.29 0.75,0.05"/>
   <path class="fil10 str5" d="M40.31 9.35l-2.54 -0.34c-0.05,-0.01 -0.11,-0.01 -0.16,-0.01 -0.28,0 -0.55,0.09 -0.77,0.26l-0.11 0.09"/>
   <path class="fil17" d="M34.86 9.96c0.25,0.78 0.81,1.43 1.54,1.8 0.97,0.48 1.66,-0.33 1.57,-1.36 -0.09,-0.91 -0.7,-2.29 -1.78,-2.34 -0.02,-0 -0.03,-0 -0.05,-0 -0.76,0 -1.39,0.62 -1.39,1.39 0,0.18 0.03,0.35 0.1,0.52l-0 0z"/>
   <path class="fil8" d="M18.64 33.84c4.19,-1.74 7.5,-8.93 7.5,-8.93l-2.38 -1.44 -3.23 2.6 -0.29 1.08c-0.44,1.65 -0.86,3.4 -1.26,5.18 -0.12,0.51 -0.23,1.01 -0.34,1.51z"/>
   <polygon class="fil3" points="41.72,34.6 48.95,31.95 49.16,32.56 41.93,35.13 "/>
   <rect class="fil22" transform="matrix(1.0886 0.172612 -0.172612 1.0886 2.0488 49.5476)" width="19.24" height="11.87"/>
   <polyline class="fil10 str6" points="9.46,54.47 5.2,56.67 8.57,60.09 "/>
   <polyline class="fil10 str6" points="13.52,60.87 17.78,58.67 14.42,55.25 "/>
   <line class="fil10 str6" x1="10.05" y1="60.32" x2="12.93" y2= "55.02" />
   <path class="fil17" d="M17.49 23.28c-2.19,2.26 -4.64,4.82 -5.2,5.63 -0.48,1.41 -0.39,2.9 0.86,3.64 1.25,0.74 2.04,0.19 3.62,-0.65l0 -0c2.1,-2.2 6.28,-5.38 6.28,-5.38l-0.33 -1.29 -5.24 -1.95z"/>
   <path class="fil3" d="M27.33 16.26c1.15,2.44 0.28,7.57 -1.85,9.38 -2.23,1.86 -4.62,3.57 -7.11,5.09l-3.87 -5.07c0,0 4.12,-4.02 6.61,-6.34 1.7,-1.64 3.87,-2.72 6.21,-3.06l-0 0z"/>
   <path class="fil2" d="M27.33 16.26c1.15,2.44 0.28,7.57 -1.85,9.38 -2.23,1.86 -4.62,3.57 -7.11,5.09l-3.87 -5.07c0,0 4.12,-4.02 6.61,-6.34 1.7,-1.64 3.87,-2.72 6.21,-3.06l-0 0z"/>
   <polygon class="fil3" points="14.51,25.33 14.03,25.98 18.07,31.27 18.64,30.86 "/>
   <path class="fil23" d="M56.59 30.83c-1.53,2.56 -9.27,7.12 -9.66,9.83 -0.28,1.98 0.67,3.28 2.28,3.27 1.05,-0.4 2.36,-1.57 3.66,-2.96 1.86,-2.01 3.7,-4.51 4.7,-5.93 0.49,-0.69 0.78,-1.12 0.78,-1.12 0,0 0.09,-0 0.26,-0 0.2,-1.13 0.19,-2.47 -0.8,-3.04 -0.34,-0.19 -0.74,-0.2 -1.17,-0.08 -0.01,0.01 -0.03,0.02 -0.03,0.04z"/>
   <path class="fil23" d="M63.03 28.32c-0.45,-0 -5.46,1.87 -6.31,2.42 0,0 -0.95,0.79 -0.21,2.12 0.73,1.34 1.84,1.06 1.84,1.06 0,0 2.46,-0.02 4.44,-0.14 1.26,-0.08 2.33,-0.19 2.44,-0.37 0.04,-0.06 0.04,-0.22 -0.01,-0.43 -0.25,-1.26 -1.77,-4.65 -2.18,-4.66z"/>
   <path class="fil23" d="M8.68 48.05c-0.01,0.17 -0.03,1.34 -0.04,2.54 -0.01,1.34 -0,2.73 0.04,2.84 0.06,0.2 3.07,2.07 4.02,2.01 0.1,-0.01 0.17,-0.03 0.22,-0.08 0.32,-0.31 0.71,-2.34 0.97,-3.94 0.18,-1.11 0.31,-2.02 0.31,-2.02l-1.77 -1.73c0,0 -1,-0.94 -1.69,-0.94 -0.39,0 -2.03,0.83 -2.06,1.32z"/>
   <path class="fil23" d="M12.29 28.91c-1.04,1.49 -3.01,17.59 -3.13,18.57 0.53,-0.39 1.33,-0.75 1.59,-0.75 0.53,0 1.25,0.56 1.55,0.82 0,-0 0,-0.01 0.01,-0.01l-0.01 -0.01c0,0 2.92,-13.6 3.63,-14.61 0.7,-1.02 1.69,-2.96 0.14,-4.29 -0.72,-0.62 -2.14,-1.43 -3.76,0.29z"/>
   <path class="fil0" d="M170.68 26.76c-4.3,1.8 -8.47,3.96 -12.43,6.42l-0.13 -0.17c-0.76,0.48 -1.25,0.79 -1.34,0.83 -2.56,2.39 -2.01,7.02 1.01,8.17 5.24,0.65 17.22,-4.15 17.19,-10.9 -0.01,-2.06 -1.42,-4.15 -4.3,-4.34z"/>
   <path class="fil24" d="M149.36 27.88c0,0 3.33,12.7 7.67,13.96 0.28,-0.01 0.54,-0.04 0.78,-0.09 3.47,-0.74 3.1,-5.86 0.45,-8.58 -0.17,-0.18 -0.32,-0.38 -0.45,-0.6 -0.01,-0.02 -0.02,-0.04 -0.04,-0.07l-5.43 -7.42 -0.58 -0.79c0,0 -0.12,0.04 -0.3,0.14 -0.2,0.12 -0.49,0.32 -0.79,0.65 -0.27,0.3 -0.56,0.71 -0.81,1.26 -0.19,0.42 -0.37,0.93 -0.5,1.54z"/>
  </g>
 </g>
</svg>
