<?xml version="1.0" encoding="UTF-8"?>
<!DOCTYPE svg PUBLIC "-//W3C//DTD SVG 1.1//EN" "http://www.w3.org/Graphics/SVG/1.1/DTD/svg11.dtd">
<!-- Creator: CorelDRAW -->
<svg xmlns="http://www.w3.org/2000/svg" xml:space="preserve" width="162.608mm" height="151.144mm" version="1.1" style="shape-rendering:geometricPrecision; text-rendering:geometricPrecision; image-rendering:optimizeQuality; fill-rule:evenodd; clip-rule:evenodd"
viewBox="0 0 144317.8 134143"
 xmlns:xlink="http://www.w3.org/1999/xlink"
 xmlns:xodm="http://www.corel.com/coreldraw/odm/2003">
 <defs>
  <style type="text/css">
   <![CDATA[
    .str4 {stroke:#0693FF;stroke-width:233.24;stroke-miterlimit:22.9256}
    .str0 {stroke:white;stroke-width:233.24;stroke-miterlimit:22.9256}
    .str3 {stroke:white;stroke-width:349.77;stroke-linecap:round;stroke-linejoin:round;stroke-miterlimit:22.9256}
    .str1 {stroke:white;stroke-width:233.24;stroke-miterlimit:22.9256;stroke-dasharray:1240.575728 1240.575728}
    .str2 {stroke:white;stroke-width:233.24;stroke-miterlimit:22.9256;stroke-dasharray:1063.515449 1063.515449}
    .fil8 {fill:none;fill-rule:nonzero}
    .fil13 {fill:#FEFEFE;fill-rule:nonzero}
    .fil9 {fill:#0693FF;fill-rule:nonzero}
    .fil2 {fill:#263238;fill-rule:nonzero}
    .fil17 {fill:#B97964;fill-rule:nonzero}
    .fil12 {fill:white;fill-rule:nonzero}
    .fil0 {fill:#021269;fill-rule:nonzero}
    .fil5 {fill:#0062FF;fill-rule:nonzero}
    .fil1 {fill:black;fill-rule:nonzero;fill-opacity:0.101961}
    .fil6 {fill:black;fill-rule:nonzero;fill-opacity:0.200000}
    .fil3 {fill:white;fill-rule:nonzero;fill-opacity:0.200000}
    .fil14 {fill:black;fill-rule:nonzero;fill-opacity:0.400000}
    .fil7 {fill:#D2D3D5;fill-rule:nonzero;fill-opacity:0.400000}
    .fil4 {fill:white;fill-rule:nonzero;fill-opacity:0.400000}
    .fil11 {fill:white;fill-rule:nonzero;fill-opacity:0.501961}
    .fil16 {fill:white;fill-rule:nonzero;fill-opacity:0.600000}
    .fil10 {fill:white;fill-rule:nonzero;fill-opacity:0.701961}
    .fil15 {fill:white;fill-rule:nonzero;fill-opacity:0.901961}
   ]]>
  </style>
 </defs>
 <g id="Layer_x0020_1">
  <metadata id="CorelCorpID_0Corel-Layer"/>
  <g id="_3008752331040">
   <polygon class="fil0" points="86725.01,134142.91 57604.85,134142.91 62536.18,95435.76 81793.68,95435.76 "/>
   <polygon class="fil1" points="84085.35,113469.55 60976.36,107662.32 62536.18,95435.76 81793.68,95435.76 "/>
   <path class="fil0" d="M47705.99 131239.3l48905.74 0c311.96,0 551.95,252.06 551.95,552.04l0 1751.79c0,299.89 -252.06,551.95 -551.95,551.95l-48905.74 0c-299.98,0 -552.04,-252.06 -552.04,-551.95l0 -1751.79c0,-312.05 252.06,-552.04 552.04,-552.04z"/>
   <path class="fil0" d="M140802.15 0.09l-137286.51 0c0,0 0,0 0,0 -1943.76,0 -3515.64,1571.89 -3515.64,3515.64 0,0 0,0 0,0l0 92940.14c0,1943.76 1571.89,3515.64 3515.64,3515.64l137286.51 0c1943.76,0 3515.64,-1571.89 3515.64,-3515.64l0 -92928.16c0,0 0,-11.98 0,-11.98 0,-1943.76 -1571.89,-3515.64 -3515.64,-3515.64 0,0 0,0 0,0z"/>
   <g id="freepik--Ladder--inject-20">
    <polygon class="fil2" points="117105.18,134142.91 121028.64,134142.91 126343.91,104722.59 122432.52,104722.59 "/>
    <polygon class="fil3" points="117105.18,134142.91 121028.64,134142.91 126343.91,104722.59 122432.52,104722.59 "/>
    <polygon class="fil3" points="117105.18,134142.91 119960.87,134142.91 125288.03,104722.59 122432.52,104722.59 "/>
    <path class="fil2" d="M106090.61 113469.55l15658.08 0c0,0 0,0 0,0 467.9,0 851.84,-383.94 851.84,-851.93 0,0 0,0 0,0l0 0c0,0 0,0 0,0 0,-467.9 -383.94,-851.84 -851.84,-851.84 0,0 0,0 0,0l-15658.08 0c0,0 0,0 0,0 -467.9,0 -851.84,383.94 -851.84,851.84 0,0 0,0 0,0l0 0c0,0 0,0 0,0 0,467.99 383.94,851.93 851.84,851.93 0,0 0,0 0,0l0 0z"/>
    <path class="fil2" d="M104350.72 123332.2l15657.99 0c480.06,0 864,-395.92 864,-863.91 0,0 0,0 0,0l0 0c0,-479.97 -383.94,-863.91 -864,-863.91l-15657.99 0c-479.97,0 -863.91,383.94 -863.91,863.91l0 0c0,0 0,0 0,0 0,480.06 383.94,863.91 863.91,863.91l0 0z"/>
    <polygon class="fil2" points="101123.16,134142.91 105046.62,134142.91 110373.96,104722.59 106450.5,104722.59 "/>
    <polygon class="fil3" points="101123.16,134142.91 105046.62,134142.91 110373.96,104722.59 106450.5,104722.59 "/>
    <polygon class="fil3" points="101123.16,134142.91 103978.85,134142.91 109306.19,104722.59 106450.5,104722.59 "/>
    <polygon class="fil2" points="137538.56,134142.91 133615.01,134142.91 128287.67,104722.59 132211.22,104722.59 "/>
    <polygon class="fil4" points="137538.56,134142.91 133615.01,134142.91 128287.67,104722.59 132211.22,104722.59 "/>
    <polygon class="fil3" points="136470.79,134142.91 133615.01,134142.91 128287.67,104722.59 131143.45,104722.59 "/>
    <path class="fil2" d="M130663.39 113469.55l-15657.99 0c-479.97,0 -863.91,-383.94 -863.91,-864l0 0c0,-479.97 383.94,-863.91 863.91,-863.91l15657.99 0c480.06,0 864,383.94 864,863.91l0 0c0,480.06 -383.94,864 -864,864l0 0z"/>
    <path class="fil2" d="M132391.3 123332.2l-15657.99 0c0,0 0,0 0,0 -480.06,0 -864,-383.85 -864,-863.91 0,0 0,0 0,0l0 0c0,-479.97 383.94,-863.91 864,-863.91l15657.99 0c479.97,0 863.91,383.94 863.91,863.91l0 0c0,0 0,0 0,0 0,480.06 -383.94,863.91 -863.91,863.91 0,0 0,0 0,0l0 0z"/>
    <path class="fil3" d="M130663.39 113469.55l-15657.99 0c-479.97,0 -863.91,-383.94 -863.91,-864l0 0c0,-479.97 383.94,-863.91 863.91,-863.91l15657.99 0c480.06,0 864,383.94 864,863.91l0 0c0,480.06 -383.94,864 -864,864l0 0z"/>
    <path class="fil3" d="M132391.3 123332.2l-15657.99 0c0,0 0,0 0,0 -480.06,0 -864,-383.85 -864,-863.91 0,0 0,0 0,0l0 0c0,-479.97 383.94,-863.91 864,-863.91l15657.99 0c479.97,0 863.91,383.94 863.91,863.91l0 0c0,0 0,0 0,0 0,480.06 -383.94,863.91 -863.91,863.91 0,0 0,0 0,0l0 0z"/>
    <polygon class="fil2" points="121556.54,134142.91 117645.06,134142.91 112317.72,104722.59 116229.38,104722.59 "/>
    <polygon class="fil4" points="121556.54,134142.91 117645.06,134142.91 112317.72,104722.59 116229.38,104722.59 "/>
    <polygon class="fil3" points="120488.77,134142.91 117645.06,134142.91 112317.72,104722.59 115161.43,104722.59 "/>
    <path class="fil2" d="M105454.62 103318.8l28280.39 0c348,0 636,288 636,635.91l0 1535.76c0,347.91 -288,636 -636,636l-28280.39 0c-347.91,0 -635.91,-288.09 -635.91,-636l0 -1535.76c0,-347.91 288,-635.91 635.91,-635.91z"/>
    <path class="fil3" d="M105454.62 103318.8l10750.62 0c347.91,0 636,288 636,635.91l0 1535.76c0,347.91 -288.09,636 -636,636l-10750.62 0c-347.91,0 -635.91,-288.09 -635.91,-636l0 -1535.76c0,-347.91 288,-635.91 635.91,-635.91z"/>
   </g>
   <rect class="fil5" x="6755.25" y="110505.94" width="35767.37" height="23265"/>
   <rect class="fil5" x="4631.49" y="3431.58" width="135054.82" height="89616.52"/>
   <polygon class="fil6" points="4631.52,16881.79 139698.16,16881.79 139698.16,3515.47 4631.52,3515.47 "/>
   <polygon class="fil7" points="4631.52,93048.15 62512.04,93048.15 62512.04,17037.81 4631.52,17037.81 "/>
   <g>
    <polyline class="fil8 str0" points="120740.64,29384.2 120740.64,30284.14 119840.88,30284.14 "/>
    <line class="fil8 str1" x1="117933.06" y1="30284.14" x2="88284.83" y2= "30284.14" />
    <polyline class="fil8 str0" points="87325.06,30284.14 86413.05,30284.14 86413.05,29384.2 "/>
    <line class="fil8 str2" x1="86413.05" y1="27740.51" x2="86413.05" y2= "12166.57" />
    <polyline class="fil8 str0" points="86413.05,11350.67 86413.05,10438.66 87325.06,10438.66 "/>
    <line class="fil8 str1" x1="89232.61" y1="10438.66" x2="118880.85" y2= "10438.66" />
    <polyline class="fil8 str0" points="119840.88,10438.66 120740.64,10438.66 120740.64,11350.67 "/>
    <line class="fil8 str2" x1="120740.64" y1="12982.47" x2="120740.64" y2= "28568.48" />
    <rect class="fil9 str0" x="120176.77" y="9862.77" width="1151.79" height="1151.79"/>
    <rect class="fil9 str0" x="120176.77" y="29708.21" width="1151.79" height="1151.79"/>
    <rect class="fil9 str0" x="85837.17" y="9862.77" width="1151.79" height="1151.79"/>
    <rect class="fil9 str0" x="85837.17" y="29708.21" width="1151.79" height="1151.79"/>
    <rect class="fil9 str0" x="103006.97" y="9862.77" width="1151.79" height="1151.79"/>
    <rect class="fil9 str0" x="103006.97" y="29708.21" width="1151.79" height="1151.79"/>
    <rect class="fil9 str0" x="120176.77" y="19785.58" width="1151.79" height="1151.79"/>
    <rect class="fil9 str0" x="85837.17" y="19785.58" width="1151.79" height="1151.79"/>
   </g>
   <path class="fil10" d="M101963.11 18369.72l12358.45 0c551.95,0 1007.87,455.83 1007.87,1007.87l0 3311.6c0,551.95 -455.92,1007.87 -1007.87,1007.87l-12358.45 0c-551.95,0 -1007.87,-455.92 -1007.87,-1007.87l0 -3311.6c0,-552.04 455.92,-1007.87 1007.87,-1007.87z"/>
   <path class="fil10" d="M80653.75 18369.72l12358.45 0c551.95,0 1007.87,455.83 1007.87,1007.87l0 3311.6c0,551.95 -455.92,1007.87 -1007.87,1007.87l-12358.45 0c-551.95,0 -1007.87,-455.92 -1007.87,-1007.87l0 -3311.6c0,-552.04 455.92,-1007.87 1007.87,-1007.87z"/>
   <path class="fil10" d="M53225.3 83125.41l12358.36 0c552.04,0 1007.87,455.83 1007.87,1007.87l0 3311.6c0,551.95 -455.83,1007.87 -1007.87,1007.87l-12358.36 0c-552.04,0 -1007.87,-455.92 -1007.87,-1007.87l0 -3311.6c0,-552.04 455.83,-1007.87 1007.87,-1007.87z"/>
   <g>
    <line class="fil8 str3" x1="130783.38" y1="8266.98" x2="135270.77" y2= "8266.98" />
    <line class="fil8 str3" x1="130783.38" y1="10402.71" x2="135270.77" y2= "10402.71" />
    <line class="fil8 str3" x1="130783.38" y1="12538.44" x2="135270.77" y2= "12538.44" />
   </g>
   <polygon class="fil11" points="13798.28,74126.57 59092.51,74126.57 59092.51,28820.35 13798.28,28820.35 "/>
   <line class="fil8 str4" x1="32755.89" y1="32527.97" x2="32755.89" y2= "71606.9" />
   <path class="fil8 str4" d="M52289.32 71606.9l0 0c-10786.48,0 -19545.5,-8746.87 -19545.5,-19545.5l0 0c0,-10786.57 8746.96,-19533.43 19533.52,-19533.43l0 0"/>
   <rect class="fil12 str4" x="51449.54" y="31676.07" width="1691.7" height="1691.7"/>
   <rect class="fil12 str4" x="51449.54" y="70755.07" width="1691.7" height="1691.7"/>
   <rect class="fil12 str4" x="31916.07" y="51221.6" width="1691.7" height="1691.7"/>
   <path class="fil12 str4" d="M33187.84 32527.97c0,239.99 -191.97,431.96 -431.96,431.96 -239.99,0 -431.96,-191.97 -431.96,-431.96 0,-239.99 191.97,-431.96 431.96,-431.96 239.99,0 431.96,191.97 431.96,431.96l0 0z"/>
   <path class="fil12 str4" d="M33187.84 71606.9c0,240.07 -191.97,432.04 -431.96,432.04 -239.99,0 -431.96,-191.97 -431.96,-432.04 0,-239.99 191.97,-431.96 431.96,-431.96 0,0 0,0 0,0 239.99,0 431.96,191.97 431.96,431.96 0,0 0,0 0,0l0 0z"/>
   <path class="fil13" d="M107818.35 83773.39l-13714.23 0c-2183.83,0 -3959.49,-1775.66 -3959.49,-3959.41l0 0c0,-2183.83 1775.66,-3959.49 3959.49,-3959.49l13714.23 0c2183.74,0 3959.49,1775.66 3959.49,3959.49l0 0c0,2183.74 -1775.75,3959.41 -3959.49,3959.41l0 0z"/>
   <path class="fil13" d="M119864.84 49973.78l-42366.75 0c-479.97,0 -863.91,-383.94 -863.91,-864l0 0c12.07,-467.9 396.01,-851.84 863.91,-851.84 0,0 0,0 0,0l42366.75 0c0,0 0,0 0,0 479.97,0 863.91,383.94 863.91,863.91 0,0 0,0 0,0l0 0c-12.07,467.99 -396.01,851.93 -863.91,851.93l0 0z"/>
   <path class="fil13" d="M119864.84 56296.91l-42366.75 0c0,0 0,0 0,0 -479.97,0 -863.91,-383.94 -863.91,-864 0,0 0,0 0,0l0 0c0,-479.97 383.94,-863.91 863.91,-863.91l42366.75 0c479.97,0 863.91,383.94 863.91,863.91l0 0c0,480.06 -383.94,864 -863.91,864l0 0z"/>
   <path class="fil13" d="M119864.84 62643.93l-26396.71 0c0,0 0,0 0,0 -480.06,0 -864,-383.85 -864,-863.91l0 0c0,-479.97 383.94,-863.91 864,-863.91l26384.64 0c479.97,0 863.91,383.94 863.91,863.91l0 0c0,480.06 -383.94,863.91 -863.91,863.91l0 0 12.07 0z"/>
   <polygon class="fil14" points="8902.89,10210.74 11890.55,10210.74 11890.55,7223.08 8902.89,7223.08 "/>
   <path class="fil14" d="M15490.16 7223.08l1463.79 0c419.89,0 767.88,348 767.88,767.88l0 1463.79c0,419.89 -348,767.79 -767.88,767.79l-1463.79 0c-419.89,0 -767.79,-347.91 -767.79,-767.79l0 -1463.79c0,-419.89 347.91,-767.88 767.79,-767.88z"/>
   <path class="fil14" d="M21909.23 7223.08l252.06 0c755.99,0 1367.85,611.95 1367.85,1367.93l0 252.06c0,755.99 -611.86,1367.85 -1367.85,1367.85l-252.06 0c-755.99,0 -1367.85,-611.86 -1367.85,-1367.85l0 -252.06c0,-755.99 611.86,-1367.93 1367.85,-1367.93z"/>
   <path class="fil15" d="M18069.73 81013.73l0 -1163.81 -599.96 -48.01c-84.05,-383.94 -239.99,-743.92 -444.03,-1067.95l383.94 -467.99 -827.97 -827.97 -467.99 383.94c-323.94,-215.84 -683.83,-359.98 -1067.95,-444.03l-48.01 -599.96 -1163.81 0 -59.91 599.96c-371.87,84.05 -743.92,240.07 -1067.95,444.03l-467.99 -383.94 -827.97 827.97 383.94 467.99c-215.84,324.03 -371.87,683.83 -444.03,1067.95l-599.96 48.01 0 1163.81 599.96 59.91c84.05,383.94 228,744.01 444.03,1067.95l-383.94 467.99 827.97 815.9 467.99 -383.94c324.03,215.93 683.83,371.87 1067.95,444.03l59.91 599.96 1163.81 0 48.01 -599.96c383.94,-84.05 744.01,-227.92 1067.95,-444.03l467.99 383.94 827.97 -815.9 -383.94 -467.99c215.84,-323.94 359.98,-683.83 444.03,-1067.95l599.96 -59.91zm-3671.4 995.89c-887.88,0 -1595.85,-719.87 -1595.85,-1595.85 0,-887.88 719.87,-1595.85 1595.85,-1595.85 887.88,0 1595.76,719.87 1595.76,1595.85 0,887.88 -719.78,1595.85 -1595.76,1595.85l0 0z"/>
   <path class="fil16" d="M22809.18 84313.35l0 -899.95 -467.99 -48.01c-59.91,-299.89 -179.9,-587.98 -347.91,-839.86l299.89 -371.87 -647.89 -647.8 -359.98 299.89c-252.06,-168.1 -539.88,-288.09 -851.84,-348l-48.1 -479.97 -911.93 0 -48.01 479.97c-299.98,59.91 -587.98,179.9 -851.93,348l-359.98 -299.89 -647.89 647.8 299.89 371.87c-168.01,252.06 -288,539.97 -347.91,839.86l-467.99 48.01 0 912.02 467.99 48.01c59.91,299.89 179.9,587.98 347.91,839.77l-299.89 371.87 647.89 647.89 359.98 -299.89c252.06,168.01 539.97,288 851.93,347.91l48.01 467.99 911.93 0 48.1 -467.99c299.89,-59.91 587.89,-179.9 851.84,-347.91l359.98 299.89 647.89 -647.89 -299.89 -371.87c168.01,-252.06 288,-539.88 347.91,-839.77l467.99 -59.91 0 -0.18zm-2879.65 779.86c0,0 0,0 0,0 -683.83,0 -1235.87,-551.95 -1235.87,-1235.78 0,-683.83 552.04,-1235.78 1235.87,-1235.78 683.83,0 1235.78,551.95 1235.78,1235.78 0,0 0,0 0,0 0,683.83 -551.95,1235.78 -1235.78,1235.78 0,0 0,0 0,0l0 0z"/>
   <path class="fil4" d="M18069.73 86904.91l0 -767.79 -395.92 -36.03c-48.1,-252.06 -156.03,-491.86 -288.09,-707.89l252.06 -299.98 -527.81 -527.81 -311.96 252.06c-215.93,-143.96 -455.92,-239.99 -707.97,-288.09l-36.03 -395.92 -779.86 0 -36.03 395.92c-252.06,48.1 -491.86,156.03 -707.89,288.09l-311.96 -252.06 -527.9 527.81 252.06 299.98c-143.96,215.84 -239.99,455.83 -288,707.89l-396.01 36.03 0 767.79 396.01 36.03c48.01,252.06 155.94,491.86 288,707.97l-252.06 299.89 527.9 527.81 311.96 -252.06c215.84,143.96 455.83,252.06 707.89,299.98l36.03 395.92 767.88 0 35.94 -395.92c252.06,-48.1 491.86,-156.03 707.97,-299.98l311.96 252.06 527.81 -527.81 -252.06 -299.89c143.96,-215.93 240.07,-455.92 288.09,-707.97l407.82 -36.03 0.18 0zm-2411.66 659.96c-563.84,-12.07 -1007.87,-479.97 -1007.87,-1043.81 0,-575.91 467.9,-1043.9 1043.81,-1043.9 575.91,0 1043.9,467.99 1043.9,1043.9 0,0 0,0 0,0 0,575.82 -467.99,1043.81 -1043.9,1043.81 -12.07,0 -12.07,0 -23.87,0l0 0 -12.07 0z"/>
   <path class="fil2" d="M19014.5 27297.1l12459.81 4678.92 -6518.84 -6518.84c-184.07,105.26 -420.51,157.71 -631.03,157.71 -341.7,0 -657.03,-131.26 -893.47,-368.14 -236.52,-236.52 -368.14,-578.22 -368.14,-920 0,-709.84 578.22,-1288.06 1288.06,-1288.06 341.7,0 657.03,131.26 919.91,368.14 236.52,236.52 368.14,552.22 368.14,893.56 0,210.43 -52.45,446.96 -157.62,631.03l6518.75 6518.75 -4678.92 -12459.72 -4127.06 919.91 -157.71 -1472.13 -788.65 -788.74 -4573.75 4573.75 788.74 788.65 1498.13 157.71 -919.91 4127.06 -26.45 0.44z"/>
   <path class="fil17" d="M21405.3 26612.65c59.91,-12.07 119.99,-23.87 191.97,-48.01l-96.03 -59.91c-23.96,35.94 -60,71.98 -96.12,107.92l0 0 0.18 0z"/>
   <polygon class="fil16" points="6755.18,133758.97 42522.69,133758.97 42522.69,110505.85 6755.18,110505.85 "/>
   <rect class="fil5" x="8063.02" y="114861.31" width="33151.83" height="17733.82"/>
   <rect class="fil12" x="10762.77" y="117512.93" width="24524.92" height="755.99"/>
   <rect class="fil12" x="10762.77" y="119852.67" width="11770.49" height="755.99"/>
   <rect class="fil12" x="10762.77" y="122192.41" width="14818.19" height="755.99"/>
   <rect class="fil12" x="10762.68" y="124520.1" width="5219.4" height="755.99"/>
   <rect class="fil12" x="10762.77" y="126859.84" width="3383.59" height="755.99"/>
  </g>
 </g>
</svg>
