<?xml version="1.0" encoding="UTF-8"?>
<!DOCTYPE svg PUBLIC "-//W3C//DTD SVG 1.1//EN" "http://www.w3.org/Graphics/SVG/1.1/DTD/svg11.dtd">
<!-- Creator: CorelDRAW -->
<svg xmlns="http://www.w3.org/2000/svg" xml:space="preserve" width="217.773mm" height="84.3973mm" version="1.1" style="shape-rendering:geometricPrecision; text-rendering:geometricPrecision; image-rendering:optimizeQuality; fill-rule:evenodd; clip-rule:evenodd"
viewBox="0 0 21777.28 8439.73"
 xmlns:xlink="http://www.w3.org/1999/xlink"
 xmlns:xodm="http://www.corel.com/coreldraw/odm/2003">
 <defs>
  <style type="text/css">
   <![CDATA[
    .fil0 {fill:#FEFEFE}
   ]]>
  </style>
 </defs>
 <g id="Layer_x0020_1">
  <metadata id="CorelCorpID_0Corel-Layer"/>
  <g id="_2226334015280">
   <path class="fil0" d="M2100.25 3544.46c0,0 -1141.23,510.55 -1704.33,1666.79 -563.11,1156.25 -360.39,2470.16 -360.39,2470.16l1148.73 758.32c0,0 990.73,-117.8 1906.72,-650.88 2236.81,-1301.75 2970.52,-2620.77 4775.11,-4516.6l-807.52 -657.64c-1840.72,2283.08 -3059.01,3631.79 -4575.41,4270.95 -1057.48,445.73 -1321.43,450.48 -1321.43,450.48 0,0 -26.17,-314.87 -11.97,-545.49 14.2,-230.64 49.68,-308.7 49.68,-308.7 0,0 1138.22,82.85 1827.82,-596.14 689.6,-678.99 663.07,-1464.09 663.07,-1464.09l-1590.08 -877.16zm-696.71 2150.24c0,0 130.2,-334.26 444.1,-770.98 313.89,-436.72 622.33,-600.49 622.33,-600.49 0,0 201.97,1190.07 -1066.43,1371.47z"/>
   <path class="fil0" d="M10325.84 6007.36c0,0 -118.8,-673.19 324.72,-2106.69 443.52,-1433.51 815.75,-1908.7 815.75,-1908.7l938.6 487.31c0,0 -632.88,1248.05 -799.59,2053.75 -166.7,805.7 -155.58,1061.3 -155.58,1061.3 0,0 600.1,-283.37 1000.18,-883.49 400.08,-600.11 450.09,-733.47 450.09,-733.47 0,0 327.83,-1033.52 444.52,-1372.47 116.69,-338.95 283.38,-611.22 283.38,-611.22l1011.3 555.66c0,0 -437.58,907.16 -643.38,1584.15 -205.8,676.99 -232.88,893.62 -232.88,893.62 0,0 547.01,-276.2 882.8,-514.5 335.78,-238.31 1592.52,-975.86 1592.52,-975.86l-48.74 1191.49c0,0 -1337.98,813.39 -1787.5,1149.17 -449.52,335.79 -622.83,335.79 -622.83,335.79l-996.53 -530.76c0,0 -232.88,379.11 -574.09,655.32 -341.2,276.22 -622.82,427.86 -622.82,427.86l-1259.92 -758.26z"/>
   <polygon class="fil0" points="7195.82,6197.34 4257.11,2947.79 3449.59,3605.44 7270.75,7473.95 "/>
   <path class="fil0" d="M8872.48 2080.73c-49,125.9 -643.21,1861.58 -779.24,3229.34 -136.03,1367.76 111.77,1297.41 111.77,1297.41l625.9 750.98c0,0 42,-1306.41 421.09,-2600.83 379.09,-1294.41 626.78,-2294.96 626.78,-2294.96l-1006.3 -381.94zm493.98 -2080.73c-49.73,49.73 -679.65,828.85 -679.65,828.85l834.37 773.59 701.75 -873.06 -856.47 -729.38z"/>
   <polygon class="fil0" points="6124.72,5862.17 6841.77,6230.48 8078.85,5466.35 8347.97,6451.36 7270.75,7473.95 "/>
   <polygon class="fil0" points="8538.32,6070.42 10419.79,4798.5 10325.84,6007.36 8830.91,7358.46 "/>
   <path class="fil0" d="M21762.82 2234.3c0,0 118.8,673.2 -324.72,2106.7 -443.52,1433.5 -815.75,1908.69 -815.75,1908.69l-938.6 -487.31c0,0 632.88,-1248.05 799.59,-2053.75 166.7,-805.7 155.58,-1061.3 155.58,-1061.3 0,0 -600.1,283.38 -1000.18,883.49 -97.78,146.68 -174.6,265.4 -234.95,361.17 -36.18,139.92 -78.3,288.96 -127.29,447.3 -443.52,1433.5 -815.75,1908.7 -815.75,1908.7l-938.6 -487.31c0,0 3.9,-7.71 11.17,-22.27l-83.87 -46.08c0,0 437.58,-907.17 643.38,-1584.16 205.8,-676.99 232.88,-893.62 232.88,-893.62 0,0 -547.01,276.2 -882.8,514.51 -58.81,41.74 -119.63,85.15 -179.93,128.35 -205.26,323.42 -235.93,405.18 -235.93,405.18 0,0 -327.83,1033.52 -444.52,1372.47 -116.69,338.95 -283.38,611.22 -283.38,611.22l-1011.3 -555.66c0,0 437.57,-907.17 643.37,-1584.15 205.8,-676.99 232.89,-893.62 232.89,-893.62 -600.38,303.15 -1042.32,724.14 -1038.41,628.55l48.74 -1191.5c-77.38,37.87 723.64,-623.14 973.42,-623.14l996.53 530.76c0,0 232.88,-379.11 574.08,-655.32 341.21,-276.22 622.83,-427.86 622.83,-427.86l1225.15 737.34c87.65,-101.39 193.96,-210.91 313.63,-307.78 341.2,-276.21 622.83,-427.86 622.83,-427.86l1259.91 758.26z"/>
  </g>
 </g>
</svg>
