<?xml version="1.0" encoding="UTF-8"?>
<!DOCTYPE svg PUBLIC "-//W3C//DTD SVG 1.1//EN" "http://www.w3.org/Graphics/SVG/1.1/DTD/svg11.dtd">
<!-- Creator: CorelDRAW -->
<svg xmlns="http://www.w3.org/2000/svg" xml:space="preserve" width="7.14642in" height="7.35583in" version="1.1" style="shape-rendering:geometricPrecision; text-rendering:geometricPrecision; image-rendering:optimizeQuality; fill-rule:evenodd; clip-rule:evenodd"
viewBox="0 0 857.32 882.44"
 xmlns:xlink="http://www.w3.org/1999/xlink"
 xmlns:xodm="http://www.corel.com/coreldraw/odm/2003">
 <defs>
  <style type="text/css">
   <![CDATA[
    .fil7 {fill:none}
    .fil8 {fill:#FEFEFE}
    .fil6 {fill:#373435}
    .fil4 {fill:#373435}
    .fil10 {fill:#FFF212}
    .fil13 {fill:#ADD6FF}
    .fil3 {fill:#FFFF66}
    .fil5 {fill:#FFFF99}
    .fil11 {fill:#FFFFCC}
    .fil0 {fill:#1D4A90}
    .fil2 {fill:#51B4FF}
    .fil1 {fill:#ADD6FF}
    .fil12 {fill:#0693FF}
    .fil9 {fill:#28B3FF}
   ]]>
  </style>
     <mask id="id0">
  <radialGradient id="id1" gradientUnits="userSpaceOnUse" cx="281.25" cy="688.71" r="22.03" fx="281.25" fy="688.71">
   <stop offset="0" style="stop-opacity:0; stop-color:white"/>
   <stop offset="1" style="stop-opacity:1; stop-color:white"/>
  </radialGradient>
      <rect style="fill:url(#id1)" x="261.09" y="668.56" width="30.72" height="30.72"/>
     </mask>
     <mask id="id2">
  <radialGradient id="id3" gradientUnits="userSpaceOnUse" cx="549.79" cy="372.15" r="22.03" fx="549.79" fy="372.15">
   <stop offset="0" style="stop-opacity:0; stop-color:white"/>
   <stop offset="1" style="stop-opacity:1; stop-color:white"/>
  </radialGradient>
      <rect style="fill:url(#id3)" x="529.63" y="352" width="30.72" height="30.72"/>
     </mask>
 </defs>
 <g id="Layer_x0020_1">
  <metadata id="CorelCorpID_0Corel-Layer"/>
  <g id="_2848773076224">
   <path class="fil0" d="M753.73 423.67l0 0c-56.98,0 -103.59,46.62 -103.59,103.59l0 206.71 207.18 0 0 -206.71c0,-56.98 -46.62,-103.59 -103.59,-103.59z"/>
   <path class="fil1" d="M388.32 437.18c-56.58,0 -262.31,44.23 -260.25,38.06 2.06,-6.17 127.55,-124.47 127.55,-124.47l-218.08 -130.64 316.83 59.66 -1.03 -279.79 152.24 225.28 177.96 -110.07c0,0 -97.72,184.13 -81.26,184.13 16.46,0 242.76,59.66 242.76,59.66l-225.28 87.44 -231.45 -9.26z"/>
   <path class="fil2" d="M210.14 631.19c0,0 10.65,-165.03 57.37,-231.27 46.73,-66.25 170.94,-130.72 279.18,-65.66 108.24,65.06 121.85,149.65 110.61,250.79 -11.24,101.14 -8.28,283.92 -8.28,283.92l-254.93 0c0,0 1.62,-28.72 -2.02,-60.31 -3.63,-31.59 -38.58,-27.11 -57.02,-27.11 -18.45,0 -57.58,6.99 -76.31,-11.46 -18.73,-18.45 -9.78,-127.19 -9.78,-127.19l-38.82 -11.71z"/>
   <g>
    <path class="fil3" d="M413.78 186.02c53.94,0 97.67,43.73 97.67,97.67 0,64.12 -53.6,81.1 -55.61,97.14 -0.86,6.88 0,19.66 0,19.66l-42.07 0 -42.07 0c0,0 0.86,-12.77 0,-19.66 -2.01,-16.04 -55.61,-33.02 -55.61,-97.14 0,-53.94 43.73,-97.67 97.67,-97.67z"/>
    <path class="fil4" d="M371.71 400.5l84.13 0 0 31.57c0,11 -9,19.99 -19.99,19.99l-44.14 0c-11,0 -19.99,-9 -19.99,-19.99l0 -31.57z"/>
    <g>
     <path class="fil5" d="M412.23 407.97c0,0 -22.87,-0.89 -40.52,-2.3l0 4.33 40.52 -2.03z"/>
     <path class="fil5" d="M412.23 416.77c0,0 -22.87,-0.89 -40.52,-2.3l0 4.33 40.52 -2.03z"/>
     <path class="fil5" d="M412.23 425.58c0,0 -22.87,-0.89 -40.52,-2.3l0 4.33 40.52 -2.03z"/>
    </g>
    <path class="fil4" d="M427.97 455.05c0.15,0.75 0.23,1.52 0.23,2.3 0,7.09 -6.46,12.83 -14.43,12.83 -7.97,0 -14.43,-5.75 -14.43,-12.83 0,-0.79 0.08,-1.55 0.23,-2.3l28.39 0z"/>
    <g>
     <path class="fil6" d="M392.66 398.31c4.19,-27.68 -3.29,-53.45 -16.08,-78.1 -1.46,-2.81 8.84,-10.27 10.79,-19.1 -2.85,-1.15 -5.54,-2.86 -7.81,-5.05 -20.74,-19.95 0.86,-22.34 9.23,-2.71 0.87,2.04 1.31,3.95 1.41,5.73 3.14,1 6.46,1.1 9.72,-0.3 -3.84,-3.65 -6.68,-8.13 -7.87,-13.35 -6.32,-27.71 29.17,3.69 17.49,9.56 -1.09,1.84 -2.41,3.33 -3.91,4.49 10.73,9.41 24.33,8.81 33.75,4.69 -15.95,-28.56 19.04,-25.87 13.28,-7.4 -1.39,4.45 -4.39,7.72 -8.35,9.9 2.91,3.39 7.01,6.55 12.57,8.93 36.23,15.49 -27.23,-10.68 -28.29,79.89 -0.01,1.26 0.29,2.3 0.9,3.37 -0.77,-0.63 -1.08,-1.61 -1.26,-2.57 -4.68,-25.2 8.43,-65.71 35.62,-75.32 -9.37,-3.67 -16.32,-4.92 -22.14,-13.07 -11.19,4.45 -27.88,1.72 -38.92,-6.68 -3.85,1.8 -8.38,1.95 -12.73,0.78 -1.24,8.25 -9.49,13.42 -11.85,16.7l0.01 0.04c11.29,26.78 21.46,49.84 14.43,79.55zm-4.99 -100.25c-0.11,-5.09 -3.55,-10.49 -13.84,-15.63l-0.1 -0.05c0.47,3.73 6.41,12.03 13.94,15.68zm15.38 -1.11c1.39,-1.05 2.76,-2.42 4.08,-4.17 0.25,-0.33 0.45,-0.42 0.78,-0.55 4.75,-7.41 -21.06,-24.9 -11.69,-5.53 2,4.12 4.31,7.5 6.83,10.24zm4.89 -4.72l0.07 -0.03c-0.03,0.01 -0.05,0.02 -0.07,0.03zm33.75 10.83c9.36,-5.05 13.16,-13.55 2.49,-17.31 -5.7,-2 -8.3,7.73 -2.49,17.31z"/>
    </g>
    <path class="fil7" d="M392.66 398.31c6.22,-19.15 -4.06,-61.94 -15.19,-78.7 -1.65,-2.48 2.77,-1.99 7.18,-8.46 8.68,-12.76 2.65,-23.49 -10.21,-29.93 -6.51,-3.26 3.12,14.99 13.57,18.79 6.92,2.52 17.05,1.12 20.39,-6.25 2.61,-0.67 1.45,-8.59 -3.66,-12.66 -6.75,-5.37 -13.45,-10.08 -10.97,4.03 0.98,5.54 13.04,18.11 19.48,20.68 11.84,4.72 24.93,3.72 34.8,-4.81 6.26,-5.41 4.13,-15.15 -5.04,-17.08 -5.22,-1.1 -7.62,8.74 -4.45,15.58 7.65,16.54 12.25,14.24 27.61,21.16 2.41,1.09 0.35,-0.45 -6.16,3.61 -29.06,18.09 -30.97,40.95 -31.64,71.22 -0.02,0.81 0.38,2.69 1.13,3.38"/>
    <path class="fil8" d="M329.1 286.37c0,-50.02 40.55,-90.57 90.57,-90.57 4.04,0 8.01,0.26 11.91,0.78 -5.48,-1.06 -11.14,-1.61 -16.94,-1.61 -49.12,0 -88.93,39.82 -88.93,88.93 0,35.39 17.93,55 32.46,68.22 -13.89,-13.39 -29.07,-32.9 -29.07,-65.75z"/>
   </g>
   <path class="fil9" d="M127 608.54c-34.97,0 -63.5,-28.53 -63.5,-63.5 0,34.97 -28.53,63.5 -63.5,63.5 34.97,0 63.5,28.53 63.5,63.5 0,-34.97 28.53,-63.5 63.5,-63.5z"/>
   <path class="fil9" d="M837.51 209.56c-12.21,0 -22.17,-9.96 -22.17,-22.17 0,12.21 -9.96,22.17 -22.17,22.17 12.21,0 22.17,9.96 22.17,22.17 0,-12.21 9.96,-22.17 22.17,-22.17z"/>
   <path class="fil9" d="M249.24 152.65c-18.25,0 -33.13,-14.88 -33.13,-33.13 0,18.25 -14.88,33.13 -33.13,33.13 18.25,0 33.13,14.88 33.13,33.13 0,-18.25 14.88,-33.13 33.13,-33.13z"/>
   <g>
    <circle class="fil10" cx="276.45" cy="683.92" r="8.27"/>
    <path class="fil11" style="mask:url(#id0)" d="M276.45 668.98c8.25,0 14.94,6.69 14.94,14.94 0,8.25 -6.69,14.94 -14.94,14.94 -8.25,0 -14.94,-6.69 -14.94,-14.94 0,-8.25 6.69,-14.94 14.94,-14.94z"/>
   </g>
   <g>
    <circle class="fil10" cx="544.99" cy="367.36" r="8.27"/>
    <path class="fil11" style="mask:url(#id2)" d="M544.99 352.41c8.25,0 14.94,6.69 14.94,14.94 0,8.25 -6.69,14.94 -14.94,14.94 -8.25,0 -14.94,-6.69 -14.94,-14.94 0,-8.25 6.69,-14.94 14.94,-14.94z"/>
   </g>
   <g>
    <path class="fil12" d="M857.32 727.23c-24.69,-25.76 -107.89,-111.34 -156.74,-135.44 -48.86,-24.11 -97.73,-15.71 -131.24,-10.82 -33.51,4.89 -49.56,11.17 -74.35,8.03 -1.31,-0.17 -2.66,-0.38 -4.03,-0.63 -19.22,-4 -34.31,-19.03 -33.43,-49.42 0.88,-30.43 18.71,-47.29 18.71,-47.29l-0.98 -0.28 1.13 -0.15 0.97 -0.13c0,0 -0.14,-0.03 -0.39,-0.08 5.77,-2.13 54.71,-19.96 100.91,-30.01l-1.71 0.38c-3.36,-3.97 -7.56,-7.44 -12.07,-10.07 0,0 31.98,0.93 67.58,2.89l0 0c33.57,1.85 70.36,4.61 86.63,8.37 33.53,7.75 116.43,64.36 139.02,79.58l0 185.1zm-279.14 -266.31c0.96,-0.21 1.91,-0.41 2.86,-0.61 -0.95,0.2 -1.91,0.4 -2.86,0.61zm3.04 -0.65c0.96,-0.2 1.93,-0.4 2.89,-0.6 -0.96,0.2 -1.92,0.39 -2.89,0.6zm3.06 -0.63c0.97,-0.2 1.94,-0.39 2.91,-0.58 -0.97,0.19 -1.93,0.38 -2.91,0.58zm3.01 -0.6c0.97,-0.19 1.94,-0.37 2.91,-0.56 -0.97,0.18 -1.94,0.37 -2.91,0.56zm3.1 -0.59c0.95,-0.18 1.9,-0.35 2.85,-0.52 -0.95,0.17 -1.9,0.34 -2.85,0.52zm3 -0.55c0.93,-0.17 1.86,-0.33 2.78,-0.48 -0.92,0.16 -1.85,0.32 -2.78,0.48zm3.01 -0.52c0.93,-0.16 1.86,-0.31 2.78,-0.46 -0.92,0.15 -1.85,0.3 -2.78,0.46zm2.91 -0.48c1.93,-0.31 3.85,-0.59 5.73,-0.85 -1.89,0.26 -3.8,0.55 -5.73,0.85zm5.85 -0.87c0.9,-0.12 1.8,-0.24 2.7,-0.36 -0.89,0.11 -1.79,0.23 -2.7,0.36zm2.9 -0.38c0.89,-0.11 1.78,-0.22 2.66,-0.32 -0.88,0.1 -1.77,0.21 -2.66,0.32zm2.83 -0.34c0.9,-0.1 1.8,-0.2 2.69,-0.29 -0.89,0.09 -1.79,0.19 -2.69,0.29zm2.7 -0.29c0.91,-0.09 1.81,-0.18 2.71,-0.26 -0.9,0.08 -1.8,0.16 -2.71,0.26zm2.76 -0.26c0.87,-0.08 1.73,-0.14 2.59,-0.21 -0.86,0.06 -1.72,0.13 -2.59,0.21zm2.74 -0.22c0.86,-0.06 1.71,-0.12 2.55,-0.16 -0.84,0.05 -1.69,0.1 -2.55,0.16zm2.62 -0.17c0.85,-0.05 1.68,-0.09 2.51,-0.12 -0.83,0.03 -1.67,0.07 -2.51,0.12zm2.59 -0.12c0.83,-0.03 1.66,-0.06 2.47,-0.07 -0.81,0.02 -1.64,0.04 -2.47,0.07zm2.51 -0.07c0.81,-0.02 1.61,-0.03 2.4,-0.03 -0.79,0 -1.59,0.01 -2.4,0.03zm2.5 -0.03c0.8,-0 1.59,0.01 2.37,0.02 -0.78,-0.02 -1.57,-0.02 -2.37,-0.02zm-155.88 35.93c-2.8,-0.81 -6.81,-2.16 -11.01,-4.2l11.01 4.2z"/>
    <g>
     <path class="fil12" d="M501.43 497.67c21.46,4.62 43.57,7.6 53.1,8.94 17.48,4.16 34.56,-9.11 34.56,-27.29 0,-22 -17.79,-26.33 -25,-28.03 0,0 -42.65,-9.04 -78.81,-12.11 -29.2,-2.48 -42.24,5.42 -43.05,18.19 -0.19,3.05 0.31,6.37 1.45,9.9 1.84,5.67 5.77,10.12 10.32,13.55 0.75,0.55 1.48,1.06 2.18,1.54 0,0 0.01,0.01 0.01,0.01 1.35,0.89 2.73,1.71 4.11,2.44 2.41,1.26 5.15,2.48 8.15,3.64 3.71,1.37 6.74,2.14 8.11,2.46 0.51,0.12 0.79,0.17 0.79,0.17 0,0 -0.34,0.05 -0.97,0.13 7.64,2.42 16.29,4.58 25.05,6.46z"/>
     <path class="fil1" d="M485.27 439.18c36.17,3.07 78.81,12.11 78.81,12.11 0,0 0,-1.32 0,-1.32 0,0 0.21,0 0.61,0.01 -0.21,-0.05 -0.41,-0.1 -0.61,-0.14 0,0 -42.65,-9.04 -78.81,-12.11 -28.45,-2.42 -43.61,5.08 -43.1,20.16 0.49,-14.1 15.58,-21.04 43.1,-18.71z"/>
    </g>
    <g>
     <g>
      <path class="fil12" d="M480.05 490.29c40.26,-0.85 44.3,60.87 13.53,74.69 -6.37,2.86 -182.01,-14.44 -184.82,-17.09 -7.4,-1.63 -13.83,-6.92 -16.57,-14.58 -6.18,-17.28 8.91,-33.19 27.73,-32.63 26.02,0.77 134.77,-5.31 160.14,-10.38z"/>
      <path class="fil1" d="M470.87 564.46l-172.62 -20.93c0.57,0.41 7.05,3.23 7.77,3.57 0.89,0.32 1.81,0.58 2.74,0.79 2.23,2.1 113.1,13.41 162.11,16.58z"/>
     </g>
     <path class="fil1" d="M416.71 496.6c0,0 24.83,-1.76 45.6,-3.85 20.77,-2.09 32.14,-6.02 32.14,-6.02 0,0 -11.26,4.97 -33.33,7.55 -12.83,1.5 -30.14,3.02 -44.41,2.32z"/>
    </g>
    <g>
     <path class="fil12" d="M195.26 492.69c-0.34,1.69 101.17,51.73 113.18,54.81 11.92,3.36 23.5,-7.75 26.89,-19.39 3.5,-12.03 -4.21,-24.55 -16.32,-28.44 -21.38,-6.91 -74.46,-29.99 -102.21,-25.81 -11.17,1.68 -20.83,15.27 -21.54,18.83z"/>
     <path class="fil1" d="M198.4 494.77c40.74,17.16 110.04,52.73 122.23,51.48 0.86,-0.09 -5.23,3.34 -12.64,1.55 -9.4,-2.63 -92.45,-43.27 -109.59,-53.02z"/>
    </g>
    <g>
     <path class="fil12" d="M477.65 505.41c39.76,6.36 32.71,67.81 -0.04,75.9 -6.78,1.68 -169.77,-39.76 -172.06,-42.87 -6.99,-2.93 -12.37,-9.28 -13.7,-17.31 -2.99,-18.1 14.7,-31.06 33.12,-27.15 25.47,5.41 126.82,11.88 152.68,11.43z"/>
     <path class="fil1" d="M431.32 571.83c0,0 -117.88,-32.75 -120.71,-34.13 -2.84,-1.38 -12.13,-5.41 -14.52,-6.63 2.44,3.26 5.72,5.8 9.46,7.37 1.52,2.07 121.74,33.2 125.78,33.39z"/>
    </g>
    <path class="fil1" d="M564.09 451.29c0,0 120.69,3.51 154.22,11.26 33.53,7.75 116.43,64.36 139.02,79.58l0 -2.64c-22.59,-15.22 -105.49,-71.83 -139.02,-79.58 -33.53,-7.75 -154.22,-9.94 -154.22,-9.94 0,0 0,1.32 0,1.32z"/>
    <g>
     <path class="fil12" d="M168.05 421.73c-0.76,1.55 123.34,109.22 134.18,115.23 10.69,6.25 24.7,-1.57 30.91,-11.98 6.42,-10.76 2.11,-24.82 -8.62,-31.63 -18.95,-12.07 -89.77,-77.88 -119.32,-83.21 -23.79,-4.29 -35.57,8.33 -37.15,11.6z"/>
     <path class="fil1" d="M185.92 438.43c36.43,31.74 109.88,94.96 116.31,98.52 3.92,2.29 7.03,3.14 11.95,1.89 -2.45,-0.75 -6.71,-0.98 -9.41,-3.01 -30.36,-22.8 -92.35,-75.62 -118.84,-97.4z"/>
    </g>
    <g>
     <path class="fil12" d="M489.5 510.16c39.66,6.95 31.69,68.29 -1.17,75.89 -6.81,1.57 -145.57,-46.5 -147.81,-49.64 -6.95,-3.03 -12.23,-9.46 -13.44,-17.51 -2.72,-18.15 15.16,-30.84 33.52,-26.65 25.38,5.79 103.04,17.99 128.91,17.92z"/>
     <path class="fil1" d="M330.89 528.51c5.3,3.31 16.11,9.22 34.79,16.04 28.65,10.47 107.52,37.97 108.29,38.24 -37,-10.68 -131.61,-43.79 -133.45,-46.39 -3.86,-1.69 -7.21,-4.42 -9.62,-7.9z"/>
    </g>
    <g>
     <path class="fil12" d="M233.1 386.52c-1.12,1.31 91.63,136.91 100.6,145.47 8.76,8.76 24.29,4.74 32.94,-3.76 8.94,-8.78 8.34,-23.48 -0.32,-32.78 -15.27,-16.48 -67.1,-98.09 -94.34,-110.73 -21.92,-10.18 -36.52,-0.95 -38.88,1.81z"/>
     <path class="fil1" d="M234.78 389.66c0.54,0.76 93.39,133.46 100.61,139.24 7.22,5.79 11.32,7.57 11.47,7.99 -1.18,0.02 -7.17,0.52 -13.16,-4.9 -8.2,-7.83 -86.44,-121.86 -98.92,-142.33z"/>
    </g>
    <g>
     <g>
      <path class="fil12" d="M498.93 509.35c38.55,11.65 23.29,71.59 -10.25,75.21 -6.95,0.75 -116.76,-48.98 -118.61,-52.37 -6.53,-3.84 -11.01,-10.86 -11.25,-18.99 -0.53,-18.34 18.74,-28.81 36.46,-22.45 24.51,8.78 77.95,15.58 103.64,18.61z"/>
      <path class="fil1" d="M359.62 518.54c0.05,0.06 9.14,11.42 34.37,22.8 25.23,11.39 76.74,37.09 77.49,37.43 -12.03,-2.58 -99.27,-42.69 -101.41,-46.59 -5.05,-2.97 -8.87,-7.83 -10.45,-13.64z"/>
     </g>
     <path class="fil1" d="M398.38 492.58c0,0 19.72,6.44 37.88,9.83 10.67,1.99 31.48,4.95 43.06,6.01 8.13,0.75 10.92,-0.09 11.07,-0.08 -23.83,-2.87 -60.68,-7.83 -85.75,-14.7l-6.25 -1.06z"/>
    </g>
    <path class="fil13" d="M477.07 507.51c42.27,0.1 30.12,1.43 70.25,-10.97 43.62,-13.48 113.84,-38.73 158.66,-34.64 -55.75,3.23 -83.9,15.88 -136.3,31.1 -35.45,10.3 -56.13,20.72 -92.61,14.51z"/>
    <g>
     <path class="fil12" d="M299.33 419.35c-1.13,1.31 58.24,102.07 67.2,110.62 8.76,8.76 24.29,4.74 32.94,-3.76 8.94,-8.78 8.34,-23.48 -0.32,-32.78 -15.27,-16.48 -53.9,-72.26 -71.74,-77.48 -10.84,-3.17 -25.72,0.63 -28.08,3.39z"/>
     <path class="fil1" d="M299.33 419.35c0,0 45.35,77.55 68.01,106.33 4.94,6.28 12.77,9 14.37,9.48 -8.33,0.36 -12.77,-2.78 -15.17,-5.18 -8.12,-7.75 -57.51,-91.01 -65.98,-107.72l-1.22 -2.9z"/>
    </g>
   </g>
   <g>
    <path class="fil5" d="M653.47 453.13c16.5,-52.33 10.74,-89.36 -11.42,-109.86 -22.16,-20.5 -53.66,-20.59 -94.21,-8.3 -69.16,20.95 -159.3,82.92 -241.57,171.88 -38.16,41.27 -70.39,83.77 -95.54,124.53 -60.86,98.64 -80.18,187.06 -41.31,223 38.81,35.89 125.26,9.85 218.68,-58.3 1.08,1.82 1.97,3.86 2.67,6.15 -98.85,73.03 -190.75,101.31 -231.74,63.4 -42.44,-39.24 -18.43,-138.4 52.13,-247.01 24.79,-38.16 55.32,-77.49 90.74,-115.8 79.41,-85.88 165.85,-147.66 235.5,-173.78 49.85,-18.69 89.01,-21.07 115.04,3 26.04,24.08 34.3,57.68 9.79,121.7 -3.37,-0.24 -9.33,-0.64 -8.76,-0.61z"/>
    <path class="fil5" d="M219.77 549.69c-52.95,-91.86 -68.09,-172.5 -31.41,-206.42 26.29,-24.31 74.42,-20.2 131.77,6.15 2.51,-1.73 5.07,-3.42 7.68,-5.07 -65.25,-32.69 -120.55,-39.41 -149.84,-12.31 -39.95,36.94 -21.01,126.98 40.2,228.02 26.66,44 61.33,90.09 102.67,134.8 79.78,86.28 166.65,148.23 236.47,174.13 49.42,18.34 90.31,18.62 114.08,-3.36 35.19,-32.54 24.69,-106.27 -20.14,-192.43 -0.2,4.97 -0.39,9.96 -0.57,14.96 35.21,74.66 41.53,137.37 10.32,166.23 -3.61,3.34 -7.64,6.12 -12.03,8.4 -5.56,2.89 -11.74,4.94 -18.45,6.19 -10.83,2.03 -23.06,1.99 -36.42,0 -71.48,-10.66 -175.28,-76.96 -268.88,-178.18 -43.37,-46.9 -79.08,-95.39 -105.44,-141.11z"/>
   </g>
  </g>
 </g>
</svg>
