<?xml version="1.0" encoding="UTF-8"?>
<!DOCTYPE svg PUBLIC "-//W3C//DTD SVG 1.1//EN" "http://www.w3.org/Graphics/SVG/1.1/DTD/svg11.dtd">
<!-- Creator: CorelDRAW -->
<svg xmlns="http://www.w3.org/2000/svg" xml:space="preserve" width="1.18996in" height="1.24828in" version="1.1" style="shape-rendering:geometricPrecision; text-rendering:geometricPrecision; image-rendering:optimizeQuality; fill-rule:evenodd; clip-rule:evenodd"
viewBox="0 0 89.08 93.44"
 xmlns:xlink="http://www.w3.org/1999/xlink"
 xmlns:xodm="http://www.corel.com/coreldraw/odm/2003">
 <defs>
  <style type="text/css">
   <![CDATA[
    .str0 {stroke:#FEFEFE;stroke-width:0.78;stroke-miterlimit:2.61313}
    .fil0 {fill:none}
   ]]>
  </style>
 </defs>
 <g id="Layer_x0020_1">
  <metadata id="CorelCorpID_0Corel-Layer"/>
  <g id="_2466968827696">
   <path class="fil0 str0" d="M52.61 46.38c0,0 6.25,4.97 2.89,9.38 -3.37,4.41 -12.59,25.9 -21.25,29.82 -8.66,3.93 -7.86,5.21 -6.73,5.37 1.12,0.16 18.12,0.16 22.45,-8.02 4.33,-8.18 0.56,-14.83 2.97,-19.16 2.4,-4.33 4.49,-5.37 5.13,-9.46 0.64,-4.09 -4.57,-13.47 -5.45,-7.94z"/>
   <path class="fil0 str0" d="M38.57 38.7c0,0 -3.64,5.57 -4.88,6.03 -1.24,0.46 -3.76,0.16 -2.61,1.46 1.15,1.3 2.6,1.15 1.91,2.52 -0.69,1.38 -1.3,1.83 -0.46,3.29 0.84,1.45 3.21,1.83 1.38,4.59 -1.83,2.75 -9.56,7.8 -12.77,16.43 -3.21,8.64 -1.83,16.59 -0.53,16.36 1.3,-0.23 -0.15,-7.34 4.05,-13.99 4.2,-6.65 9.02,-8.87 10.55,-12.61 1.53,-3.75 4.74,-18.42 4.59,-21.25 -0.15,-2.83 -0.46,-4.05 -1.22,-2.83z"/>
   <path class="fil0 str0" d="M31.44 38.44c-1.55,0.87 -4.5,2.08 -4.45,5.32 0.05,3.24 1.4,4.26 0.44,4.65 -0.97,0.39 -2.57,0.19 -2.32,2.28 0.24,2.08 1.69,2.95 1.36,3.82 -0.34,0.87 -2.03,1.65 -2.32,3.29 -0.29,1.65 0.44,2.27 -0.1,3.15 -0.53,0.87 -6.19,3.24 -8.36,13.48 -2.18,10.24 3.97,17.93 2.82,18.57 -1.15,0.64 -14.28,-4.48 -13.57,-17.48 0.7,-13 11.46,-17.02 11.72,-20.74 0.25,-3.72 1.18,-2.96 2.73,-3.56 1.54,-0.6 1.68,-6.18 4.7,-10.07 3.02,-3.89 8.19,-4.16 7.38,-2.7z"/>
   <path class="fil0 str0" d="M45.3 47.32c0,0 1.3,2.14 0.88,3.2 -0.42,1.06 -4.55,0.98 -3.93,2.84 0.62,1.86 2.58,1.5 2.43,3.62 -0.16,2.12 -2.38,3.31 -1.08,4.34 1.29,1.03 1.76,0.88 1.24,2.38 -0.52,1.5 -1.03,2.89 -0.36,3.51 0.67,0.62 1.5,1.7 1.55,2.58 0.05,0.88 1.14,1.24 2.48,1.65 1.34,0.41 4.91,-1.09 4.96,4.13 0.05,5.22 1.5,10.28 -0.05,10.8 -1.55,0.52 -3.62,-0.26 -3.51,1.24 0.1,1.5 4.34,3.87 7.9,2.27 3.56,-1.6 5.11,-1.6 4.75,-5.48 -0.36,-3.87 -11.55,-15.22 -12.57,-24.49 -1.02,-9.27 0.24,-10.76 -1.65,-12.33 -1.89,-1.57 -3.46,-2.12 -3.03,-0.26z"/>
   <path class="fil0 str0" d="M16.94 34.83c-0.55,0.75 -4.71,2.6 -4.92,5.33 -0.21,2.73 0.34,5.74 -1.71,7.93 -2.05,2.19 -2.19,3.07 -1.57,4.65 0.62,1.57 2.87,2.32 1.43,2.46 -1.43,0.14 -3.55,-0.96 -4.03,0.27 -0.48,1.23 -1.16,4.3 -1.3,2.53 -0.14,-1.78 -0.41,-1.09 0.61,-3.83 1.03,-2.73 -0.88,-7.81 3.22,-13.57 4.09,-5.76 9.9,-7.2 8.26,-5.76z"/>
   <path class="fil0 str0" d="M0.66 24.32c3.87,12.44 9.69,12.9 17.06,14.59 7.37,1.69 7.64,3.02 11.08,3.87 3.44,0.84 5.5,0.09 7.82,2.95 2.32,2.86 7.5,7.41 10.23,8.03 2.73,0.62 7.98,1.34 15.14,6.21 7.17,4.87 14.16,10.69 21.35,6.33 7.19,-4.36 5.44,-8.01 4.2,-9.11 -1.24,-1.11 -1.4,-0.92 -2.17,-4.08 -0.77,-3.16 -3.21,-17.77 -8.94,-28.96 -5.74,-11.19 -15.31,-18.41 -22.4,-19.84 -7.09,-1.43 -7.42,-2.4 -12.74,-3.77 -6.62,-1.7 -44.51,11.34 -40.65,23.78z"/>
   <path class="fil0 str0" d="M5.21 14.43c12.68,-7.98 46.89,3.89 56.2,13.36 16.65,16.94 22.39,25.44 25.09,28.4 0.09,0.11 0.18,0.2 0.28,0.3 0.29,0.3 0.55,0.53 0.78,0.69 1.24,1.11 2.99,4.76 -4.2,9.11 -7.19,4.36 -14.18,-1.46 -21.35,-6.33 -7.17,-4.87 -12.41,-5.59 -15.14,-6.21 -2.73,-0.62 -7.92,-5.18 -10.23,-8.03 -2.32,-2.86 -4.38,-2.11 -7.82,-2.95 -3.44,-0.84 -3.71,-2.18 -11.08,-3.87 -7.37,-1.69 -13.2,-2.15 -17.06,-14.59 -0.32,-1.04 -0.35,-2.08 -0.13,-3.11 0.23,-0.83 0.42,-1.34 0.48,-1.5l0.02 -0.04 0 -0.01 0 -0c0.79,-1.78 2.25,-3.54 4.18,-5.22z"/>
   <path class="fil0 str0" d="M1.2 25.94c6.5,-2.42 17.64,-5.86 27.96,-5.6 15.81,0.4 33.34,20.5 38.32,26.38 4.98,5.88 3.78,6.97 6.27,8.64 2.49,1.67 3.69,3.86 5.48,4.92 1.79,1.06 4.64,1.08 6.2,0.13 0.51,-0.31 1.53,0.74 2.55,1.74 1.44,-2.41 0.4,-4.24 -0.41,-4.97 -0.23,-0.16 -0.49,-0.38 -0.78,-0.69 -0.1,-0.1 -0.2,-0.19 -0.28,-0.3 -2.7,-2.96 -8.44,-11.46 -25.09,-28.4 -9.31,-9.47 -43.52,-21.35 -56.2,-13.36 -1.93,1.68 -3.39,3.44 -4.18,5.22l-0 0 -0 0.01 -0.02 0.04c-0.06,0.16 -0.25,0.68 -0.48,1.5 -0.22,1.04 -0.19,2.08 0.13,3.11 0.18,0.57 0.36,1.11 0.54,1.63z"/>
   <path class="fil0 str0" d="M17.79 7.05c-0.33,0.14 -8.88,4.6 -12.87,8.12 -6.38,5.62 -4.96,13.76 4.81,17.25 7.73,2.76 12.75,0.86 16.14,2.55 3.39,1.68 4.32,3.75 7.75,4.39 3.43,0.64 10.39,3.14 12.33,4.95 1.94,1.81 6.78,6.16 10.46,6.99 3.68,0.84 6.3,2.04 5.16,0.88 -1.13,-1.16 -6.38,-3.63 -6.35,-6.9 0.03,-3.27 4.52,-1.87 2.98,-9.13 -1.54,-7.26 -4.56,-13.58 -6.19,-12.41 -1.63,1.16 -0.9,5.1 -4.99,4.26 -4.09,-0.83 -10.69,-2.82 -9.35,-1.75 1.34,1.07 7.89,5.69 6.71,6.58 -1.18,0.89 -1.86,-1.35 -5.73,-0.48 -3.87,0.87 -2.31,2.09 -5.46,2.75 -3.15,0.65 -5.89,-0.66 -9.76,-2.15 -3.87,-1.49 -17.62,-4.02 -19.02,-5.24 -1.4,-1.21 -0.71,-3.57 0.34,-4.15 1.05,-0.58 11.87,-4.32 13.31,-5.47 1.44,-1.15 4.16,-4.23 3.34,-3.71 -0.82,0.52 -2.52,2.74 -4.31,3.41 -1.79,0.67 -9.53,3.65 -12,4.63 -2.47,0.99 -2.7,1.05 -2.7,1.05 0,0 -2.42,-7.27 15.4,-16.42z"/>
  </g>
 </g>
</svg>
