<?xml version="1.0" encoding="UTF-8"?>
<!DOCTYPE svg PUBLIC "-//W3C//DTD SVG 1.1//EN" "http://www.w3.org/Graphics/SVG/1.1/DTD/svg11.dtd">
<!-- Creator: CorelDRAW -->
<svg xmlns="http://www.w3.org/2000/svg" xml:space="preserve" width="1.18996in" height="1.24828in" version="1.1" style="shape-rendering:geometricPrecision; text-rendering:geometricPrecision; image-rendering:optimizeQuality; fill-rule:evenodd; clip-rule:evenodd"
viewBox="0 0 343.53 360.36"
 xmlns:xlink="http://www.w3.org/1999/xlink"
 xmlns:xodm="http://www.corel.com/coreldraw/odm/2003">
 <defs>
  <style type="text/css">
   <![CDATA[
    .str0 {stroke:#0062FF;stroke-width:3.01;stroke-miterlimit:2.61313}
    .fil0 {fill:none}
   ]]>
  </style>
 </defs>
 <g id="Layer_x0020_1">
  <metadata id="CorelCorpID_0Corel-Layer"/>
  <g id="_2466965567008">
   <path class="fil0 str0" d="M202.9 178.85c0,0 24.12,19.17 11.13,36.17 -12.99,17.01 -48.54,99.86 -81.93,115.01 -33.39,15.15 -30.3,20.1 -25.97,20.72 4.33,0.62 69.87,0.62 86.57,-30.92 16.7,-31.54 2.17,-57.2 11.44,-73.89 9.27,-16.7 17.31,-20.72 19.79,-36.48 2.47,-15.77 -17.62,-51.94 -21.02,-30.61z"/>
   <path class="fil0 str0" d="M148.73 149.24c0,0 -14.05,21.49 -18.81,23.27 -4.77,1.78 -14.49,0.6 -10.07,5.61 4.42,5.01 10.02,4.42 7.37,9.73 -2.65,5.31 -5.01,7.08 -1.77,12.68 3.24,5.6 12.38,7.07 5.31,17.69 -7.08,10.61 -36.85,30.07 -49.23,63.38 -12.38,33.31 -7.07,63.97 -2.06,63.08 5.01,-0.88 -0.59,-28.3 15.62,-53.94 16.21,-25.65 34.78,-34.19 40.68,-48.64 5.9,-14.44 18.27,-71.04 17.69,-81.95 -0.59,-10.91 -1.77,-15.62 -4.72,-10.91z"/>
   <path class="fil0 str0" d="M121.26 148.26c-5.97,3.36 -17.36,8.03 -17.17,20.53 0.19,12.51 5.41,16.43 1.68,17.92 -3.73,1.49 -9.89,0.75 -8.96,8.78 0.93,8.03 6.53,11.39 5.23,14.75 -1.31,3.36 -7.84,6.35 -8.96,12.69 -1.12,6.35 1.68,8.77 -0.37,12.13 -2.05,3.36 -23.86,12.5 -32.25,52 -8.39,39.5 15.31,69.13 10.86,71.6 -4.44,2.47 -55.06,-17.28 -52.34,-67.4 2.72,-50.12 44.21,-65.64 45.18,-79.99 0.97,-14.35 4.56,-11.41 10.52,-13.74 5.96,-2.33 6.47,-23.82 18.13,-38.84 11.65,-15.02 31.59,-16.06 28.47,-10.43z"/>
   <path class="fil0 str0" d="M174.7 182.48c0,0 5.01,8.24 3.39,12.35 -1.62,4.11 -17.53,3.78 -15.14,10.96 2.39,7.17 9.96,5.78 9.36,13.94 -0.6,8.17 -9.16,12.75 -4.18,16.73 4.98,3.98 6.77,3.39 4.78,9.16 -1.99,5.78 -3.98,11.15 -1.39,13.55 2.59,2.39 5.78,6.57 5.98,9.96 0.2,3.39 4.38,4.78 9.56,6.38 5.18,1.59 18.92,-4.18 19.12,15.94 0.2,20.12 5.78,39.64 -0.2,41.63 -5.97,1.99 -13.94,-0.99 -13.55,4.78 0.4,5.77 16.73,14.94 30.48,8.76 13.75,-6.17 19.72,-6.17 18.33,-21.12 -1.39,-14.94 -44.54,-58.71 -48.48,-94.46 -3.94,-35.75 0.91,-41.51 -6.36,-47.57 -7.27,-6.06 -13.33,-8.18 -11.7,-1.01z"/>
   <path class="fil0 str0" d="M65.31 134.3c-2.11,2.9 -18.17,10.02 -18.97,20.55 -0.8,10.53 1.32,22.13 -6.59,30.56 -7.9,8.43 -8.43,11.86 -6.06,17.92 2.37,6.06 11.06,8.96 5.53,9.48 -5.53,0.53 -13.7,-3.69 -15.54,1.05 -1.84,4.74 -4.48,16.6 -5.01,9.75 -0.53,-6.85 -1.58,-4.22 2.37,-14.75 3.95,-10.54 -3.38,-30.1 12.4,-52.33 15.79,-22.23 38.18,-27.76 31.86,-22.23z"/>
   <path class="fil0 str0" d="M2.56 93.78c14.91,47.97 37.38,49.74 65.81,56.26 28.43,6.51 29.47,11.66 42.74,14.92 13.27,3.26 21.22,0.36 30.15,11.38 8.93,11.01 28.92,28.59 39.45,30.99 10.53,2.4 30.76,5.16 58.4,23.94 27.64,18.78 54.6,41.22 82.34,24.42 27.74,-16.8 20.98,-30.88 16.21,-35.15 -4.77,-4.27 -5.4,-3.55 -8.36,-15.73 -2.96,-12.19 -12.36,-68.55 -34.49,-111.69 -22.13,-43.14 -59.03,-70.99 -86.39,-76.5 -27.35,-5.5 -28.61,-9.27 -49.13,-14.54 -25.53,-6.55 -171.65,43.73 -156.75,91.7z"/>
   <path class="fil0 str0" d="M20.08 55.65c48.92,-30.79 180.82,15.01 216.73,51.54 64.21,65.32 86.34,98.11 96.76,109.53 0.33,0.41 0.69,0.78 1.09,1.16 1.13,1.17 2.12,2.04 3.01,2.65 4.77,4.27 11.52,18.36 -16.21,35.15 -27.74,16.8 -54.69,-5.65 -82.34,-24.42 -27.64,-18.78 -47.87,-21.54 -58.4,-23.94 -10.53,-2.4 -30.52,-19.97 -39.45,-30.99 -8.93,-11.01 -16.88,-8.12 -30.15,-11.38 -13.27,-3.26 -14.32,-8.4 -42.74,-14.92 -28.43,-6.51 -50.9,-8.29 -65.81,-56.26 -1.24,-4 -1.35,-8.01 -0.51,-12.01 0.88,-3.18 1.61,-5.16 1.85,-5.79l0.06 -0.16 0.01 -0.02 0 -0.01c3.03,-6.88 8.69,-13.64 16.12,-20.13z"/>
   <path class="fil0 str0" d="M4.64 100.05c25.08,-9.35 68.04,-22.61 107.82,-21.61 60.99,1.54 128.58,79.07 147.78,101.73 19.2,22.67 14.59,26.88 24.18,33.31 9.59,6.43 14.25,14.9 21.13,18.98 6.89,4.08 17.89,4.15 23.89,0.51 1.96,-1.19 5.89,2.84 9.82,6.72 5.55,-9.29 1.55,-16.36 -1.59,-19.17 -0.89,-0.6 -1.88,-1.48 -3.01,-2.65 -0.4,-0.38 -0.76,-0.75 -1.09,-1.16 -10.42,-11.42 -32.55,-44.21 -96.76,-109.53 -35.91,-36.54 -167.81,-82.33 -216.73,-51.54 -7.43,6.49 -13.09,13.25 -16.12,20.13l-0 0.01 -0.01 0.02 -0.06 0.16c-0.24,0.62 -0.97,2.61 -1.85,5.79 -0.83,4 -0.73,8.01 0.51,12.01 0.68,2.19 1.38,4.27 2.09,6.27z"/>
   <path class="fil0 str0" d="M68.61 27.19c-1.27,0.52 -34.25,17.76 -49.63,31.3 -24.61,21.67 -19.14,53.07 18.55,66.51 29.81,10.63 49.19,3.33 62.25,9.83 13.06,6.49 16.66,14.46 29.88,16.92 13.22,2.46 40.08,12.09 47.55,19.07 7.46,6.98 26.14,23.75 40.35,26.97 14.2,3.23 24.28,7.85 19.92,3.37 -4.36,-4.47 -24.62,-13.99 -24.5,-26.59 0.12,-12.61 17.42,-7.21 11.49,-35.2 -5.93,-27.99 -17.58,-52.37 -23.89,-47.88 -6.3,4.49 -3.49,19.65 -19.25,16.44 -15.77,-3.21 -41.23,-10.88 -36.06,-6.74 5.17,4.14 30.43,21.94 25.89,25.39 -4.54,3.45 -7.17,-5.2 -22.11,-1.84 -14.94,3.35 -8.9,8.08 -21.05,10.59 -12.14,2.51 -22.71,-2.53 -37.64,-8.28 -14.94,-5.75 -67.95,-15.52 -73.34,-20.2 -5.39,-4.68 -2.72,-13.76 1.33,-16.01 4.05,-2.24 45.77,-16.66 51.34,-21.1 5.57,-4.44 16.03,-16.31 12.88,-14.29 -3.15,2.01 -9.72,10.57 -16.63,13.14 -6.91,2.57 -36.74,14.06 -46.27,17.86 -9.53,3.8 -10.43,4.03 -10.43,4.03 0,0 -9.32,-28.03 59.38,-63.31z"/>
  </g>
 </g>
</svg>
